<svg xmlns="http://www.w3.org/2000/svg" xmlns:xlink="http://www.w3.org/1999/xlink" width="720" height="504" fill="none" xmlns:v="https://vecta.io/nano"><style><![CDATA[.B{opacity:.71}.C{fill:#08251d}.D{fill:#7a8956}.E{fill:#424922}.F{fill:#0b3d2c}.G{fill:#505b2e}.H{fill:#030f0b}.I{fill:#0d3529}.J{fill:#fcd6ce}.K{fill:#154938}.L{fill:#062619}.M{fill:#96a364}.N{fill:#124934}.O{opacity:.47}.P{fill:#72a5b2}.Q{fill:#244560}.R{fill:#d09c92}.S{fill:#0c1905}.T{fill:#134727}.U{fill:#7f574f}.V{fill:#664039}.W{fill:#995a50}.X{fill:#4e5e47}.Y{fill:#875f58}.Z{fill:#05180f}.a{fill:#0a3f27}.b{fill:#939393}]]></style><defs><path stroke="#7baddc" stroke-width="2" d="M110 182v23m16-11v23m-34-18v23m-5-57v23m56-40v23m-23-12v23m20 3v23m41-14v23m16-12v24m-34-19v23m-5-56v23m56-41v23m-23-11v23m20 2v23M38 126v23m16-12v23m-34-18v23m-5-57v23m56-40v23m-23-12v24m20 2v23m-11 24v24m16-12v23m-34-18v23m-5-57v23m56-40v23m-23-12v23m20 3v23m31-72v23m16-11v23m-34-19v23m-5-56v23m56-41v24m-23-12v23m20 2v24m40-21v23m16-12v23m-34-18v23m-5-57v23m56-40v23m-23-11v23m20 2v23m80 51v23m16-11v23m-34-19v23m-5-56v23m56-41v24m-23-12v23m20 2v24m41-14v23m16-12v23m-34-18v23m-5-57v23m56-40v23m-23-11v23m20 2v23m-173-94v24m16-12v23m-34-18v23m-5-57v23m56-40v23m-23-12v23m20 3v23m-11 24v23m16-11v23m-34-19v23m-5-56v23m56-41v24m-23-12v23m20 2v24m31-72v23m16-12v24m-34-19v23m-5-57v24m56-41v23m-23-11v23m20 2v23m40-21v24m16-12v23m-34-18v23m-5-57v23m56-40v23m-23-12v23m20 3v23m49-19v24m16-12v23m-34-18v23m-5-57v23m56-40v23m-23-12v23m20 3v23m41-14v23m16-11v23m-34-19v23m-5-56v23m56-41v23m-23-11v23m20 2v23m-173-93v23m16-12v23m-34-18v23m-5-57v24m56-41v23m-23-11v23m20 2v23m-11 24v24m16-12v23m-34-18v23m-5-57v23m56-40v23m-23-12v23m20 3v23m31-72v23m16-11v23m-34-19v24m-5-57v23m56-41v24m-23-12v23m20 3v23m40-21v23m16-12v24m-34-19v23m-5-57v24m56-41v23m-23-11v23m20 2v23m66 57v23m16-11v23m-34-19v23m-5-56v23m56-41v23m-23-11v23m20 2v23m41-13v23m16-12v23m-34-18v23m-5-57v23m33-29v24m-153-69v23m16-11v23m-34-19v24m-5-57v23m56-40v23m-23-12v23m20 3v23m-11 24v23m16-11v23m-34-19v23m-5-56v23m56-41v23m-23-11v23m20 2v23m31-71v23m16-12v23m-34-18v23m-5-57v24m56-41v23m-23-11v23m20 2v23m40-21v24m-18-7v23m-5-57v23m33-29v23" id="A"/><path id="B" d="M544.23 299.798a31.258 31.258 0 0 0-3.38.817v56.245l3.38-3.38v-53.682Z"/><path id="C" d="M540.85 249.894v50.723a30.685 30.685 0 0 1 3.38-.817v-49.905h-3.38v-.001Z"/></defs><g clip-path="url(#E)"><path d="M719.922-.036h-720v396.394h720V-.036Z" fill="#faf3f3"/><path d="M720-.036H-.031V435.83H720V-.036Z" fill="url(#D)"/><path d="M394.599 274.294 463 218.793l36 16.986 47-34.999 72.846 30.826L488 288.429l-93.401-14.135ZM19.348 323.576 141 280.696l38 15.343 68-39.222 63 29.793 32-20.968 79 45.307-210 43.795-170 9.654-21.652-40.822Z" fill="#87b2c4"/><path d="M141 280.696l38 15.412 10 22.988-19.904 1.838L141 280.696zm106-23.879l83.75 38.102L307 310.424l-20.299 6.33L247 256.817z" class="P"/><path d="m720 204-135 12.173-85 46.761-148.637 15.036-42.772 28.849-42.178 12.107h-93.862l-77.822 20.538L0 309.856v112.358l720-16.702V204Z" fill="#2f5377"/><path d="M719.809 317.632s-320.555 17.038-394.198 31.062S.001 397.777.001 397.777l-.079 106.221L288.5 482.294c98.407-6.14 145.305-3.687 197-11.84 68.877-10.863 127.33-20.652 135.5-18.935 28.605 6.01 98.882-46.739 98.882-46.739l-.073-87.148z" fill="#213a1f"/><path d="m357.742 437.003-15.881 3.337-20.22 4.079-116.679 5.598 112-10.536 76.3-10.592-35.52 8.114ZM435.314 394.24l-124.946 4.476-154.307 15.767 149.623-12.02 136.479-8.369M.573 466.996l95.643-.665L58 459.992l192.381 3.602-60.036 10.704-37.241 17.352-118.387 9.379-34.795 2.968.651-37.001ZM719.965 351.009l-78.721 14.249 9.858 2.155-16.376 15.593 85.196-11.903.043-20.094ZM572.049 340.96l-124.946 4.476-154.308 15.767 149.623-12.02 136.48-8.369" class="C"/><path d="m463 218.793 36 16.986s7.587 23.532 8.309 23.135L500 262.935l-37-44.142Z" class="P"/><path d="m596.554 216.854-91.106 49.397 36.085-.614 55.021-48.783Z" fill="#52768e"/><path d="M449.667 416.943 322 426.731l175.761-24.983L457 396.003l224.47-19.932-87.331 27.915-144.472 12.957Z" class="C"/><g fill="#03190e"><path d="M451.38 424.414l-1.319 1.979-8.38-8.443-17.818-25.595 2.111-3.167 13.007 20.674 12.399 14.552zm-23.559-37.997l-1.847 2.771 6.203 6.135 8.387 12.164 11.652 15.674 1.922-2.057s-8.685-12.073-11.068-17.377-3.968-18.366-4.035-23.842-7.059 3.3-7.059 3.3l5.051 11.295 6.697 13.971-12.406-15.7-3.497-6.334zm20.912-12.363l-7.257 3.168s1.621 12.598 3.082 17.681c1.694 5.893 8.119 20.646 8.119 20.646l1.561 3.718 3.035-1.408s-1.254-2.601-2.882-7.543c0 0-1.797-7.067-2.069-10.622-.23-3.005-.048-7.192 1.107-11.513s2.87-8.61 4.211-10.765 2.242-5.366 2.242-5.366l-7.653 1.475s2.089.725.441 8.489-4.154 11.81-4.154 11.81l-.045-8.511.262-11.259zm14.872-1.142l4.898.215-3.843 31.36 6.771-12.448 3.252-17.176 2.507 1.671-4.615 16.077s-5.54 9.743-6.001 13.152-.46 11.7-.724 12.381-3.013-.197-3.013-.197l.369-26.434.399-18.601zm-.908-.224l-2.309.176-1.598 44.863 2.573-.286 1.334-44.753zm18.672 5.583l-6.196 31.603c-.22.902-2.307 13.041-2.505 13.195s1.892 1.737 1.892 1.737l5.759-15.505s5.848-12.492 6.836-16.407 2.857-8.863 2.857-8.863l-3.233-2.155s-.526 7.939-2.197 12.448-6.133 12.492-6.287 12.58 2.241-13.085 2.878-14.471 3.626-12.448 3.626-12.448l-3.43-1.714zm-3.453-1.253l2.045 1.363-5.23 20.717-3.867 22.673-1.517-1.583 3.426-21.871 5.143-21.299zm14.245 7.855c-.344.338-12.283 31.771-12.377 31.899s-3.319 9.258-3.319 9.258l1.025.748 5.509-11.587c.076-.239 8.982-18.77 10.839-21.046s2.15-2.947 2.15-2.947l-3.827-6.325zm4.086 6.818l-5.747 12.77c-2.04 4.3-5.597 10.265-5.901 11.027l-5.882 11.516c-.144.216.585.98.585.98s8.409-15.192 9.685-16.106 9.133-11.274 9.571-11.502-1.238-7.866-2.311-8.685z"/></g><path d="M351.363 277.969 417.5 318.98l73.859-7.314-85.135-39.246-54.861 5.549Z" class="O Q"/><path d="m719.474 267.293-111.772 34.671-177.369 14.79-99.238 12.945-145.343 40.75 169.915-20.176 253.429-20.574 110.378-8.541v-53.865Z" fill="#1e3f56"/><path d="m427.781 428.94 11.238 3.902.315-2.358-17.532-7.624-1.025-.635a22.59 22.59 0 0 0-.623 2.47l7.627 4.245Z" class="F"/><path d="M400.529 413.778l19.624 10.919c.16-.84.373-1.664.623-2.47l-19.743-12.221-.504 3.772zm6.87-2.922l-5.925-4.152-.441 3.301 8.267 2.785 12.405 6.975a19.54 19.54 0 0 1 .839-1.646l-15.145-7.263z" class="K"/><path d="M425.442 419.508l-2.897-1.389-.839 1.646.474.266 17.354 8.96.822-2.693s-11.561-6.201-16.67-10.034a29.35 29.35 0 0 0-.786 1.234l2.542 2.01z" class="F"/><path d="M408.678 395.908c-2.466-4.89-4.891 6.066-4.891 6.066l9.5 7.927 9.613 7.598.786-1.234-.907-.713c-4.471-3.717-11.635-14.755-14.101-19.644zm16.576 1.13c-.861-4.389-1.205-8.995-.948-11.521s-.344-5.806-.344-5.806l-6.226 4.687s2.195-.266 4.126 7.431 1.458 12.434 1.458 12.434l-3.78-7.625-4.712-10.23-5.127 6.034s6.991 10.604 10.537 14.528c1.377 1.523 3.667 3.706 6.103 5.935a30.51 30.51 0 0 1 3.913-3.59 25.274 25.274 0 0 1-.936-1.451c-1.527-2.596-3.204-6.436-4.064-10.826z" class="K"/><path d="M436.603 421.952l3.036 2.654 2.107-2.598s-2.269-1.785-5.903-5.509l-5.59-7.181a30.443 30.443 0 0 0-3.913 3.59c4.842 4.429 10.263 9.044 10.263 9.044z" class="F"/><path d="M432.179 376.891l-4.494 1.959 7.815 16.884 4.017 8.511a41.553 41.553 0 0 1 1.896-.658l-9.234-26.696zm9.301-.757l-2.986-.399 4.626 16.858-.459 10.614 1.577-.421c-.195-4.455.161-10.182.161-10.182l-2.919-16.47z" class="K"/><path d="M442.507 406.75l-1.094-3.164-1.896.658 7.266 15.397s2.856-.418 2.793-1.147-3.707-8.175-4.79-11.44c-.308-.929-.472-2.499-.549-4.269a43.49 43.49 0 0 0-1.577.421l-.153 3.544zm.545 14.472l2.186-1.388-6.856-15.143a38.21 38.21 0 0 0-2.251 1.004l6.921 15.527z" class="F"/><path d="m424.774 380.22 11.356 25.475a38.211 38.211 0 0 1 2.251-1.004l-11.61-25.644-1.997 1.173Z" class="K"/><path d="M458.625 401.494a51.136 51.136 0 0 0-2.684-.08l-.124 1.516c-.022.032-.212-.558-.497-1.516a51.14 51.14 0 0 0-2.447.084l1.445 5.471c.199.907 3.658 12.729 3.548 12.954s2.462.729 2.462.729l-1.639-16.458c-.001 0-.019-1.072-.064-2.7z" class="F"/><path d="M452.044 388.666c-.036-1.525-2.212-12.775-2.212-12.775l-3.835-.033 6.876 25.64c.814-.047 1.63-.077 2.447-.084-1.02-3.426-3.248-11.556-3.276-12.748zm5.576-2.215c-.832-3.951-1.328-9.217-1.328-9.217l-3.851-.515s3.015 7.363 3.496 12.147c.363 3.619.165 9.724.004 12.547.895.003 1.79.03 2.684.08-.115-4.219-.405-12.191-1.005-15.042z" class="K"/><path d="m453.616 418.795 2.059.755-5.251-17.857a47.86 47.86 0 0 0-2.007.264l5.199 16.838Z" class="F"/><path d="M444.781 376.575l-2.436-.326 4.74 21.393 1.332 4.314 2.007-.264-1.238-4.21-4.405-20.907zm18.865 25.453c.003-6.371.097-15.547.527-17.39.668-2.861.636-3.591.636-3.591l-6.217-4c-.105.296 1.169 14.614 2.062 24.599a49.8 49.8 0 0 1 2.992.382z" class="K"/><path d="M463.646 402.028a51.557 51.557 0 0 0-2.991-.383l.836 9.494c-.028.156 1.087 9.775 1.087 9.775l1.249.221-.143-12.829c-.013-.088-.039-2.756-.038-6.278z" class="F"/><path d="M467.607 402.7c.745-1.381 3.25-14.141 3.544-14.537s-4.568-6.523-5.893-6.787l.449 13.997c.026 2.142-.077 4.718-.191 6.983.688.135 1.373.28 2.052.443.013-.034.026-.074.039-.099z" class="K"/><path d="M467.568 402.798a48.573 48.573 0 0 0-2.052-.443l-.265 5.516-.224 12.93c-.034.257.957.624.957.624s.848-16.731 1.584-18.627z" class="F"/><use xlink:href="#B" class="U"/><use xlink:href="#C" class="V"/><path d="M542.54 249.894h-1.69v50.723a26.015 26.015 0 0 1 1.69-.459v-50.264Z" class="W"/><path d="M542.54 300.157l-1.69.459v56.245l1.69-1.69v-55.014z" class="R"/><path d="m542.854 209.066-10.836 45.238 11.61-.774-12.385 2.128v1.161l12.385-1.161v3.87l-13.352 2.71-4.837 18.769 18.189-3.677-.067 2.729-18.122 3.076-.968 2.709 19.157.774-.774-77.552Z" class="D"/><path d="m567.631 287.715-24.003-2.217-.774-76.432 8.514 29.219-6.386-.194 6.773 2.128.536 1.734-6.148-.186 6.386 1.355 6.579 24.38-15.48-1.354v2.128l17.24 4.565 6.763 14.874Z" class="G"/><path d="M542.854 288.165v3.869h-19.543l19.543-3.869Z" class="D"/><path d="M564.041 288.552l-20.413-1.935v1.936l21.422 3.276-1.009-3.277zm6.723 29.793l-26.686-4.592-.191 1.926 27.882 6.058-1.005-3.392z" class="X"/><path d="m543.323 261.128-13.539 3.017-.865 3.36 14.481-3.36-.077-3.017Z" class="M"/><path d="M543.178 243.134v2.186l10.397 1.678-.225-1.203-10.172-2.661Z" class="E"/><path d="m543.145 237.791-7.5 1.623.332-1.344 7.168-1.962v1.683Z" class="M"/><path d="M543.468 269.691l.036 3.531 19.728 4.788-1.314-2.873-18.45-5.446zm-.29-38.215l6.726 1.783-.206-.704-6.689-2.965.169 1.886z" class="E"/><path d="m544.23 290.1 24.88 3.756 7.687 23.889-32.567-6.45V290.1Z" class="G"/><path d="M544.23 292.778v2.709l27.196 5.566-1.145-3.558-26.051-4.717Z" class="E"/><path d="M542.54 294.824l-19.729 1.63-2.468 8.554 22.197-4.392v-5.792zm0 9.098l-22.197 4.744-2.273 4.928 24.47-7.562v-2.11z" class="D"/><path d="M708.778 282.477a31.258 31.258 0 0 0-3.38.817v56.245l3.38-3.38v-53.682Z" class="U"/><path d="M705.398 232.573v50.723a30.685 30.685 0 0 1 3.38-.817v-49.905h-3.38v-.001Z" class="V"/><path d="M707.088 232.573h-1.69v50.723a25.843 25.843 0 0 1 1.69-.459v-50.264Z" class="W"/><path d="M707.088 282.835l-1.69.459v56.245l1.69-1.69v-55.014z" class="R"/><path d="m707.401 191.745-10.836 45.238 11.61-.774-12.384 2.128v1.161l12.384-1.161v3.87l-13.351 2.709-4.838 18.769 18.189-3.676-.066 2.729-18.123 3.076-.967 2.708 19.156.775-.774-77.552Z" class="D"/><path d="M708.176 250.955v-2.128l11.481 1.004v-14.466l-2.581-9.565-6.385-1.354 6.148.186-.537-1.734-6.772-2.129 6.385.194-8.514-29.218.775 76.431 11.481 1.061v-15.242l-11.481-3.04Z" class="G"/><path d="M707.401 270.843v3.87h-19.543l19.543-3.87Z" class="D"/><path d="M708.175 269.296v1.935l11.482 1.756v-2.603l-11.482-1.088zm.45 27.135l-.191 1.926 11.223 2.439v-2.466l-11.032-1.899z" class="X"/><path d="m707.871 243.808-13.539 3.016-.866 3.36 14.482-3.36-.077-3.016Z" class="M"/><path d="M707.725 225.813v2.185l10.397 1.678-.224-1.203-10.173-2.66Z" class="E"/><path d="m707.692 220.47-7.499 1.623.331-1.345 7.168-1.962v1.684Z" class="M"/><path d="M708.016 252.37l.036 3.531 11.605 2.817v-2.911l-11.641-3.437zm-.291-38.215l6.726 1.782-.205-.703-6.689-2.966.168 1.887z" class="E"/><path d="M708.778 272.778v21.196l10.879 2.154v-21.707l-10.879-1.643Z" class="G"/><path d="M708.778 275.457v2.709l10.879 2.226v-2.965l-10.879-1.97Z" class="E"/><g class="D"><path d="M707.088 277.503l-19.729 1.63-2.469 8.554 22.198-4.393v-5.791zm0 9.098l-22.198 4.743-2.272 4.929 24.47-7.562v-2.11z"/></g><path d="m46.114 492.379 9.033 5.01.62-1.97-13.864-9.13-.783-.695a19.592 19.592 0 0 0-.9 2.02l5.894 4.765Z" class="H"/><g class="I"><path d="m25.057 475.354 15.163 12.26c.262-.695.566-1.368.9-2.02l-15.07-13.393-.993 3.153Z"/><path d="M31.369 473.876l-4.451-4.433-.87 2.758 6.659 3.613 9.574 7.812.963-1.284-11.875-8.466z"/></g><path d="M45.516 483.962l-2.271-1.619-.963 1.284.366.298 13.512 10.246 1.104-2.181s-8.968-7.024-12.768-11.064l-.856.939 1.876 2.097z" class="H"/><path d="M34.686 461.279c-1.382-4.55-5.086 4.461-5.086 4.461l6.947 8.194 7.093 7.93.856-.939a20.613 20.613 0 0 1-.67-.744c-3.271-3.845-7.758-14.352-9.14-18.902zm14.012 3.433c-.083-3.883.307-7.874.903-9.996s.57-5.018.57-5.018l-6.024 3.083s1.918.099 2.424 6.971-.603 10.854-.603 10.854l-2.1-7.085-2.51-9.452-5.282 4.399s4.403 10.112 6.853 13.996c.95 1.508 2.585 3.716 4.338 5.985a26.555 26.555 0 0 1 3.882-2.489 22.143 22.143 0 0 1-.585-1.381c-.92-2.449-1.783-5.984-1.866-9.867z" class="N"/><path d="M54.7 487.713l2.204 2.722 2.189-1.909s-1.675-1.865-4.23-5.591l-3.713-6.975a26.555 26.555 0 0 0-3.882 2.489c3.48 4.51 7.433 9.264 7.433 9.264z" class="H"/><path d="M57.62 448.507l-4.136 1.007 4.173 15.606 2.17 7.878a34.816 34.816 0 0 1 1.72-.281l-3.927-24.21zm8.069.736l-2.495-.786 1.449 15.109-1.972 9.012 1.41-.126c.497-3.84 1.654-8.686 1.654-8.686l-.046-14.523z" class="N"/><g class="H"><path d="M62.012 475.587l-.465-2.869a35.01 35.01 0 0 0-1.72.281l3.925 14.252s2.505.067 2.56-.565-1.955-7.545-2.396-10.499c-.125-.84-.032-2.208.165-3.734a36.59 36.59 0 0 0-1.411.126l-.658 3.008zm-1.686 12.461l2.076-.862-3.612-13.974-2.075.524 3.61 14.312z"/></g><path d="M50.79 450.254l5.925 23.482 2.075-.524-6.117-23.664-1.883.706z" class="N"/><path d="M76.583 473.488a44.426 44.426 0 0 0-2.284-.468l-.332 1.279c-.023.024-.1-.509-.2-1.371l-2.106-.292.422 4.895c.035.805 1.236 11.433 1.108 11.609s1.998.99 1.998.99l1.046-14.323.348-2.319z" class="H"/><path d="M72.862 461.536c.196-1.31.008-11.258.008-11.258l-3.276-.599 2.067 22.957a42.96 42.96 0 0 1 2.106.292c-.362-3.082-1.058-10.369-.905-11.392zm5.099-1.065c-.124-3.504.236-8.082.236-8.082l-3.218-1.013s1.484 6.747 1.183 10.911c-.228 3.15-1.305 8.343-1.863 10.734.765.136 1.527.292 2.284.468.53-3.627 1.467-10.49 1.378-13.018z" class="N"/><path d="m69.724 487.543 1.649.952-1.836-16.057a41.294 41.294 0 0 0-1.756-.073l1.943 15.178Z" class="H"/><g class="N"><path d="M68.447 450.112l-2.036-.641.872 19.006.498 3.889 1.756.073-.433-3.785-.657-18.542zm12.352 24.58c.95-5.449 2.396-13.286 3.038-14.798.997-2.348 1.079-2.978 1.079-2.978l-4.723-4.347c-.134.238-1.174 12.676-1.895 21.35a44.55 44.55 0 0 1 2.5.773z"/></g><path d="M80.799 474.692a43.85 43.85 0 0 0-2.502-.772l-.697 8.246c-.047.129-.525 8.524-.525 8.524l1.036.375 1.786-10.996c.002-.078.376-2.364.902-5.377z" class="H"/><path d="M84.087 475.857c.842-1.071 4.884-11.613 5.194-11.909s-2.937-6.26-4.031-6.683l-1.698 12.04c-.297 1.836-.768 4.025-1.203 5.945a41.44 41.44 0 0 1 1.69.685c.016-.027.033-.06.048-.078z" class="N"/><path d="M84.039 475.935a42.929 42.929 0 0 0-1.69-.685l-1.047 4.679-2.115 11.027c-.068.215.726.676.726.676s3.214-14.185 4.126-15.697z" class="H"/><path d="m546 200.78 40.449 17.117-24.343 10.871L546 200.78Z" class="P"/><path d="M118.799 460.402l2.964 5.628s1.837-2.463 1.248-3.298-4.212-2.33-4.212-2.33zm38.329 11.269l-3.345 5.41s3.054.334 3.475-.599-.13-4.811-.13-4.811zm-14.202-3.017l-5.352-3.342s1.099 3.831 2.291 4.958 5.703.032 3.061-1.616zm79.911-30.95l4.124-4.962s.812 1.767-.849 3.963c-1.571 2.076-2.423 1.732-3.275.999zm-3.981 16.114l-3.113 4.889c-.553.474 3.247.231 3.821-1.292s-.541-1.935-.708-3.597z" class="G"/><g class="Y"><path d="m143.448 414.001-1.001.008.239 27.447 1.001-.008-.239-27.447Z"/><path d="M153.276 484.466l.952-.299-16.735-67.955-.971.239 14.842 60.269-20.775-54.257-.974.225c.163.776 21.256 55.536 23.661 61.778z"/><path d="M135.047 424.611l-.994.107 1.46 13.514.994-.107-1.46-13.514zm-12.087 3.235l-.817.576 21.118 30.019.818-.575-21.119-30.02zm26.134 45.568l.622-.784c-1.999-1.589-32.649-34.031-33.465-35.422l-.414.243-.335-.449-.204.401c-.017 1.093 33.456 35.74 33.796 36.011zm-35.771-30.941l-.756.655 36.538 42.131.755-.655-36.537-42.131z"/><path d="M113.871 462.027l-.422.908 26.912 12.494.421-.908-26.911-12.494zm46.593 22.904l.998.051 1.067-20.871-7.59-53.419-.99.142 7.586 53.323-1.071 20.774z"/><path d="M161.306 465.993l.976.218 12.682-58.713-.421.27-.106.487.105-.489-.496-.001c-.099 1.28-8.377 38.648-12.74 58.228z"/><path d="m161.758 462.156 1-.037-1.007-27.269-1.568-26.709-.999.058 1.568 26.699 1.006 27.258Z"/><path d="M169.676 407.083l-8.988 26.21.945.324 8.989-26.21-.946-.324zm-22.751 5.81l-.867.5 10.987 19.064.866-.499-10.986-19.065zm2.057 10.846l-1.217 37.873 1 .032 1.216-37.873-.999-.032zm6.419 33.653l-2.915 24.874.993.116 2.915-24.874-.993-.116zm22.291-49.222l-1.088 78.826 1 .014 1.088-78.826-1-.014zm-7.89 78.061l1-.017c-.479-27.475-1.137-41.683-1.954-42.23l-.501-.056.366.931c-.257.099-.489-.058-.54-.17.688 1.474 1.351 25.651 1.629 41.542zm20.831-65.529l-7.713 12.918.859.513 7.713-12.918-.859-.513z"/><path d="M174.646 434.208l-5.235 41.754.992.124 5.235-41.753-.992-.125zm11.353 58.023l3.033-32.604-.996-.093-2.264 24.326-4.34-29.4 5.405-46.219-.993-.117-5.411 46.416 5.566 37.691zm.823-56.751l-.978.208 8.276 38.997.978-.207-8.276-38.998z"/><path d="m193.258 492.333 11.067-31.022.007-.051 6.496-47.098-.991-.136-6.488 47.047-8.764 24.565 3.7-76.093-.999-.048-4.028 82.836Z"/><path d="M217.671 418.894l-11.737 25.521.909.418 11.736-25.521-.908-.418zm-14.247-5.924l-8.451 43.956.982.189 8.451-43.956-.982-.189zm-3.208 76.915l17.537-36.892-.994-.115.497.057-.483-.126c-.329 1.018-12.713 26.796-17.457 36.642l.9.434zm20.977-66.714l-23.514 65.469.941.338 23.514-65.469-.941-.338z"/><path d="m214.475 473.801-12.133 9.502.617.788 12.133-9.503-.617-.787Z"/></g><path d="M126.613 436.306l-5.352-3.342s1.099 3.831 2.291 4.958 5.702.032 3.061-1.616zm51.124-12.196l-4.359-2.722s.894 3.121 1.866 4.038 4.644.026 2.493-1.316zm-8.681 31.704l-2.9-4.243s-.432 3.217.089 4.447 4.245 1.888 2.811-.204zm20.958-32.243l4.124-4.962s.812 1.767-.849 3.963c-1.571 2.077-2.423 1.732-3.275.999zm10.047 16.647l4.124-4.962c-.779-.053-1.875 1.584-.849 3.963 1.032 2.391-2.422 1.732-3.275.999zm-9.135 1.213l-1.275 7.275s3.736-.948 3.9-3.08-2.625-4.195-2.625-4.195zm-39.635-11.966l-1.692 7.399c-.474.827 4.107-1.142 4.146-3.272s-1.518-2.152-2.454-4.127zm.625 15.798l-2.957 6.992c-.61.731 4.244-.408 4.653-2.5s-1.12-2.384-1.696-4.492zm-33.985 5.855l4.402 2.948c.636.193-2.633 1.385-3.671.322s-.259-1.819-.731-3.27zm45.093-19.546l-.928 5.216c-.302.591 2.824-.936 2.778-2.423s-1.131-1.448-1.85-2.793zm2.986 33.327l2.484 4.679c.469.471-2.975-.024-3.387-1.452s.632-1.725.903-3.227zm-33.399-46.513l4.402 2.948c.636.193-2.633 1.385-3.671.322s-.26-1.82-.731-3.27zm31.823-7.239l.698 5.252c.275.604-2.78-1.061-2.669-2.542s1.194-1.397 1.971-2.71zm19.765 43.108l-2.258 5.339c-.466.558 3.241-.312 3.553-1.909s-.854-1.819-1.295-3.43zm24.135-9.254l-2.238 3.514c-.397.341 2.334.166 2.746-.928s-.388-1.391-.508-2.586zm4.147-26.021l-2.319 3.642c-.412.353 2.419.172 2.846-.963s-.402-1.442-.527-2.679zm-41.798 58.707s2.31-3.926 2.201-6.16 2.911 2.544 1.423 4.723-3.016 1.508-3.624 1.437zm24.463-11.566s2.941-3.478 3.212-5.698 2.438 3 .603 4.896-3.228.975-3.815.802z" class="G"/><path d="M227.479 426.696l-21.39 38.589.874.484 21.391-38.589-.875-.484zm8.072 5.442l-28.521 46.79.854.52 28.52-46.789-.853-.521zm-120.748 39.616l-.381.925 26.089 10.738.381-.925-26.089-10.738z" class="Y"/><g class="Z"><path d="m547.678 365.264-.622 1.527-6.86-4.574-15.643-14.916.995-2.443 11.695 12.24 10.435 8.166Z"/><path d="M526.419 342.721l-.871 2.138 5.062 3.307 7.38 7.1 10.083 9.031 1.02-1.663s-7.57-6.997-9.922-10.269-5.237-11.924-6.041-15.633-4.337 3.218-4.337 3.218l4.993 6.971 6.482 8.561-10.598-8.945-3.251-3.816zm12.49-11.291l-4.49 3.156s2.844 8.331 4.54 11.581c1.966 3.768 8.372 12.897 8.372 12.897l1.575 2.309 1.866-1.376s-1.211-1.593-3.001-4.723c0 0-2.199-4.551-2.875-6.927-.572-2.009-1.028-4.878-.842-7.972s.757-6.244 1.37-7.894.78-3.955.78-3.955l-4.993 2.061s1.519.203 1.475 5.704-1.186 8.596-1.186 8.596l-1.209-5.773-1.382-7.684zm9.942-2.834l3.356-.532 1.731 21.829 2.875-9.391-.169-12.115 1.934.788-.909 11.557s-2.414 7.384-2.255 9.762 1.307 8.009 1.223 8.509-2.073.283-2.073.283l-3.408-18.003-2.305-12.687zm-.648-.026l-1.544.439 5.126 30.688 1.707-.551-5.289-30.576zm13.453 1.206l.167 22.32c-.024.643.239 9.176.126 9.308s1.525.918 1.525.918l1.765-11.327s2.242-9.293 2.372-12.088.714-6.415.714-6.415l-2.494-1.016s.742 5.464.231 8.757-2.436 9.333-2.528 9.414-.29-9.197-.048-10.226.74-8.955.74-8.955l-2.57-.69zm-2.518-.373l1.578.643-.685 14.793.513 15.933-1.25-.865-.7-15.327.544-15.177zm10.761 3.363c-.187.277-3.944 23.276-3.989 23.376s-.972 6.747-.972 6.747l.8.366 2.137-8.631c.019-.173 3.501-13.99 4.448-15.793s1.052-2.299 1.052-2.299l-3.476-3.766zm3.719 4.064l-2.135 9.468c-.79 3.203-2.38 7.746-2.481 8.306l-2.4 8.635c-.068.166.533.585.533.585s3.608-11.482 4.348-12.279 4.642-8.921 4.907-9.136-1.93-5.171-2.772-5.579z"/></g><g class="Y"><path d="M636.896 362.598l1.871 4.6s1.617-1.772 1.223-2.467-3.094-2.133-3.094-2.133zm28.916 11.699l-3.015 3.947s2.348.494 2.746-.198.269-3.749.269-3.749zm-10.803-3.435l-3.902-3.007s.56 3.061 1.4 4.028 4.428.462 2.502-1.021zm64.465-17.913c.161.169.326.313.505.41v-.909l-.505.499zm-4.33 12.216l-2.794 3.56c-.466.326 2.505.429 3.068-.711s-.272-1.546-.274-2.849zm-56.324-36.844l-1.92 21.344.778.07 1.92-21.344-.778-.07z"/><path d="M661.836 383.942l.763-.159-7.786-54.084-.773.111 6.905 47.967-11.976-43.751-.774.1c.067.615 12.252 44.782 13.641 49.816z"/><path d="M652.291 336.078l-.781.007.097 10.613.781-.007-.097-10.613zm-9.649 1.54l-.679.383 14.105 24.946.679-.384-14.105-24.945zm16.794 37.416l.544-.561c-1.431-1.388-22.755-28.948-23.282-30.091l-.34.157-.226-.375-.189.296c-.098.847 23.25 30.337 23.493 30.574zm-25.457-26.797l-.638.451 25.153 35.538.638-.451-25.153-35.538z"/><path d="M632.937 363.486l-.397.672 19.951 11.773.397-.672-19.951-11.773zm34.448 21.37l.773.115 2.431-16.133-1.797-42.089-.78.034 1.801 42.014-2.428 16.059z"/><path d="M669.494 370.205l.742.244 14.361-44.645-.348.177-.12.371.119-.372-.385-.039c-.175.988-9.476 29.386-14.369 44.264z"/><path d="m670.139 367.259.78.048 1.312-21.265.832-20.873-.781-.031-.831 20.865-1.312 21.256Z"/><path d="M680.542 325.113l-8.998 19.674.71.324 8.998-19.674-.71-.324zm-18.15 2.731l-.712.322 7.073 15.656.712-.322-7.073-15.656zm.755 8.567l-3.852 29.334.775.101 3.852-29.333-.775-.102zm2.41 26.69l-4.175 19.101.763.167 4.175-19.101-.763-.167zm21.119-36.551l-6.9 61.163.776.088 6.9-61.163-.776-.088zm-12.135 60.033l.778.064c1.737-21.385 2.317-32.474 1.724-32.962l-.385-.082.213.752c-.207.057-.375-.082-.406-.174.422 1.197-.92 20.033-1.924 32.402zm21.244-49.302l-6.986 9.445.628.465 6.985-9.445-.627-.465z"/><path d="M682.283 346.504l-7.271 32.041.762.173 7.271-32.041-.762-.173zm4.382 45.984l4.861-25.1-.767-.149-3.627 18.728-1.115-23.178 7.748-35.496-.762-.166-7.769 35.648 1.431 29.713zm5.008-44.007l-.776.086 3.437 30.938.775-.087-3.436-30.937z"/><path d="m692.298 393.124 10.98-23.253.01-.039 8.663-36.096-.759-.182-8.654 36.056-8.695 18.414 8.717-58.838-.773-.115-9.489 64.053Z"/><path d="M716.934 337.899l-11.078 18.931.674.394 11.078-18.93-.674-.395zm-10.665-5.682l-9.939 33.506.747.221 9.94-33.505-.748-.222zm-8.377 59.54l16.458-27.318-.763-.165.382.083-.366-.135c-.333.765-11.935 19.844-16.377 27.13l.666.405zm21.438-50.216l-23.298 49.065.705.335 23.242-48.946v-.146l-.649-.308zm.649.308v.146l.057-.119-.057-.027z"/><path d="M710.198 380.325l-10.157 6.452.418.66 10.157-6.453-.418-.659zm-65.381-35.849l-3.902-3.007s.56 3.061 1.4 4.028 4.428.462 2.502-1.021zm40.659-5.551l-3.178-2.45s.455 2.494 1.14 3.28 3.607.377 2.038-.83zm-9.179 23.967l-1.927-3.519s-.583 2.467-.272 3.462 3.153 1.792 2.199.057zm18.759-23.444l3.585-3.539s.495 1.435-.964 3.014c-1.379 1.494-2.015 1.161-2.621.525zm6.529 13.706l3.585-3.539s.495 1.435-.964 3.014c-1.379 1.493-2.015 1.16-2.621.525zm-7.191.241l-1.549 5.555s2.976-.449 3.267-2.094-1.718-3.461-1.718-3.461zm-29.877-12.34l-1.883 5.619c-.432.606 3.279-.572 3.472-2.224s-1.014-1.788-1.589-3.395zm-.727 12.323l-2.834 5.205c-.53.521 3.329.009 3.807-1.585s-.688-1.938-.973-3.62zm-26.855 1.94l3.194 2.629c.479.198-2.152.874-2.877-.032s-.063-1.434-.317-2.597zm36.537-11.725l-1.121 3.981c-.28.436 2.266-.511 2.344-1.669s-.768-1.212-1.223-2.312zm-.239 26.124l1.571 3.826c.328.402-2.31-.247-2.52-1.388s.623-1.292.949-2.438zm-22.38-38.705l3.194 2.629c.479.198-2.152.874-2.877-.032s-.062-1.433-.317-2.597zm25.282-3.18l.139 4.134c.168.491-2.079-1.038-1.879-2.18s1.035-.994 1.74-1.954zm12.048 35.011l-2.164 3.975c-.405.398 2.542.006 2.907-1.211s-.525-1.479-.743-2.764zm19.463-5.337l-2.009 2.559c-.335.234 1.801.308 2.205-.51s-.195-1.112-.196-2.049zm5.219-19.9l-2.081 2.652c-.347.242 1.866.319 2.286-.53s-.202-1.151-.205-2.122zm-36.983 42.405s2.096-2.873 2.183-4.617 2.067 2.2.743 3.779-2.459.94-2.926.838zm19.895-7.108s2.552-2.477 2.933-4.181 1.664 2.518.093 3.85-2.583.511-3.026.331zm8.574.194l.643.444 14.985-21.687v-1.374l-15.628 22.617z"/><path d="M704.011 383.778l.623.471 15.345-20.356v-1.297l-15.968 21.182zm-71.089-12.648l-.367.69 19.447 10.346.366-.689-19.446-10.347z"/></g><g class="R"><path d="m483.118 416.272 4.763-2.005v-29.329l-2.381-5.515v-58.407h-1.379l-1.003 95.256Z"/><path d="M483.807 377.355c-24.113-30.896-31.677-74.019-31.388-75.464l.738.134c-.189 1.945 7.501 44.451 31.241 74.869l-.591.461zM487 386.38c-.005-.332-.239-33.491 22.142-62.835l.596.455c-22.217 29.13-21.992 62.039-21.987 62.368l-.751.012zm-2.623-55.549c-1.485-14.23-6.483-24.31-10.312-28.618-2.379-2.676-6.201-5.605-9.898-8.438-4.13-3.165-8.4-6.438-10.674-9.379-4.272-5.529-6.259-19.152-6.341-19.729l.742-.105c.021.139 2.041 14.004 6.192 19.376 2.214 2.865 6.444 6.107 10.536 9.242 3.725 2.855 7.577 5.807 10.003 8.536 3.903 4.392 8.994 14.631 10.498 29.038l-.746.077z"/><path d="M478.565 315.472c-7.741 0-13.029-6.938-13.087-7.016l.6-.449c.062.082 6.283 8.234 14.964 6.463l.15.734c-.902.185-1.779.268-2.627.268zm6.558 7.814l-.746-.072 8.395-104.252.748.059-8.397 104.265z"/><path d="M488.689 272.535c-.138-.13-3.423-3.289-7.909-12.52-4.49-9.238-5.756-34.905-5.808-35.993l.75-.035c.012.265 1.31 26.601 5.731 35.7 4.415 9.084 7.718 12.271 7.751 12.303l-.515.545Z"/><path d="M483.474 263.83l-.711-.236c1.219-3.654-.007-43.189-.02-43.588l.75-.023c.051 1.634 1.241 40.068-.019 43.847zm3.433 31.391c-.207-.154-5.144-3.887-11.87-13.852-6.748-9.996-9.519-50.843-9.633-52.577l.748-.05c.028.423 2.871 42.377 9.506 52.207 6.646 9.844 11.647 13.633 11.697 13.67l-.448.602z"/><path d="M472.601 275.777c-17.005-11.004-18.917-33.965-18.935-34.196l.748-.057c.017.227 1.906 22.824 18.595 33.624l-.408.629Z"/><path d="M467.234 271.232c-14.617-5.274-17.051-17.955-17.073-18.082l.738-.133c.022.123 2.394 12.388 16.589 17.51l-.254.705zm25.245 86.005l-.047-.748c.16-.011 16.197-1.255 28.72-21.88l.641.389c-12.739 20.981-29.15 22.229-29.314 22.239zm-20.077 1.231l-.746-.084c2.955-26.353-2.844-37.079-2.902-37.185l.654-.367c.245.437 5.981 10.999 2.994 37.636z"/><path d="M473.208 343.072l-.66-.357c4.581-8.46 4.156-20.506 3.413-21.4l.401-.627c1.352.735 1.417 13.938-3.154 22.384zm3.051-38.206c-.442-12.688-7.418-23.144-7.488-23.248l.621-.42c.071.105 7.167 10.74 7.617 23.643l-.75.025zm8.759 35.118l-.535-.525c.288-.294 28.872-29.781 30.6-63.584l.748.039c-1.742 34.089-30.523 63.774-30.813 64.07zm1.42-32.072l-.721-.209c.023-.08.073-.323.153-.708 2.125-10.216 7.171-28.453 17.078-35.812 12.021-8.93 16.698-32.64 12.702-47.078l.723-.2c4.06 14.667-.725 38.777-12.978 47.879-7.195 5.346-13.158 17.904-16.791 35.364l-.166.764zm2.859-43.825l-.001-.75c.177-.001 17.638-.555 17.638-41.337h.75c0 41.609-17.636 42.087-18.387 42.087z"/><path d="M498.32 258.226c-6.009-12.266 1.699-24.77 1.777-24.895l.635.399c-.076.121-7.561 12.281-1.738 24.165l-.674.331zm11.421 5.705c-.214-.297-5.183-7.422-.653-19.75l.703.259c-4.383 11.931.51 18.985.56 19.054l-.61.437zm-18.624 33.903c-1.508 0-2.456-.305-2.531-.33l.236-.712c.033.012 3.462 1.097 7.745-1.075 5.232-2.65 9.443-8.77 12.516-18.185l.713.232c-3.142 9.628-7.487 15.897-12.915 18.635-2.263 1.141-4.283 1.435-5.764 1.435zm-4.61 17.681c-.644 0-1.028-.04-1.05-.042l.085-.746c.03.006 3.042.326 6.517-.856 4.635-1.579 7.859-4.95 9.583-10.021l.711.242c-3.571 10.498-12.736 11.423-15.846 11.423zm17.377-.272c-.576 0-.92-.021-.941-.022l.051-.748c.142.007 13.824.828 15.981-8.582l.73.168c-1.954 8.521-12.575 9.184-15.821 9.184zm9.59-58.07l-.052-.748c.428-.03 10.478-.848 11.438-10.666l.746.073c-1.022 10.455-12.021 11.333-12.132 11.341zm-.696 40.354c-.996 0-1.647-.203-1.699-.221l.229-.714c.021.008 2.269.694 4.803-.683 2.682-1.458 4.701-4.599 6.002-9.336l.723.199c-1.359 4.952-3.508 8.251-6.385 9.806a7.7 7.7 0 0 1-3.673.949zm-52.716 33.637c-11.75-1.519-15.373-14.183-15.408-14.311l.723-.199c.034.123 3.531 12.312 14.781 13.766l-.096.744zm-4.042-12.822l-.044-.748a4.62 4.62 0 0 0 2.973-1.629c1.169-1.41 1.586-3.55 1.237-6.361l.744-.092c.376 3.033-.101 5.369-1.415 6.945-1.462 1.751-3.413 1.881-3.495 1.885zm4.045 31.699a8.03 8.03 0 0 1-1.166-.083c-2.77-.398-5.204-2.225-7.235-5.429l.633-.402c1.907 3.009 4.163 4.721 6.703 5.088 3.933.564 7.241-2.292 7.274-2.321l.494.564c-.131.115-2.991 2.583-6.703 2.583zm50.788-2.711c-3.062-6.796 2.069-14.188 2.289-14.499l.613.433c-.052.073-5.103 7.356-2.219 13.758l-.683.308zm-58.911-62.637c-5.056 0-8.205-3.408-9.235-5.424-.324-.633-.624-1.474-.213-1.886l.531.531a.12.12 0 0 0 .026-.038c-.066.193.229 1.227 1.321 2.519 1.097 1.3 4.205 4.231 9.356 3.401l.119.74c-.66.108-1.296.157-1.905.157zm59.319-13.441c-3.256 0-5.503-1.785-5.61-1.872l.472-.583c.028.022 2.795 2.208 6.48 1.594 3.119-.52 5.996-2.834 8.552-6.88l.635.4c-2.679 4.24-5.731 6.67-9.075 7.221-.504.083-.989.12-1.454.12z"/></g><path d="M719.922 371.103v132.894h-720s98.888-29.69 127.403-24.287 195.446-29.719 212.673-36.743 168.713-35.122 197.228-35.662 152.673-38.253 182.696-36.202z" fill="#6a682d"/><path d="M605.334 177.377l-16.282 8.85-3.948 16.022 20.23-10.183v-14.689zm0 18.809l-21.594 11.596-.797 3.809 22.391-13.435v-1.97z" class="L"/><path d="m605.334 199.814-23.218 14.554-3.306 13.408 26.524-13.095v-14.867Z" class="a"/><path d="m605.334 214.19-.445 11.016-28.161 11.017 2.082-8.447 26.524-13.586Z" class="S"/><path d="M604.761 225.192l-.139 13.246-31.193 11.168 3.299-13.383 28.033-11.031zm0 18.485l-32.759 11.72-12.424 50.483 44.688-18.808.495-43.395z" class="a"/><path d="m604.266 287.071-.041 5.44-46.025 19.246 1.378-5.878 44.688-18.808Z" fill="#103126"/><path d="M604.225 292.511v22.336l-47.427 2.35 1.375-5.49 46.052-19.196Z" class="S"/><path d="M604.225 314.847v9.64l-53.224 16.362 5.968-23.785 47.256-2.217Z" class="T"/><path d="m603.964 328.158-54.56 18.854-3.603 15.244 58.055-19.363.108-14.735Z" class="L"/><path d="M603.05 397.761h3.762l-1.076-272.51h-.805l-1.881 272.51Z" fill="#87554e"/><path d="M605.334 290.727l46.2 16.97 5.658 20.461-51.765-22.699-.093-14.732zm0-121.679v4.03l-15.047 7.545 1.867-6.943 13.18-4.632z" class="L"/><path d="m605.334 146.449-8.124 6.752-3.913 15.847 12.037-2.777v-19.822Z" class="a"/><path d="m605.334 140.477-6.133 4.657-1.39 5.631 7.523-7.064v-3.224Z" class="L"/><path d="M605.322 308.246v15.971l58.146 32.555-5.852-24.263-52.294-24.263Z" class="T"/><path d="m605.334 140.477 6.133 4.657 1.39 5.631-7.523-7.064v-3.224Z" fill="#020d0c"/><path d="M599.875 142.404l5.459-4.077v-17.913l-5.459 21.99zm10.962 0l-5.458-4.077-.045-17.913 5.503 21.99zm-5.503 12.127l-1.261 90.28 35.91 21.869-26.162-112.041-8.487-8.19v8.082z" class="L"/><path d="M604.266 232.312v5.99l34.179 20.032-3.291-13.368-30.888-12.654Z" class="T"/><path d="M604.266 210.717v1.63l25.694 12.075-1.222-4.956-24.472-8.749zm18.015-21.518l1.008 3.836-17.955-7.866v-1.254l16.947 5.284z" class="S"/><g fill="#87554e"><path d="m605.503 167.24-.325.946 12.819 4.407.325-.946-12.819-4.407Z"/><path d="M616.95 167.192l-7.951 1.338.166.986 7.951-1.338-.166-.986zm-11.432-22.036l-.338.368 6.628 6.09.339-.368-6.629-6.09zm-.335-5.733l-3.045 2.06.28.414 3.046-2.06-.281-.414zm-.634 35.807l-13.31 6.896.46.888 13.31-6.897-.46-.887z"/><path d="M600.318 177.504h-3.493v1h3.493v-1Z"/></g><path d="M605.334 245.823v41.249l45.768 17.056-8.827-34.084-36.941-24.221zm0 76.971v36.1l66.747 28.034-8.613-30.156-58.134-33.978z" class="L"/><path d="M603.428 343.034v20.84l-61.237 16.604 3.61-18.222 58.055-19.363" class="T"/><path d="M605.334 362.87v9.805l68.92 24.224-2.173-7.254-66.747-26.775Z" class="L"/><path d="M603.856 365.987v9.805l-64.621 21.968 2.956-10.191 61.665-21.582Z" class="S"/><path opacity=".76" d="M784-27S557.702 29.908 516.96 1.13 559.532 118.517 784-27z" class="b"/><g><g class="b"><path opacity=".86" d="M-23.601 61S251.893 134.953 423 91.827c0 0-49.909 42.159-244.26 42.159 0 0-159.686 12.841-190.327-13.497C-33.972 101.247-23.6 61-23.6 61Z"/><path opacity=".76" d="M317.484 63.093S40.17 105.508-6.283 91.578s40.787 62.81 323.767-28.483z"/></g><animateTransform attributeName="transform" attributeType="XML" type="scale" values="1;1.2;1" dur="15s" repeatCount="indefinite"/></g><g><g class="b"><path opacity=".78" d="M707.475 49.199C528.179 50.178 349.84 21.491 175.248-20H3v73.783c55.65-1.607 112.661 9.666 168.866 18.048 27.379 4.083 54.566 7.48 81.313 8.368 98.591 3.566 202.411-3.188 301.002 5.051-19.272-4.254-39.103-13.5-61.9-19.051-1.66-.403 6.005.887 4.365.384-4.678-.786 5.562 1.083 5.562 1.083 62.949 10.569 110.463 14.363 175.377 25.533 15.284 2.558 27.675 11.647 42.721 13.657v-58.34c-4.275.421-8.553.683-12.831.683Z"/><path opacity=".76" d="M790.691 117.54S131.21 38.994 19.237-30.357C-92.753-99.733 121.152 165.618 790.69 117.54Z"/></g><animateTransform attributeName="transform" attributeType="XML" type="scale" values="1;1.2;1" dur="6s" repeatCount="indefinite"/></g><g fill="#c4a856"><path d="M719.849 435.707l-38.879 4.36s-81.417 7.05-98.027 10.992-130.277 14.608-130.277 14.608L653 437.51c17.326-1.681 66.583-7.811 66.583-7.811l.266 6.008zm.165-29.271l-44.235 5.667s-47.202 9.018-65.052 8.333-83.727 11-83.727 11 38.238-8.667 47.797-9.667l43.512-4.667c8.9-.666 101.705-10.666 101.705-10.666z"/></g><g fill="#36451e"><path d="M718.934 462.853L505.333 481.52l-105.917 10L292 500.835l108.415-1.982 174.863-6.667 143.656-5.666v-23.667zM149.05 479.594l3.241-.335 10.107-1.043L205 479.594l131.786-11.538L207 483.224l-57.95-3.63zm189.008-35.922l111.609-9.193-96.372 4.706-15.237 4.487z"/></g><path d="m546.902 406.513 26.121-5.257 75.436-7.859-101.557 13.116Z" fill="#c4a856"/><g opacity=".74"><path opacity=".74" d="m.596 424.13-.049-2.102 45.25-3.863-45.2 5.965Z" fill="#646e2d"/></g><g opacity=".63"><path opacity=".63" d="m1.041 408.754-.25-2.787 166.477-18.673-166.227 21.46Z" fill="#646e2d"/></g><g class="Z"><path d="m637.719 489.61-1.704 2.558-10.828-10.909-23.02-33.069 2.727-4.092 16.805 26.711 16.02 18.801Z"/><path d="M607.28 440.518l-2.386 3.58 8.014 7.926 10.836 15.716 15.054 20.25 2.483-2.658s-11.221-15.599-14.299-22.451-5.127-23.729-5.213-30.804-9.12 4.264-9.12 4.264l6.525 14.593 8.653 18.051-16.028-20.285-4.519-8.182zm27.018-15.973l-9.376 4.093s2.094 16.276 3.982 22.843c2.189 7.614 10.49 26.675 10.49 26.675l2.017 4.804 3.921-1.819s-1.62-3.36-3.724-9.745c0 0-2.322-9.131-2.673-13.723-.297-3.883-.062-9.292 1.43-14.875s3.708-11.124 5.441-13.909 2.897-6.933 2.897-6.933l-9.887 1.905s2.699.937.57 10.967-5.367 15.259-5.367 15.259l-.059-10.996.338-14.546zm19.215-1.475l6.328.278-4.965 40.518 8.748-16.083 4.201-22.191 3.239 2.159-5.963 20.771s-7.158 12.588-7.754 16.992-.594 15.116-.935 15.997-3.893-.255-3.893-.255l.477-34.152.517-24.034zm-1.173-.29l-2.983.228-2.064 57.963 3.324-.37 1.723-57.821zm24.124 7.213l-8.005 40.831c-.284 1.165-2.98 16.849-3.236 17.048s2.444 2.244 2.444 2.244l7.441-20.032s7.555-16.14 8.833-21.198 3.692-11.451 3.692-11.451l-4.177-2.784s-.68 10.257-2.839 16.082-7.924 16.14-8.123 16.254 2.895-16.906 3.719-18.696 4.685-16.083 4.685-16.083l-4.434-2.215zm-4.461-1.619l2.642 1.761-6.757 26.767-4.996 29.294-1.961-2.045 4.428-28.258 6.644-27.519zm18.405 10.149c-.445.436-15.87 41.048-15.991 41.213s-4.288 11.962-4.288 11.962l1.324.966 7.117-14.97c.098-.308 11.605-24.251 14.004-27.192s2.777-3.807 2.777-3.807l-4.943-8.172zm5.278 8.809l-7.425 16.499c-2.635 5.556-7.232 13.262-7.625 14.247l-7.6 14.879c-.186.278.756 1.267.756 1.267s10.865-19.629 12.513-20.809 11.8-14.567 12.365-14.86-1.596-10.165-2.984-11.223z"/></g><path d="m616.832 487.855 15.059 3.073v-3.073l-23.757-6.761-1.422-.637a29.026 29.026 0 0 0-.375 3.27l10.495 4.128Z" class="C"/><g class="I"><path d="m579.338 473.103 27 10.623c.061-1.104.192-2.194.375-3.27l-27.375-12.271v4.918Z"/><path d="m587.635 468.185-8.298-4.303v4.303l11.064 2.151 17.08 6.809a25.26 25.26 0 0 1 .793-2.252l-20.639-6.708Z"/></g><path d="m612.222 476.176-3.948-1.283a25.26 25.26 0 0 0-.793 2.252l.653.26 23.757 8.503.592-3.589s-15.867-5.961-23.066-9.996a37.723 37.723 0 0 0-.795 1.715l3.6 2.138Z" class="C"/><path d="M586.714 448.823c-3.995-5.839-5.225 8.605-5.225 8.605l13.523 8.525 13.611 8.085c.251-.581.516-1.153.795-1.715a29.37 29.37 0 0 1-1.283-.757c-6.362-3.995-17.426-16.903-21.421-22.743zm21.42-1.39c-1.854-5.474-3.083-11.313-3.186-14.591s-1.434-7.376-1.434-7.376l-7.171 7.069s2.766-.717 6.556 8.81 3.995 15.674 3.995 15.674l-6.147-9.118-7.786-12.293-5.532 8.605s10.768 12.383 15.981 16.801c2.024 1.715 5.33 4.118 8.832 6.556a39.43 39.43 0 0 1 4.397-5.267 32.327 32.327 0 0 1-1.447-1.698c-2.4-3.067-5.204-7.698-7.058-13.172z" class="I"/><path d="m626.934 477.395 4.343 2.879 2.254-3.688s-3.211-1.898-8.503-6.044c0 0-5.131-4.631-8.387-8.239a39.494 39.494 0 0 0-4.397 5.267c6.957 4.843 14.69 9.825 14.69 9.825Z" class="C"/><path d="M613.554 420.446l-5.42 3.278 12.898 20.284 6.601 10.211 2.315-1.167-16.394-32.606zm11.781-2.561h-3.893l8.81 20.796 1.229 13.671a56.501 56.501 0 0 1 1.947-.809c-1.012-5.671-1.537-13.067-1.537-13.067l-6.556-20.591z" class="I"/><g class="C"><path d="M631.891 456.916l-1.943-3.864-2.315 1.167 11.941 18.473s3.586-1.024 3.381-1.946-6.146-9.835-8.093-13.83c-.553-1.136-1.032-3.119-1.434-5.373a56.5 56.5 0 0 0-1.947.809l.41 4.564zm3.176 18.44l2.561-2.151-11.373-18.219a49.329 49.329 0 0 0-2.71 1.672l11.522 18.698z"/></g><path d="m604.641 425.978 18.904 30.68a49.71 49.71 0 0 1 2.71-1.672l-19.258-30.852-2.356 1.844Z" class="I"/><path d="M651.633 447.426a66.434 66.434 0 0 0-3.451.356l.1 1.963c-.022.045-.367-.678-.896-1.856a65.236 65.236 0 0 0-3.119.527l2.787 6.759c.41 1.127 6.864 15.674 6.761 15.981s3.278.512 3.278.512l-4.917-20.796-.543-3.446z" class="C"/><path d="M641.009 432.125c-.307-1.947-5.02-15.981-5.02-15.981l-4.917.615 13.195 31.658a65.236 65.236 0 0 1 3.119-.527c-1.892-4.213-6.137-14.244-6.377-15.765zm6.761-3.791c-1.741-4.917-3.278-11.576-3.278-11.576h-5.02s5.122 8.913 6.556 14.957c1.085 4.572 1.876 12.424 2.153 16.067a65.25 65.25 0 0 1 3.451-.356c-.869-5.384-2.605-15.544-3.862-19.092z" class="I"/><path d="M648.18 470.439l2.766.615-9.782-21.969-2.525.681 9.541 20.673z" class="C"/><g class="I"><path d="M629.638 417.885h-3.176l9.732 26.584 2.445 5.297a63.42 63.42 0 0 1 2.525-.681l-2.306-5.179-9.22-26.021zm28.516 29.365c-1.087-8.159-2.538-19.927-2.302-22.359.365-3.778.2-4.708.2-4.708l-8.646-4.059c-.083.397 3.999 18.515 6.852 31.148a65.736 65.736 0 0 1 3.896-.022z"/></g><path d="M658.154 447.25a65.736 65.736 0 0 0-3.896.022l2.697 12.015c-.009.205 3.065 12.332 3.065 12.332l1.638.07-2.379-16.404c-.033-.112-.524-3.524-1.125-8.035z" class="C"/><path d="M663.342 447.433c.717-1.896 1.742-18.665 2.049-19.223s-6.966-7.572-8.708-7.683l2.971 17.847c.399 2.739.709 6.056.95 8.975a65.66 65.66 0 0 1 2.704.216c.011-.045.021-.099.034-.132z" class="I"/><path d="M663.308 447.565l-2.704-.216.605 7.109 1.927 16.596c0 .335 1.332.635 1.332.635s-1.778-21.57-1.16-24.124z" class="C"/><g class="O Q"><path d="m0 309.855 94.729 29.608 43.477 39.271-63.149 8.434L.791 337.454 0 309.855Z" class="O"/></g><path d="M693.791 489.1l-19.627-.832s-5.801-7.359 1.963-10.883 13.185-3.715 17.664-.682 12.798 12.397 12.798 12.397h-12.798z" class="Z"/><path d="M669.798 494.999l-40.113-1.701s-11.856-15.039 4.012-22.241 26.946-7.593 36.101-1.394 26.155 25.336 26.155 25.336h-26.155z" fill="#122f37"/><g fill="#52768e"><path d="M353 281.409l-36.472 24.47 13.995 1.391L353 281.409zm-179.695 41.385L98.5 342.231l27.887 3.407 46.918-22.844zM.791 315.147L88.5 342.231l-23.191 3.761-65.434-24.976.916-5.869z"/></g><g class="B J"><path d="M139.663 283.614L124 294.339l-19.265 9.05L92 301.999l47.663-18.385z" class="B"/></g><g fill="#03190e"><path d="M103.046 382.008l-.902 1.354 7.619 10.944 1.125 1.134 1.442-.224-3.722-4.368-5.562-8.84zm5.585-3.979c-.029-2.341-3.018 1.411-3.018 1.411l2.16 4.83 2.864 5.974-5.305-6.713-1.496-2.708-.79 1.185 2.652 2.623 3.586 5.201 3.899 5.246 1.343-.216-4.171-6.638c-1.017-2.268-1.695-7.853-1.724-10.195zm6.501 16.841l.32-.148-.359.054.039.094zm.065-3.827s-.769-3.022-.885-4.542a15.196 15.196 0 0 1 .473-4.923c.494-1.848 1.227-3.682 1.801-4.603s.959-2.295.959-2.295l-3.272.631s.893.31.189 3.63-1.776 5.05-1.776 5.05l-.02-3.639.112-4.815-3.103 1.355 1.318 7.56c.724 2.52 3.472 8.828 3.472 8.828l.628 1.496.359-.054.978-.454c-.001 0-.537-1.112-1.233-3.225zm4.904 3.329c.109-.363.111-3.837.306-5.277.197-1.458 2.566-5.624 2.566-5.624l1.974-6.874-1.072-.714-1.39 7.344-2.896 5.323 1.643-13.41-2.094-.092-.171 7.954-.158 11.303.241.069 1.051-.002z"/><path d="M119.05 394.374c.349.093.966.224 1.047.016-.345-.026-.695-.027-1.047-.016zm-.301-19.421l-.988.075-.683 19.183 1.1-.122.571-19.136zm10.458 8.64c.423-1.674 1.222-3.79 1.222-3.79l-1.383-.921s-.225 3.395-.939 5.323-2.623 5.342-2.688 5.379.958-5.595 1.231-6.188 1.551-5.323 1.551-5.323l-1.467-.733-2.649 13.513c-.059.243-.435 2.391-.726 3.965.407.107.813.237 1.218.391l1.709-4.601c-.002 0 2.498-5.341 2.921-7.015zm-5.313 2.652l2.237-8.858-.875-.583-2.199 9.108-1.344 8.58a13.02 13.02 0 0 1 .755.121l1.426-8.368zm8.17-2.118c.794-.974.919-1.26.919-1.26l-1.636-2.705c-.147.144-5.252 13.585-5.292 13.64-.018.025-.32.865-.641 1.765.233.109.467.211.699.339a223.778 223.778 0 0 0 1.316-2.78c.033-.101 3.842-8.025 4.635-8.999zm1.03-1.049l-2.457 5.461c-.872 1.839-2.394 4.389-2.524 4.715l-1.505 2.958c.144.087.288.171.431.266 1.099-1.933 2.612-4.525 2.95-4.768.546-.391 3.906-4.821 4.093-4.918s-.528-3.364-.988-3.714z"/></g><g class="B J"><path d="M341.5 267.749 320 282.478l4.499-.057 11.428-5.893 5.573-8.779Z" class="B"/></g><g class="B J"><path d="M131.527 290.803h4.25l6.146-6.487-10.396 6.487Z" class="B"/></g><g class="B J"><path d="m246.817 259.242-22.067 14.5 20.77-9.128 1.297-5.372Z" class="B"/></g><g class="B J"><path d="m130.934 293.502-23.684 11.75h9.934l13.75-11.75Z" class="B"/></g><g class="B J"><path d="m226.5 275.113 12-2.864 6.5-5.757-18.5 8.621Z" class="B"/></g><path d="m342 265.642 19.676 11.284-10.313 1.043L342 265.642Z" class="P"/><g class="O Q"><path d="M172.551 318.925h93.862l29.446 20.089-58.151 16.304-65.157-36.393Z" class="O"/></g><g class="B J"><path d="m462.75 221.25-24.966 21.606L463 224.5l-.25-3.25Z" class="B"/></g><g class="B J"><path d="m545.801 204-26.461 20.005 27.582-16.487-1.121-3.518Z" class="B"/></g><path d="m56.187 489.059 41.346-1.994a3.94 3.94 0 0 1 .266-.003l70.279 1.996L99 490.955l-74.646 6.271 31.833-8.167Z" fill="#36451e"/><path d="M53.495 395.093l-5.822 1.408v96.892l5.822-5.822v-92.478z" class="U"/><path d="M47.673 309.123v87.379c1.94-.6 3.882-1.038 5.822-1.408v-85.971h-5.822Z" class="V"/><path d="M50.584 309.123h-2.911v87.379a45.09 45.09 0 0 1 2.91-.791v-86.588Z" class="W"/><path d="M50.584 395.71l-2.911.791v96.892l2.91-2.911V395.71z" class="R"/><path d="m51.124 238.79-18.667 77.93 20-1.333-21.334 3.666v2l21.334-2v6.667l-23 4.667-8.334 32.333 31.334-6.333-.114 4.701-31.22 5.299-1.666 4.666 33 1.334-1.333-133.597Z" class="D"/><path d="m93.808 374.277-41.35-3.82-1.334-131.667 14.667 50.334-11-.334 11.667 3.667.924 2.987-10.591-.32 11 2.333 11.333 42-26.666-2.333v3.666l29.699 7.864 11.651 25.623Z" class="G"/><path d="M51.124 375.052v6.666H17.458l33.666-6.666Z" class="D"/><path d="m87.623 375.719-35.166-3.333v3.334l36.905 5.644-1.739-5.645ZM99.205 427.043l-45.972-7.911-.33 3.318 48.033 10.437-1.731-5.844Z" class="X"/><path d="m51.933 328.477-23.323 5.196-1.492 5.788 24.948-5.788-.133-5.196Z" class="M"/><path d="M51.683 297.477v3.765l17.91 2.89-.387-2.072-17.523-4.583Z" class="E"/><path d="m51.625 288.273-12.919 2.796.572-2.317 12.347-3.379v2.9Z" class="M"/><path d="M52.183 343.227l.06 6.083 33.986 8.248-2.263-4.948-31.783-9.383zm-.5-65.833l11.586 3.07-.354-1.212-11.523-5.108.29 3.25z" class="E"/><path d="m53.495 378.385 42.86 6.472 13.242 41.153-56.102-11.111v-36.514Z" class="G"/><path d="M53.495 382.999v4.667l46.849 9.588-1.972-6.129-44.877-8.126Z" class="E"/><g class="D"><path d="M50.584 386.524l-33.987 2.809-4.252 14.735 38.239-7.567v-9.977zm0 15.674l-38.24 8.171-3.914 8.49 42.154-13.026v-3.635z"/></g><g fill="#8c5c57"><path d="m116.238 395.722 2.94-1.238v-18.109l-1.47-3.405v-36.063h-.851l-.619 58.815Z"/><path d="M116.55 371.781c-14.913-19.107-19.587-45.815-19.408-46.711l.74.121c-.012.2 3.964 26.531 19.258 46.129l-.59.461zm1.941 5.487c-.003-.205-.148-20.729 13.7-38.886l.597.455c-13.693 17.953-13.55 38.217-13.547 38.419l-.75.012zm-1.619-34.286c-.914-8.753-3.982-14.946-6.332-17.59-1.459-1.642-3.814-3.446-6.092-5.191-2.557-1.959-5.2-3.985-6.616-5.816-2.66-3.444-3.893-11.892-3.944-12.25l.742-.105c.012.085 1.255 8.609 3.795 11.896 1.355 1.754 3.96 3.75 6.479 5.68 2.306 1.767 4.689 3.594 6.196 5.289 2.424 2.727 5.585 9.079 6.518 18.01l-.746.077z"/><path d="M113.387 333.632c-4.809 0-8.008-4.195-8.156-4.394l.601-.449c.038.05 3.831 5.007 9.095 3.936l.15.734a8.418 8.418 0 0 1-1.69.173zm4.231 4.69l-.746-.072 5.183-64.366.748.059-5.185 64.379z"/><path d="M119.58 307.077c-.086-.081-2.134-2.049-4.915-7.771-2.785-5.73-3.568-21.606-3.6-22.279l.749-.035c.008.163.808 16.395 3.525 21.986 2.709 5.575 4.735 7.536 4.755 7.555l-.514.544Z"/><path d="M116.594 301.644l-.712-.236c.617-1.854.196-20.02-.019-26.863l.75-.023c.031 1.008.766 24.763-.019 27.122zm1.897 19.451c-.128-.096-3.196-2.415-7.363-8.587-4.187-6.204-5.9-31.462-5.971-32.534l.748-.049c.018.26 1.771 26.126 5.845 32.163 4.085 6.052 7.159 8.383 7.189 8.405l-.448.602z"/><path d="M109.666 309.094c-10.559-6.831-11.745-21.08-11.756-21.223l.748-.057c.01.14 1.174 14.023 11.415 20.65l-.407.63Z"/><path d="M106.381 306.303c-9.102-3.284-10.62-11.194-10.634-11.273l.738-.133c.014.075 1.47 7.568 10.15 10.701l-.254.705zm15.644 53.111l-.046-.748c.098-.007 9.931-.778 17.619-13.44l.641.389c-7.905 13.019-17.796 13.774-18.214 13.799zm-12.262.633l-.745-.084c1.818-16.208-1.739-22.808-1.775-22.872l.654-.367c.153.27 3.716 6.832 1.866 23.323z"/><path d="M110.244 350.594l-.659-.357c2.749-5.078 2.547-12.387 2.117-13.062l.165-.105.268-.491c1.015.553.906 8.849-1.891 14.015zm1.614-23.654c-.271-7.793-4.556-14.214-4.599-14.278l.621-.42c.044.065 4.448 6.666 4.728 14.673l-.75.025zm5.655 21.779l-.535-.525c.178-.181 17.788-18.351 18.852-39.166l.749.039c-1.079 21.102-18.887 39.469-19.066 39.652zm.912-19.863l-.72-.209c.014-.049.043-.195.091-.425 1.316-6.328 4.443-17.627 10.599-22.2 7.378-5.48 10.246-20.043 7.79-28.914l.723-.199c2.519 9.1-.455 24.062-8.065 29.715-4.415 3.28-8.077 11.005-10.312 21.751l-.106.481zm1.627-26.956l-.001-.75c.027 0 2.694-.057 5.332-3.152 2.471-2.898 5.416-9.108 5.416-22.228h.75c-.001 25.833-11.028 26.13-11.497 26.13z"/><path d="M125.495 298.201c-3.744-7.645 1.056-15.434 1.105-15.511l.635.398c-.046.074-4.624 7.52-1.066 14.782l-.674.331zm7.064 3.543c-.134-.186-3.244-4.646-.421-12.328l.704.258c-2.677 7.288.296 11.591.327 11.634l-.61.436zm-11.383 20.991c-.957 0-1.56-.193-1.608-.21l.236-.712c.314.105 7.717 2.335 12.329-11.799l.713.232c-1.952 5.981-4.659 9.881-8.046 11.588-1.419.717-2.69.901-3.624.901zm-2.851 10.918c-.405 0-.646-.025-.66-.027l.085-.745c.298.033 7.29.731 9.788-6.62l.71.242c-2.233 6.57-7.973 7.15-9.923 7.15zm10.728-.168c-.358 0-.572-.013-.585-.014l.051-.748c.083.006 8.413.503 9.718-5.188l.731.168c-1.231 5.367-7.888 5.782-9.915 5.782zm5.937-35.854l-.052-.748c.259-.019 6.349-.519 6.929-6.456l.746.072c-.642 6.575-7.553 7.127-7.623 7.132zm-.439 24.915c-.64 0-1.06-.132-1.094-.143l.229-.714c.013.004 1.352.409 2.861-.414 1.617-.883 2.837-2.791 3.628-5.673l.724.199c-.851 3.097-2.2 5.163-4.013 6.143a4.887 4.887 0 0 1-2.335.602zm-32.568 20.769c-7.349-.95-9.61-8.86-9.633-8.94l.723-.199c.021.074 2.158 7.511 9.006 8.396l-.096.743zm-2.47-7.916l-.042-.748.021.374-.023-.374a2.66 2.66 0 0 0 1.738-.959c.693-.839.938-2.122.729-3.813l.744-.092c.237 1.913-.068 3.393-.906 4.397-.942 1.128-2.207 1.212-2.261 1.215zm2.489 19.573a5.19 5.19 0 0 1-.738-.053c-1.754-.252-3.29-1.401-4.569-3.417l.634-.402c1.153 1.82 2.511 2.855 4.036 3.076 2.351.347 4.358-1.381 4.378-1.398l.494.564c-.083.072-1.888 1.63-4.235 1.63zm31.229-1.758c-1.923-4.271 1.29-8.899 1.427-9.095l.613.433c-.031.045-3.102 4.478-1.356 8.354l-.684.308zm-36.241-38.59c-3.193 0-5.182-2.155-5.833-3.43-.322-.629-.356-1.076-.104-1.329l.53.531a.19.19 0 0 0 .055-.095c-.022.183.305 1.013 1.21 1.884.811.781 2.565 2.022 5.221 1.6l.12.74a7.434 7.434 0 0 1-1.2.099zm36.626-8.3c-2.063 0-3.488-1.132-3.556-1.188l.471-.583c.017.014 1.682 1.328 3.892.953 1.882-.314 3.624-1.722 5.178-4.182l.634.4c-1.676 2.654-3.594 4.176-5.701 4.523a5.459 5.459 0 0 1-.918.077z"/></g><path d="M655.667 470.144l6.912 2.641c.838.485-1.229-3.255-6.912-2.641zm-18.854 4.493l5.239 2.446c.635.451-.932-3.014-5.239-2.446zm14.507 2.664l5.239 2.446c.635.45-.932-3.015-5.239-2.446zm-18.463 6.813l5.239 2.446c.635.45-.931-3.015-5.239-2.446zm35.25-2.927l5.239 2.446c.635.451-.931-3.014-5.239-2.446zm-23.016 2.551l5.239 2.446c.635.45-.932-3.015-5.239-2.446zm16.702 3.041l5.239 2.446c.635.45-.932-3.015-5.239-2.446zm16.434 2.126l5.239 2.446c.635.45-.931-3.015-5.239-2.446zm-11.059-14.641l4.179 1.915c.507.352-.743-2.36-4.179-1.915z" class="Q"/><g><use xlink:href="#A"/><animateTransform attributeName="transform" attributeType="XML" type="translate" values="0,0;0,400" dur="2s" repeatCount="indefinite"/></g><g><use xlink:href="#A"/><animateTransform attributeName="transform" attributeType="XML" type="translate" values="-10,-130;10,400" dur="1.4s" repeatCount="indefinite"/></g><g><use xlink:href="#A"/><animateTransform attributeName="transform" attributeType="XML" type="translate" values="10,-100;-10,400" dur="1.3s" repeatCount="indefinite"/></g><g><use xlink:href="#A"/><animateTransform attributeName="transform" attributeType="XML" type="translate" values="0,-250;0,400" dur="2.5s" repeatCount="indefinite"/></g></g><defs><linearGradient id="D" x1="359.984" y1="-.036" x2="359.984" y2="435.83" gradientUnits="userSpaceOnUse"><stop stop-color="#909192"/><stop offset=".719" stop-color="#a4b9c8" stop-opacity=".281"/><stop offset=".885" stop-color="#ababab" stop-opacity=".281"/><stop offset="1" stop-color="#acc8dd" stop-opacity="0"/></linearGradient><clipPath id="E"><path fill="#fff" d="M0 0h720v503.998H0z"/></clipPath></defs></svg>