<svg xmlns="http://www.w3.org/2000/svg" xmlns:xlink="http://www.w3.org/1999/xlink" viewBox="0 0 720 504" shape-rendering="geometricPrecision" xmlns:v="https://vecta.io/nano"><style><![CDATA[.B{opacity:.1}.C{fill:#e4ddcc}.D{opacity:.4}.E{fill:#151c30}.F{fill:#273250}.G{opacity:.5}.H{fill:#101726}.I{fill:#212c44}.J{fill:#111828}.K{fill:#222642}.L{fill:#f88063}.M{fill:#3f2c36}.N{fill:#fef9c8}]]></style><defs><linearGradient id="A" x1="360" y1="0" x2="360" y2="499.189" spreadMethod="pad" gradientUnits="userSpaceOnUse"><stop offset="0%" stop-color="#17122a"/><stop offset="16.07%" stop-color="#271938"/><stop offset="17.05%" stop-color="#281939"/><stop offset="26.41%" stop-color="#381f40"/><stop offset="42.47%" stop-color="#5c2d51"/><stop offset="47.79%" stop-color="#6c3a58"/><stop offset="58.18%" stop-color="#965b69"/><stop offset="70.22%" stop-color="#cd8780"/><stop offset="75.51%" stop-color="#d5978b"/><stop offset="85.8%" stop-color="#e8c0a8"/><stop offset="88.9%" stop-color="#efceb1"/></linearGradient><path id="B" d="M96.677 104.416c.968 0 .968-1.5 0-1.5s-.968 1.5 0 1.5Z"/><path id="C" d="M244.01 47.236c1.451 0 1.451-2.25 0-2.25s-1.451 2.25 0 2.25Z"/><path id="D" d="M230.548 62.907c.583.57 1.312.944 2.129.996.612.04 1.125-.54 1.125-1.125 0-.643-.513-1.086-1.125-1.125.134.01-.173-.064-.074-.02a2.44 2.44 0 0 1-.323-.193c.155.104-.099-.084-.14-.125-1.038-1.014-2.63.576-1.592 1.592Z"/><path id="E" d="M129.344 18.57h.666c1.451 0 1.451-2.25 0-2.25h-.666c-1.451 0-1.451 2.25 0 2.25Z"/><path id="F" d="M166.219 55.444c.024 1.033.786 1.724 1.791 1.792.612.042 1.125-.543 1.125-1.125 0-.645-.514-1.083-1.125-1.125.246.017.383.189.461.394-.103-.27 0 .146-.002.064-.033-1.448-2.283-1.452-2.25 0Z"/><path id="G" d="M238.885 23.445c-.004.164.062-.343.016-.126-.034.108-.021.083.037-.075a.514.514 0 0 1 .406-.257c-.611.042-1.125.48-1.125 1.125 0 .582.513 1.167 1.125 1.125 1.005-.068 1.767-.758 1.791-1.792.033-1.452-2.217-1.449-2.25 0Z"/><path id="H" d="M196.677 28.57h.667c1.451 0 1.451-2.25 0-2.25h-.667c-1.451 0-1.451 2.25 0 2.25Z"/><path id="I" d="M50.01 19.236c.485 0 .995-.032 1.361-.397.385-.385.43-.879.431-1.394.002-1.45-2.248-1.45-2.25 0 0 .084-.053.54.016.17.159-.407.415-.618.768-.634-.107.01-.218.005-.325.005-1.452.003-1.452 2.253-.001 2.25Z"/><path id="J" d="M190.209 152.445v.666c0 1.451 2.25 1.451 2.25 0v-.666c0-1.451-2.25-1.451-2.25 0Z"/><path id="K" d="M371.205 172.574c.583.569 1.312.944 2.129.996.612.039 1.125-.541 1.125-1.125 0-.643-.513-1.086-1.125-1.125.134.009-.173-.064-.074-.02a2.44 2.44 0 0 1-.323-.193c.155.104-.099-.084-.14-.125-1.038-1.015-2.63.575-1.592 1.592Z"/><path id="L" d="M379.542 133.111c-.004.164.062-.343.016-.126-.034.108-.021.083.037-.075a.514.514 0 0 1 .406-.257c-.611.042-1.125.48-1.125 1.125 0 .582.513 1.167 1.125 1.125 1.005-.068 1.767-.758 1.791-1.792.033-1.451-2.217-1.448-2.25 0Z"/><path id="M" d="M425.975 217.673c1.451 0 1.451-2.25 0-2.25s-1.452 2.25 0 2.25Z"/><path id="N" d="M507.721 118.308c.967 0 .967-1.5 0-1.5s-.967 1.5 0 1.5Z"/><path id="O" d="M561.055 26.974h.666c.967 0 .967-1.5 0-1.5h-.666c-.967 0-.967 1.5 0 1.5Z"/></defs><g clip-path="url(#P)"><path d="M720 0H0v499.188h720V0Z" fill="url(#A)"/><g fill="#754a64"><path d="m114.886 326.341 118.202-39.221 111.248 64.196 120.052-65.321 92 59.768 82.2-71.356L717.544 336v34.795H141.997l-27.111-44.454Z"/><path d="m218.784 321.72-85.337 22.163 15.485 24.387L360 367.938 218.784 321.72Z"/></g><path d="m134.189 369.019 460.866-.533-31.076 41.504-200.381 16.415-201.265-16.4-28.144-40.986Z" fill="#3c5f7c"/><g class="M"><g class="G"><path d="M351.709 362.944l5.219 2.435 2.638-2.008 1.449 2.008 1.447-1.689 1.702 1.689 1.362-3.788 2.213 4.013 2.129-1.822 1.958 1.822 1.874-4.333 2.213 4.611 4.141-.935 3.522.935 1.959-.822 2.894 1.747 3.747.947 2.375 1.399-42.84-.144-.002-6.065zm-209.712 6.075c.146-.145 2.235-10.412 2.527-10.219s1.75 3.473 1.75 3.473l4.084-6.705 1.459 2.413 1.312-.098 1.021 3.038c0 .097.729-1.35.729-1.35l1.313 1.495 1.021-1.688 1.021 1.108 3.209-6.704 2.042 5.499 5.021-10.542 5.919 5.622 1.459-2.363 1.021 3.473 1.459-2.267 2.188 3.858 2.188-5.595 1.021 6.703 1.75-2.17 1.896 1.688 2.333-6.463 2.772 6.125 2.188-3.231 2.479 3.665 1.021-1.688 1.021 2.122 1.167-2.025.875 1.736 1.313-2.75 1.313 2.846s1.604-1.108 1.75-.964 3.21 4.438 3.21 4.438l1.312-1.593s1.897 2.604 1.897 2.702 2.188-2.798 1.75-2.702l1.604 1.352 1.167-3.088 1.604 2.171 1.458-1.641.875 1.641 1.458-4.727 2.479 5.161s1.313-1.93 1.605-1.784 1.75 3.424 1.75 3.424l1.314-1.399.729 2.219 1.167-1.351 1.459 3.232 1.458-.724 1.312.578 1.167-4.1 2.042 1.93 1.75-7.041 1.75 3.761 1.605-2.266 2.042 4.05 1.166-.915 1.75 1.784 1.256 6.832-107.778.014z" class="G"/><path d="M385.287 362.813l5.218 2.436 2.639-2.009 1.448 2.009 1.447-1.689 1.703 1.689 1.363-3.79 2.213 4.014 2.129-1.821 1.958 1.821 1.872-4.333 2.215 4.611 4.139-.935 3.523.935 1.958-.821 4.44-1.77s3.551-.545 5.114.737 2.778 4.761 2.778 4.761l-45.74.495-.417-6.34zm-140.94 6.146c.146-.146 3.063-8.924 3.355-8.729s1.75 3.473 1.75 3.473l4.084-6.705 1.459 2.412 1.312-.097 1.021 3.039c0 .096.729-1.351.729-1.351l1.313 1.495 1.021-1.688 1.021 1.109 3.209-6.704 5.711 6.334 4.608-11.525 2.662 5.771 1.459-2.365 1.02 3.474 1.459-2.268 2.188 3.859 2.188-5.595 1.021 6.703 1.75-2.17 1.896 1.688 2.334-6.463 2.771 6.125 2.188-3.232 2.479 3.666 1.021-1.688 1.021 2.122 1.167-2.025.874 1.736 1.313-2.749 1.313 2.845s1.604-1.109 1.749-.964 3.21 4.437 3.21 4.437l1.312-1.592 1.897 2.702c0 .096 2.187-2.798 1.749-2.702l1.605 1.351 1.167-3.087 1.604 2.171 1.459-1.64.875 1.64 1.459-4.727 2.479 5.16s1.313-1.93 1.605-1.784 1.749 3.425 1.749 3.425l1.315-1.399.728 2.22 1.167-1.352 1.46 3.231 1.457-.724 1.313.58 1.167-4.101 2.041 1.931 1.751-7.043 1.75 3.762 1.605-2.267 2.042 4.051 1.166-.916 1.75 1.784 1.771 5.414-109.119-.058z" class="G"/></g><path d="m637.848 362.035 5.218 2.435 2.639-2.008 1.448 2.008 1.448-1.689 1.702 1.689 1.362-3.788 2.213 4.012 2.129-1.821 1.958 1.821 1.874-4.333 2.213 4.612 4.14-.935 3.523.935 1.959-.823 2.893 1.747 3.747.948 2.375 1.399-42.839-.144-.002-6.065Z"/></g><g fill="#33556d"><path d="M144.933 368.27l220.673.884 3.605-.011 207.191-.635 1.785 6.355-128.501-3.178c-14.687-.436-208.687-.564-209.937 0s-90.818 3.178-90.818 3.178l-3.998-6.593zm12.348 28.349l12.386 10.231 209.509 20.417 181.082-21.847 9.769-10.554-187.676 25.473-225.07-23.72z" opacity=".8"/></g><g class="M"><path d="M431.445 368.658c.146-.145 1.22-10.646 1.511-10.453s1.75 3.473 1.75 3.473l4.085-6.705 1.459 2.413 1.312-.098 1.021 3.038c0 .097.729-1.35.729-1.35l1.313 1.495 1.02-1.688 1.021 1.108 3.21-6.704 2.104 7.487 3.271-3.732 2.043 2.576 3.5-8.903 1.667 4.531 1.856-3.743 1.021 3.473 1.459-2.267 2.188 3.858 2.188-5.595 1.021 6.703 1.75-2.17 1.896 1.688 2.333-6.463 2.772 6.125 2.188-3.231 2.479 3.665 1.021-1.688 1.021 2.122 1.166-2.025.875 1.736 1.313-2.75 1.313 2.846s1.604-1.108 1.749-.964 3.21 4.438 3.21 4.438l1.312-1.593s1.896 2.604 1.896 2.702 2.188-2.798 1.75-2.702l1.605 1.352 1.166-3.088 1.604 2.171 1.458-1.641.876 1.641 1.458-4.727 2.479 5.161s1.313-1.93 1.604-1.784 1.75 3.424 1.75 3.424l1.314-1.399.729 2.219 1.167-1.351 1.46 3.232 1.458-.724 1.312.578 1.167-4.1 2.041 1.93 1.751-7.041 1.75 3.761 1.605-2.266 2.042 4.05 1.166-.915 1.75 1.784 1.257 6.832-106.762.248z" class="G"/><path d="m671.426 361.904 5.218 2.436 2.638-2.009 1.448 2.009 1.448-1.69 1.703 1.69 1.363-3.79 2.213 4.013 2.129-1.821 1.958 1.821 1.872-4.333 2.215 4.612 4.139-.935 3.523.935 1.958-.821 4.44-1.77 2.457-1.004 5.436 7.627-45.74-.63-.418-6.34Z"/></g><path d="m0 352.346 84.648 44.195L360 423.082l237.107-20.912L720 361.585v142.414H0V352.346Z" class="E"/><path d="M152.839 403.465l58.828 6.173 5.01 10.701-21.515 1.329 2.396 13.245c-5.225 6.754-44.72-2.789-44.72-2.789s5.458 8.329 8.161 9.862-20.541 8.104-20.541 8.104L161 458.156l-17.853 15.538s-7.204 7.559 14.133 10.8c34.053 5.173-39.488 19.505-39.488 19.505L0 503.188v-42.933l152.839-56.79z" fill="#101721"/><path d="m466.506 286.393-4.669 6.474 7.002 6.475h-7.002v7.228l-4.414 2.484 22.417 18.442 24.215 20.716 91 18.689-9.883-13.822-118.666-66.686Z" fill="#805066"/><g class="M"><path d="M537.379 368.688c.146-.187 2.236-13.404 2.527-13.155s1.75 4.471 1.75 4.471l4.085-8.632 1.459 3.106 1.312-.126 1.021 3.911c0 .125.729-1.737.729-1.737l1.313 1.925 1.02-2.173 1.021 1.428 3.21-8.631 2.104 9.639 3.271-4.805 2.043 3.316 3.5-11.462 1.667 5.833 1.856-4.818 1.021 4.471 1.459-2.918 2.188 4.967 2.188-7.202 1.021 8.629 1.75-2.793 1.896 2.174 2.333-8.32 2.772 7.885 2.188-4.16 2.479 4.719 1.021-2.173 1.021 2.732 1.166-2.607.875 2.235 1.313-3.541 1.313 3.664s1.604-1.427 1.749-1.241 3.21 5.713 3.21 5.713l1.312-2.051s1.896 3.354 1.896 3.479 2.188-3.602 1.75-3.479l1.605 1.74 1.166-3.976 1.604 2.795 1.458-2.112.876 2.112 1.458-6.085 2.479 6.645s1.313-2.484 1.604-2.297 1.75 4.407 1.75 4.407l1.314-1.801.729 2.856 1.167-1.739 1.46 4.161 1.458-.932 1.312.744 1.167-5.277 2.041 2.484 1.751-9.064 1.75 4.842 1.605-2.917 2.042 5.214 1.166-1.179 1.75 2.297 1.257 8.796-107.778.013z" class="G"/><path d="M586.3 460.188c2.558.026 3.533-.356-1.109-.722-9.911-.779-12.169-1.559-14.395-1.727l29.184-.668c3.562.077 1.245-1.625-3.058-1.734s-30.255-1.354-30.255-1.354 21.334-.366 21.5-1.279-27.078-2.975-27.078-2.975l29.896-1.239-44.972-1.687c-7.328.104-27.678.904-27.678.904l-44.042 1.799 23.905 1.547-13.449 1.146-32.357 1.97c-8.893 2.006 16.02 3.943 9.237 3.634 0 0 25.298.819 12.713 1.119-25.462.605-37.931-.207-35.343 1.286 2.75 1.587 35.5 1.038 35.5 1.038s-30.164 1.616-24.813 2.879c4.063.96 34.462-.342 34.462-.342s-11.378 1.316-11.144 2.234 55.995 1.271 55.995 1.271 41.146-.702 44.156-1.567-2.032-1.938-2.032-1.938l26.002-.925c3.347-.127 3.872-.869-1.353-.958s-34.606-1.692-34.606-1.692l25.134-.02z"/></g><g class="E"><path d="M135.062 326.341l13.87 5.771s-2.22 2.401-4.766 1.418c-7.604-2.939-9.104-7.189-9.104-7.189zm-4.457-30.375l14.328 6.896s-2.942.962-5.488-.021c-7.605-2.94-8.84-6.875-8.84-6.875z"/></g><path d="m92.92 186.017 19.952 48.176-10.666-11.332 1.666 18.332-12.5-28.92 1.548-26.256Z" class="I"/><g class="J"><path d="M92.539 184.527s-4.806 24.887-17.333 38.666c-6.667 7.334 10-6.332 10-6.332l-11.574 16.666 9.453-2.334s-.463 1.287-1.298 3.002c-1.246 2.559-3.319 6.068-5.915 7.666-4.333 2.666 10.334-8.334 10.334-8.334s5.334 9 2 13.666 5.636-2.33 4.333-16c-.667-7 4.001 8.668 6.667 12.334 0 0 .334-5 0-6.666s4.666 6.666 4.666 6.666l-9.275-26.945c-.78-2.365-2.747-10.745 3.275-4.721 2.333 2.333-5.333-27.334-5.333-27.334zm9.667 38.334l10.666 11.332-10.666-7v-4.332z"/></g><path d="m102.95 231.05 6.922 13.477-6-4.5-.922-8.977Z" class="E"/><path d="M121.615 358.699s44.111 31.846 58.438 39.346c10.8 5.654-15.331 0-15.331 0l19.233 15.038-17.701-6.016 13.288 10.148s-30.61 13-40.579-3.146c-2.575-4.17 3.034 12.396 3.034 12.396l-18.498-13.383 2.384 9.396-11.755-7.894 4.17 19.63s-2.426 2.242-8.426.334c-6.939-2.207-7.903-8.349-7.666-8.87.51-1.127-.514-33.546-4.26-46.568s3.047-30.809 23.669-20.411z" class="I"/><path d="M101.657 427.267l12.932-37.384 9.912.833-3.283-6.622 16.551 20.789-8.332-31.167s8.639 5.14 14.391 6.638 10.588-1.831 10.588-1.831l-15.421-5.836-11.558-10.221-4.75 2.617-3.067 7.979 1.375 4.625-5.564-4.375-43.289 17.904 29.515 36.051z" class="J"/><path d="M121.167 326.342s20.83 27.687 33.581 35.263c7.397 4.396-9.953 0-9.953 0l12.486 13.271-11.491-5.309 8.625 8.956s-21.231-1.989-26.871-10.614.332 20.234.332 20.234l-9.841-13.268 1.547 8.292-7.63-6.966-11.833 32.032s-.091-6.57-3.5-12.422c-2.935-5.038-7.867-18.263-7.867-18.263.332-.994 15.127-21.161 12.695-32.653s6.333-27.73 19.72-18.553z" class="I"/><g class="J"><path d="M100.437 381.716l9.679-37.682 10.784 11.538-3.713-11.856 11.417 15.834-4.812-26.333s7.082 5.419 12.833 6.917 13.802.261 13.802.261l-18.636-7.928-10.625-6.125-.75 11.25-8-4.75 1.375 4.625-5.564-4.375-16.856 10.749 9.066 37.875zM86.783 226.447l-5.995 5.313s-16.5 19.683-26.25 24.683 9.5-1.25 9.5-1.25-3.762 9.25-12.256 11 16.256 4.499 20.506 0 .23 9.337-25.5 22.249c-8.655 4.344 16.5-1.25 22.5-4.75 0 0 .186 4.436-16.25 11.25-10.25 4.25 18-1.25 18-1.25s-5.5 4.75-6 5 8.25-2.25 6.25 2.25 15.416 1.25 20.083 8 7.917 5.25 7.917 5.25l-6.25-66.75c0 .001-3.958-20.245-6.255-20.995z"/></g><path d="M112.824 288.755s13.232 25.579 37.936 34.722c8.07 2.986-9.953 0-9.953 0l8.125 8.635c-1.245 2.979-14.245-5.77-14.245-5.77l15.741 14.053s-21.231-1.989-26.871-10.614.332 20.234.332 20.234l-9.841-13.268 1.547 8.292-7.63-6.966-7.528 31.893s-15.638-16.537-16.5-15.938c-6.513 4.528 15.955-35.769 13.522-47.261s1.98-27.189 15.365-18.012z" class="I"/><g class="J"><path d="M94.832 343.883l12.673-34.792 9.432 13.125-1.932-11.125 9.496 12.552-4.371-22.552s7.082 5.419 12.833 6.917 10.184-1.366 10.184-1.366l-15.018-6.301-10.625-6.125-.75 11.25-8-4.75 1.375 4.625-5.564-4.375-9.733 13.368v29.549z"/><path d="M83.247 289.331l-3.676.112S51.233 305.747 35.307 308.8s15.069.619 15.069.619-7.049 8.442-20.601 8.517 24.964 7.646 32.192 4.013-.793 9.311-42.785 17.089c-14.126 2.616 26.058 1.988 35.911-.312 0 0-.257 4.438-26.903 7.984-16.617 2.212 28.414 2.282 28.414 2.282s-9.222 3.637-10.039 3.787 13.23-.618 9.534 3.456 24.047 4.257 30.539 11.868l.139-15.222 13.659-43.417c.001.002-13.677-18.94-17.189-20.133z"/></g><path d="M109.928 261.349s17.259 22.117 32.813 30.034c8.8 4.479-8.609 0-8.609 0l10.8 11.479-9.939-4.592 8.154 8.372s-19.058-2.346-23.937-9.807.287 17.503.287 17.503l-8.512-11.477 1.338 7.173-6.6-6.025s-4.885 16.626-6.731 13.523c-3.28-5.511-7.799-13.26-7.616-13.811.287-.86 3.914-16.565 1.81-26.506s5.163-23.805 16.742-15.866z" class="I"/><g class="J"><path d="M91.371 389.549l6.176-30.061S79.7 342.216 75.248 340.905l-.3 2.415.3-2.415s-35.083 15.462-54.994 18.02 18.952 1.103 18.952 1.103-8.587 8.251-25.61 7.893 31.608 8.474 40.574 5.058c8.664-3.303-.075 8.483-48.059 15.116v2.498c11.975.443 32.666.191 39.958-.99 0 0-.182 4.448-33.545 7.156-20.807 1.69 35.771 3.199 35.771 3.199s-13.463 3.146-12.49 3.482c22.515 7.776-8.356 10.858-12.869 14.831s53.268-3.903 61.667 3.945 17.054 5.051 17.054 5.051l-10.286-37.718zm7.202-120.023l.412-2.907v20.251s2.144-14.614 4.887-11.32c2.034 2.442 5.94 1.695 5.94 1.695l-2.273-5.265s-1.701-5.59 0 0 10.759 8.902 10.759 8.902-9.096-19.026-5.729-15.014 18.036 1.497 18.036 1.497l-12.664-3.759-7.826-6.517-6.546 6.778 1.166 6.251-5.75-3.501"/></g><path d="M102.95 228.527s21.588 21.166 28.588 26.167-7.5 0-7.5 0l9.409 10-8.659-4.001 6.5 6.75s-16-1.499-20.25-8 .25 15.25.25 15.25l-7.416-9.999 1.166 6.249-5.75-5.249-2.99 16.569s-9.76-16.069-9.51-16.819 6.416-14.682 4.583-23.341 1.491-20.492 11.579-13.576z" class="I"/><g class="J"><path d="M95.27 226.447l7.68 22.19v-9.577l-5.847-14.177-1.833 1.564zm-3.899 48.436l.733-5.333 7.877 6.833-.996 10.487-3.715-8.66-3.899-3.327z"/></g><g class="H"><path d="M66.285 336.659l20.41 8.492s-3.266 3.533-7.013 2.086c-11.19-4.324-13.397-10.578-13.397-10.578zm-6.558-44.698l21.084 10.147s-4.33 1.415-8.077-.031c-11.19-4.324-13.007-10.116-13.007-10.116z"/></g><path d="m4.272 130.167 29.36 70.894-15.695-16.676 2.452 26.976-18.396-42.556 2.279-38.638Z" class="K"/><g class="H"><path d="M20.389 214.796L6.74 175.145c-1.148-3.48-4.042-15.813 4.82-6.947 3.433 3.432-7.848-40.224-7.848-40.224S2.563 133.898 0 142.289v75.152c2.28-4.384 4.593-11.548 3.712-20.795-.981-10.301 5.887 12.755 9.811 18.15 0 0 .491-7.357 0-9.809s6.866 9.809 6.866 9.809zm-2.452-30.411l15.695 16.676-15.695-10.301v-6.375z"/></g><path d="m19.032 196.437 10.186 19.831-8.829-6.622-1.357-13.209Z" class="E"/><path d="M46.499 384.276s64.912 46.861 85.993 57.898c15.893 8.32-22.56 0-22.56 0l28.303 22.129-26.048-8.853 19.553 14.935s-45.044 19.13-59.713-4.629c-3.79-6.137 4.464 18.24 4.464 18.24l-27.22-19.693 3.508 13.827-17.3-11.614 6.137 28.886s-3.57 3.3-12.4.492c-10.21-3.248-11.628-12.286-11.28-13.053.75-1.659-.756-49.364-6.271-68.527s4.486-45.339 34.834-30.038z" class="K"/><path d="M72.072 404.858l-17.008-15.04-6.99 3.852-4.514 11.741 2.023 6.806-8.188-6.438L0 421.246v43.008l17.129 20.922 19.029-55.012 14.585 1.226-2.184-7.953 21.708 28.801-12.261-45.864s12.713 7.563 21.177 9.769 20.311.383 20.311.383l-27.422-11.668z" class="H"/><path d="M98.981 408.079l-18.373-19.528s25.531 6.469 14.646 0c-18.764-11.148-49.415-51.89-49.415-51.89-19.699-13.504-32.598 10.394-29.019 27.302C19.793 378.011 5.282 400.854 0 409.028v7.844c2.442 6.263 6.765 16.95 9.716 22.016 5.016 8.611 5.15 18.279 5.15 18.279l17.413-47.137 11.229 10.251-2.277-12.202 14.481 19.523s-8.787-42.469-.488-29.775 39.542 15.619 39.542 15.619l-12.692-13.179 16.907 7.812z" class="K"/><g class="H"><path d="M15.333 418.146l14.243-55.449 15.87 16.979-5.464-17.447 16.8 23.3-7.08-38.75s10.42 7.975 18.885 10.179 20.31.384 20.31.384l-27.422-11.666-15.635-9.013-1.104 16.555-11.772-6.99 2.023 6.806-8.188-6.438-24.806 15.815 13.34 55.735zM4.446 220.559S2.383 210.007 0 201.229v107.72c.765.62 1.444 1.312 1.993 2.107 6.868 9.933 11.65 7.726 11.65 7.726l-9.197-98.223z"/></g><path d="M89.386 332.444c-36.353-13.453-55.824-51.094-55.824-51.094-19.699-13.504-26.189 9.598-22.61 26.506C12.63 315.783 6.258 333.02 0 348.414v36.719c6.931 6.838 15.333 15.723 15.333 15.723l11.078-46.932 11.229 10.251-2.277-12.202 14.481 19.523s-8.787-42.469-.488-29.775 39.542 15.619 39.542 15.619l-23.164-20.679s19.13 12.874 20.962 8.49L74.74 332.444s26.521 4.395 14.646 0z" class="K"/><g class="H"><path d="M7.086 362.473l18.648-51.197 13.879 19.313-2.842-16.37 13.973 18.47-6.432-33.186s10.42 7.975 18.885 10.179 14.986-2.011 14.986-2.011l-22.1-9.271-15.634-9.014-1.104 16.556-11.772-6.99 2.023 6.806-8.188-6.438-14.322 19.671v43.482z"/><path d="M0 291.973v68.592l15.333-48.737c0-.001-8.093-11.206-15.333-19.855Z"/></g><path d="M29.3 241.022s25.397 32.545 48.286 44.195c12.95 6.59-12.668 0-12.668 0l15.893 16.891-14.626-6.757 12 12.319s-28.045-3.451-35.224-14.431.422 25.757.422 25.757l-12.526-16.889 1.97 10.555-9.713-8.866s-7.189 24.466-9.906 19.9C8.382 315.587 1.731 304.183 2 303.373c.422-1.266 5.76-24.376 2.664-39.004-3.096-14.622 7.597-35.03 24.636-23.347z" class="K"/><g class="H"><path d="M17.129 485.176L1.993 429.673l9.088-44.235S6.134 380.651 0 375.077V483.25c9.322 4.449 17.129 1.926 17.129 1.926zm-4.538-232.121l.606-4.278v29.801s3.155-21.506 7.191-16.659c2.993 3.595 8.742 2.495 8.742 2.495l-3.346-7.747s-2.502-8.226 0 0 15.832 13.101 15.832 13.101-13.385-27.999-8.43-22.094 26.54 2.203 26.54 2.203l-18.635-5.531-11.517-9.589-9.632 9.975 1.716 9.198-8.46-5.151"/></g><path d="M63.91 245.943l-13.846-14.715s21.337 7.357 11.037 0-42.068-38.504-42.068-38.504C4.188 182.547-.703 199.958 1.994 212.699c1.295 6.121-.127 14.03-1.994 20.721v22.787l9.243 15.59 4.4-24.383 8.461 7.725-1.716-9.196 10.913 14.713s-6.622-32.004-.368-22.439 29.799 11.771 29.799 11.771l-9.565-9.931 12.743 5.886z" class="K"/><g class="H"><path d="M7.73 189.662l11.302 32.653v-14.092l-8.604-20.863-2.698 2.302zm-5.737 71.275l1.078-7.847 11.593 10.055-1.466 15.432-5.468-12.744-5.737-4.896z"/></g><g class="E"><path d="M587.334 330.75l-14.475 6.636s1.764 1.984 4.309 1.001c7.605-2.939 10.166-7.637 10.166-7.637zm3.395-29.927l-14.327 6.896s2.941.962 5.488-.021c7.604-2.939 8.839-6.875 8.839-6.875z"/></g><path d="m628.414 190.875-19.951 48.175 10.666-11.332-1.666 18.332 12.5-28.92-1.549-26.255Z" class="F"/><g class="E"><path d="M628.795 189.384s4.807 24.887 17.334 38.666c6.666 7.334-10-6.332-10-6.332l11.574 16.666-9.453-2.334s.463 1.287 1.297 3.002c1.246 2.559 3.32 6.068 5.916 7.666 4.332 2.666-10.334-8.334-10.334-8.334s-5.334 9-2 13.666-5.637-2.33-4.334-16c.668-7-4 8.668-6.666 12.334 0 0-.334-5 0-6.666s-4.666 6.666-4.666 6.666l9.275-26.945c.779-2.365 2.746-10.745-3.275-4.721-2.334 2.333 5.332-27.334 5.332-27.334zm-9.666 38.334l-10.666 11.332 10.666-7v-4.332zm-.744 8.19l-6.922 13.476 6-4.5.922-8.976z"/></g><path d="M599.719 363.557s-44.111 31.846-58.438 39.346c-10.799 5.654 15.332 0 15.332 0l-19.234 15.038 17.701-6.016-13.287 10.148s30.609 13 40.578-3.146c2.575-4.17-3.033 12.396-3.033 12.396l18.498-13.383-2.385 9.396 11.756-7.894-4.17 19.63s1.629 4.336 7.629 2.428c6.939-2.207 8.699-10.442 8.463-10.964-.51-1.127.514-33.546 4.261-46.568s-3.048-30.81-23.671-20.411z" class="F"/><path d="M619.678 432.124l-12.932-37.384-9.912.833 3.283-6.622-16.551 20.789 8.332-31.167s-8.64 5.14-14.392 6.638-13.802.261-13.802.261l18.635-7.928 11.559-10.221 4.75 2.617 3.066 7.979-1.375 4.625 5.564-4.375 43.289 17.904-29.514 36.051z" class="E"/><path d="M600.168 331.199s-20.83 27.687-33.581 35.263c-7.397 4.396 9.952 0 9.952 0l-12.485 13.271 11.491-5.309-8.626 8.956s21.231-1.989 26.871-10.614-.331 20.234-.331 20.234l9.84-13.268-1.547 8.292 7.631-6.966 11.832 32.032s.092-6.57 3.5-12.422c2.936-5.038 7.867-18.263 7.867-18.263-.331-.994-15.127-21.161-12.694-32.653s-6.333-27.73-19.72-18.553z" class="F"/><g class="E"><path d="M620.898 386.573l-9.68-37.682-10.783 11.538 3.713-11.856-11.418 15.834 4.812-26.333s-7.082 5.419-12.834 6.917-13.379.636-13.379.636l18.213-8.303 10.625-6.125.75 11.25 8-4.75-1.375 4.625 5.564-4.375 16.855 10.749-9.063 37.875zm13.653-155.269l5.996 5.313s16.5 19.683 26.25 24.683-9.5-1.25-9.5-1.25 3.762 9.25 12.256 11-16.256 4.499-20.506 0-.23 9.337 25.5 22.249c8.654 4.344-16.5-1.25-22.5-4.75 0 0-.186 4.436 16.25 11.25 10.25 4.25-18-1.25-18-1.25s5.5 4.75 6 5-8.25-2.25-6.25 2.25-15.416 1.25-20.084 8-7.916 5.25-7.916 5.25l6.25-66.75c0 .001 3.957-20.245 6.254-20.995z"/></g><path d="M608.51 294.032s-13.231 25.579-37.936 34.722c-8.069 2.986 9.953 0 9.953 0l-8.125 8.635c1.246 2.979 14.246-5.77 14.246-5.77l-15.742 14.053s21.232-1.989 26.871-10.614-.331 20.234-.331 20.234l9.841-13.268-1.547 8.292 7.63-6.966 7.528 31.893s15.638-16.537 16.5-15.938c6.513 4.528-15.955-35.769-13.523-47.261s-1.979-27.189-15.365-18.012z" class="F"/><g class="E"><path d="M626.502 348.74l-12.672-34.792-9.432 13.125 1.932-11.125-9.496 12.552 4.371-22.552s-7.082 5.419-12.834 6.917-10.184-1.366-10.184-1.366l15.018-6.301 11.92-6.125-.545 11.25 8-4.75-1.375 4.625 5.564-4.375 9.732 13.368v29.549h.001z"/><path d="M642.064 296.716l-.301-2.415s28.338 16.304 44.264 19.357-15.068.619-15.068.619 7.049 8.442 20.601 8.517-24.964 7.646-32.192 4.013.793 9.311 42.785 17.089c14.125 2.616-26.059 1.988-35.911-.312 0 0 .257 4.438 26.903 7.984 16.617 2.212-28.414 2.282-28.414 2.282s9.223 3.637 10.039 3.787-13.23-.618-9.534 3.456-24.048 4.257-30.539 11.868l-.14-15.222-13.658-43.417s13.677-18.941 17.189-20.135"/></g><path d="M611.406 266.206s-17.258 22.117-32.812 30.034c-8.801 4.479 8.608 0 8.608 0l-10.8 11.479 9.939-4.592-8.154 8.372s19.058-2.346 23.936-9.807-.287 17.503-.287 17.503l8.513-11.477-1.339 7.173 6.601-6.025s4.886 16.626 6.731 13.523c3.279-5.511 7.799-13.26 7.616-13.811-.287-.86-3.914-16.565-1.81-26.506s-5.162-23.804-16.742-15.866z" class="F"/><g class="E"><path d="M629.963 394.406l-6.176-30.061s17.848-17.272 22.299-18.583l.302 2.415-.302-2.415s35.084 15.462 54.994 18.02-18.952 1.103-18.952 1.103 8.587 8.251 25.61 7.893-31.609 8.474-40.574 5.058c-8.664-3.303.074 8.483 48.059 15.116v2.498c-11.975.443-32.666.191-39.958-.99 0 0 .182 4.448 33.545 7.156 20.808 1.69-35.771 3.199-35.771 3.199s13.463 3.146 12.49 3.482c-22.516 7.776 8.355 10.858 12.869 14.831s-53.268-3.903-61.668 3.945-17.053 5.051-17.053 5.051l10.286-37.718zm-7.201-120.022l-.412-2.907v20.251s-2.145-14.614-4.887-11.32c-2.034 2.442-5.941 1.695-5.941 1.695l2.273-5.265s1.701-5.59 0 0-10.758 8.902-10.758 8.902 9.096-19.026 5.729-15.014-18.036 1.497-18.036 1.497l12.663-3.759 7.826-6.517 6.547 6.778-1.166 6.251 5.75-3.501"/></g><path d="M618.385 233.384s-21.588 21.167-28.588 26.167 7.5 0 7.5 0l-9.41 10 8.66-4.001-6.5 6.75s16-1.499 20.25-8-.25 15.25-.25 15.25l7.416-9.999-1.166 6.249 5.75-5.249 2.99 16.569s9.76-16.069 9.51-16.819-6.416-14.682-4.584-23.341-1.49-20.492-11.578-13.576z" class="F"/><g class="E"><path d="M626.064 231.304l-7.679 22.19v-9.577l5.846-14.177 1.833 1.564zm3.899 48.436l-.733-5.333-7.876 6.833.996 10.488 3.714-8.661 3.899-3.327zm22.962 79.929l-15.887 6.609s2.543 2.751 5.459 1.624c8.71-3.365 10.428-8.233 10.428-8.233zm5.104-34.792l-16.41 7.898s3.37 1.102 6.286-.024c8.71-3.366 10.124-7.874 10.124-7.874z"/></g><path d="m701.194 198.94-22.853 55.182 12.218-12.98-1.909 20.998 14.319-33.125-1.775-30.075Z" class="F"/><g class="E"><path d="M720 262.385c-.88-.665-1.705-1.493-2.456-2.425l2.456 1.941v.484z"/><path d="M688.65 264.813l10.624-30.864c.894-2.709 3.146-12.309-3.752-5.407-2.672 2.671 6.108-31.309 6.108-31.309s5.126 26.524 18.37 42.567v2.263c-3.926-2.837-9.97-7.793-9.97-7.793l9.97 14.354v3.923l-7.54-1.861s.53 1.475 1.486 3.438c.871 1.79 2.1 3.981 3.598 5.836l-8.659-6.601s-6.109 10.309-2.291 15.653-6.455-2.669-4.963-18.327c.764-8.018-4.583 9.929-7.637 14.128 0 0-.382-5.728 0-7.636s-5.344 7.636-5.344 7.636zm1.909-23.671l-12.218 12.98 12.218-8.018v-4.962zm-.853 9.38l-7.929 15.437 6.873-5.154 1.056-10.283z"/></g><path d="M668.326 396.732s-50.525 36.477-66.935 45.067c-12.37 6.477 17.561 0 17.561 0l-22.03 17.225 20.275-6.891-15.22 11.624s35.061 14.891 46.479-3.603c2.948-4.776-3.475 14.198-3.475 14.198l21.187-15.329-2.73 10.763 13.464-9.041-4.775 22.484s2.778 2.568 9.65.382c7.949-2.527 9.053-9.562 8.781-10.159-.584-1.291.588-38.424 4.88-53.341 4.291-14.912-3.49-35.289-27.112-23.379Z" class="F"/><path d="M648.421 412.754l13.238-11.707 5.44 2.998 3.514 9.139-1.575 5.297 6.374-5.011L720 431.911v8.168l-28.813 35.191-14.812-42.82-11.353.954 3.76-7.585-18.958 23.812 9.544-35.699s-9.896 5.887-16.484 7.604-15.809.298-15.809.298l21.346-9.08z" class="E"/><path d="M668.84 359.67s-23.857 31.713-38.464 40.391c-8.472 5.034 11.4 0 11.4 0l-14.302 15.2 13.162-6.081-9.881 10.259s24.32-2.278 30.779-12.158-.38 23.177-.38 23.177l11.272-15.196-1.772 9.497 8.739-7.979 13.554 36.69s.105-7.525 4.009-14.229c3.363-5.771 9.012-20.918 9.012-20.918-.381-1.139-17.326-24.238-14.541-37.401s-7.253-31.763-22.587-21.252z" class="F"/><g class="E"><path d="M692.585 423.096l-11.086-43.161-12.353 13.217 4.253-13.581-13.077 18.137 5.511-30.162s-8.11 6.207-14.698 7.923-15.811.299-15.811.299l21.346-9.081 12.17-7.016.859 12.886 9.163-5.44-1.575 5.298 6.374-5.012 19.308 12.312-10.384 43.381zm8.475-153.797s4.533-23.19 7.164-24.049l6.867 6.085s1.927 2.298 4.909 5.608v76.912c-5.749.757-13.897 1.353-17.031 5.885-5.346 7.731-9.068 6.014-9.068 6.014l7.159-76.455z"/></g><path d="M678.396 316.617s-15.157 29.299-43.452 39.771c-9.244 3.421 11.4 0 11.4 0l-9.307 9.891c1.427 3.413 16.316-6.608 16.316-6.608l-18.03 16.097s24.319-2.279 30.779-12.158-.381 23.177-.381 23.177l11.273-15.197-1.773 9.498 8.739-7.979 8.623 36.53s17.912-18.942 18.899-18.255c7.46 5.187-18.275-40.97-15.488-54.134s-2.265-31.144-17.598-20.633z" class="F"/><g class="E"><path d="M699.005 379.762l-14.516-39.852-10.804 15.034 2.213-12.743-10.876 14.377 5.006-25.831s-8.111 6.207-14.699 7.923-11.666-1.564-11.666-1.564l17.202-7.218 12.17-7.016.858 12.887 9.163-5.441-1.574 5.298 6.373-5.011 11.149 15.312v33.845h.001z"/><path d="M712.274 317.277l4.556 2.895-.345-2.766 3.515 1.965v82.247c-4.971 1.434-9.384 3.277-11.61 5.888l-.159-17.436-15.646-49.73s15.666-21.695 19.689-23.063z"/></g><path d="M681.714 285.228s-19.769 25.332-37.585 34.4c-10.08 5.129 9.86 0 9.86 0l-12.37 13.147 11.385-5.26-9.341 9.59s21.829-2.688 27.418-11.233-.329 20.049-.329 20.049l9.749-13.146-1.532 8.216 7.56-6.901s5.596 19.043 7.711 15.489c3.757-6.312 8.933-15.188 8.723-15.818-.329-.985-4.483-18.975-2.072-30.36s-5.914-27.268-19.177-18.173z" class="F"/><g class="E"><path d="M702.969 432.068l-7.074-34.432s17.419-16.854 24.105-20.623v89.279c-4.324.642-7.632 1.652-9.279 3.192-9.622 8.991-19.534 5.785-19.534 5.785l11.782-43.201zm-8.25-137.475l-.472-3.33v23.196s-2.455-16.739-5.597-12.967c-2.33 2.798-6.805 1.941-6.805 1.941l2.604-6.03s1.949-6.402 0 0-12.322 10.197-12.322 10.197 10.418-21.793 6.561-17.196-20.658 1.714-20.658 1.714l14.506-4.305 8.964-7.465 7.498 7.765-1.336 7.159 6.586-4.01"/></g><path d="M689.706 247.632s-24.728 24.244-32.745 29.971 8.591 0 8.591 0l-10.777 11.454 9.918-4.581-7.445 7.73s18.327-1.717 23.194-9.162-.286 17.466-.286 17.466l8.495-11.453-1.336 7.158 6.586-6.013 3.425 18.979s11.18-18.406 10.893-19.266-7.349-16.816-5.249-26.736-1.709-23.469-13.264-15.547z" class="F"/><g class="E"><path d="M698.504 245.25l-8.798 25.416v-10.969l6.696-16.239 2.102 1.792zm4.465 55.479l-.839-6.109-9.024 7.826 1.141 12.013 4.257-9.92 4.465-3.81z"/></g><g class="C"><use xlink:href="#B"/><path d="M49.552 42.778v.666c0 1.451 2.25 1.451 2.25 0v-.666c0-1.45-2.25-1.45-2.25 0Z"/><use xlink:href="#C"/><path d="M74.677 49.236c1.451 0 1.451-2.25 0-2.25s-1.45 2.25 0 2.25z"/><use xlink:href="#D"/><use xlink:href="#E"/><path d="M80.01 21.236h.667c1.451 0 1.451-2.25 0-2.25h-.667c-1.45 0-1.45 2.25 0 2.25Z"/><use xlink:href="#F"/><use xlink:href="#G"/><use xlink:href="#H"/><path d="M250.01 21.903c1.451 0 1.451-2.25 0-2.25s-1.451 2.25 0 2.25zm-33.333-5.333c1.451 0 1.451-2.25 0-2.25s-1.451 2.25 0 2.25z"/><use xlink:href="#I"/><path d="M259.542 49.445v.666c0 1.451 2.25 1.451 2.25 0v-.666c0-1.45-2.25-1.45-2.25 0zM454 53.903c1.451 0 1.451-2.25 0-2.25s-1.451 2.25 0 2.25zm-169.333 2c1.451 0 1.451-2.25 0-2.25s-1.451 2.25 0 2.25zm155.871 13.671c.583.57 1.312.944 2.129.996.612.04 1.125-.54 1.125-1.125 0-.643-.513-1.086-1.125-1.125.134.01-.173-.064-.074-.02a2.44 2.44 0 0 1-.323-.193c.155.104-.099-.084-.14-.125-1.038-1.014-2.63.576-1.592 1.592zM339.334 25.237H340c1.451 0 1.451-2.25 0-2.25h-.666c-1.451 0-1.451 2.25 0 2.25zM290 27.903h.667c1.451 0 1.451-2.25 0-2.25H290c-1.451 0-1.451 2.25 0 2.25zm86.209 34.207c.024 1.034.786 1.725 1.791 1.793.612.042 1.125-.543 1.125-1.125 0-.645-.514-1.083-1.125-1.125.246.017.383.189.461.394-.103-.27 0 .146-.002.064-.033-1.448-2.283-1.452-2.25 0zm72.666-31.998c-.004.164.062-.343.016-.126-.034.108-.021.083.037-.075a.514.514 0 0 1 .406-.257c-.611.042-1.125.48-1.125 1.125 0 .582.513 1.167 1.125 1.125 1.005-.068 1.767-.758 1.791-1.792.033-1.452-2.217-1.449-2.25 0zm-42.208 5.125h.667c1.451 0 1.451-2.25 0-2.25h-.667c-1.451 0-1.451 2.25 0 2.25zM460 28.57c1.451 0 1.451-2.25 0-2.25s-1.451 2.25 0 2.25zm-33.333-5.333c1.451 0 1.451-2.25 0-2.25s-1.451 2.25 0 2.25zM260 25.903c.485 0 .995-.032 1.361-.397.385-.385.43-.879.431-1.394.002-1.45-2.248-1.45-2.25 0 0 .084-.053.54.016.17.159-.407.415-.618.768-.634-.107.01-.218.005-.325.005-1.452.003-1.452 2.253-.001 2.25z"/><g class="D"><g class="D"><use xlink:href="#J" class="D"/><path d="M384.667 156.903c1.451 0 1.451-2.25 0-2.25s-1.451 2.25 0 2.25Z" class="D"/><path d="M215.334 158.903c1.451 0 1.451-2.25 0-2.25s-1.451 2.25 0 2.25Z" class="D"/><use xlink:href="#K" class="D"/><path d="M270.001 128.236h.666c1.451 0 1.451-2.25 0-2.25h-.666c-1.451 0-1.451 2.25 0 2.25Z" class="D"/><path d="M220.667 130.903h.667c1.451 0 1.451-2.25 0-2.25h-.667c-1.451 0-1.451 2.25 0 2.25Z" class="D"/><path d="M306.876 165.111c.024 1.033.786 1.724 1.791 1.792.612.042 1.125-.543 1.125-1.125 0-.645-.514-1.083-1.125-1.125.246.017.383.189.461.394-.103-.27 0 .146-.002.064-.033-1.448-2.283-1.452-2.25 0Z" class="D"/><use xlink:href="#L" class="D"/><path d="M337.334 138.236h.667c1.451 0 1.451-2.25 0-2.25h-.667c-1.451 0-1.451 2.25 0 2.25Z" class="D"/><path d="M390.667 131.57c1.451 0 1.451-2.25 0-2.25s-1.451 2.25 0 2.25Z" class="D"/><path d="M357.334 126.236c1.451 0 1.451-2.25 0-2.25s-1.451 2.25 0 2.25Z" class="D"/><path d="M190.667 128.903c.485-.001.995-.032 1.361-.397.385-.385.43-.879.431-1.394.002-1.451-2.248-1.451-2.25 0 0 .084-.053.54.016.17.159-.407.415-.618.768-.634-.107.01-.218.005-.325.005-1.452.002-1.452 2.252-.001 2.25Z" class="D"/></g></g><g class="B"><g class="B"><path d="M231.517 213.215v.666c0 1.451 2.25 1.451 2.25 0v-.666c0-1.451-2.25-1.451-2.25 0Z" class="B"/><use xlink:href="#M" class="B"/><path d="M256.642 219.673c1.451 0 1.451-2.25 0-2.25s-1.452 2.25 0 2.25Z" class="B"/><path d="M412.513 233.344c.583.569 1.312.944 2.129.996.612.039 1.125-.541 1.125-1.125 0-.643-.513-1.086-1.125-1.125.134.009-.173-.064-.074-.02a2.44 2.44 0 0 1-.323-.193c.155.104-.099-.084-.14-.125-1.039-1.014-2.63.576-1.592 1.592Z" class="B"/><path d="M311.309 189.007h.666c1.451 0 1.451-2.25 0-2.25h-.666c-1.452 0-1.452 2.25 0 2.25Z" class="B"/><path d="M261.975 191.673h.667c1.451 0 1.451-2.25 0-2.25h-.667c-1.452 0-1.452 2.25 0 2.25Z" class="B"/><path d="M348.184 225.881c.024 1.033.786 1.724 1.791 1.792.612.042 1.125-.543 1.125-1.125 0-.645-.514-1.083-1.125-1.125.246.017.383.189.461.394-.103-.27 0 .146-.002.064-.034-1.448-2.284-1.452-2.25 0Z" class="B"/><path d="M420.85 193.882c-.004.164.062-.343.016-.126-.034.108-.021.083.037-.075a.514.514 0 0 1 .406-.257c-.611.042-1.125.48-1.125 1.125 0 .582.513 1.167 1.125 1.125 1.005-.068 1.767-.758 1.791-1.792.033-1.452-2.217-1.449-2.25 0Z" class="B"/><path d="M378.642 199.007h.667c1.451 0 1.451-2.25 0-2.25h-.667c-1.452 0-1.452 2.25 0 2.25Z" class="B"/><path d="M431.975 192.34c1.451 0 1.451-2.25 0-2.25s-1.452 2.25 0 2.25Z" class="B"/><path d="M398.642 187.007c1.451 0 1.451-2.25 0-2.25s-1.452 2.25 0 2.25Z" class="B"/><path d="M231.975 189.673c.485-.001.995-.032 1.361-.397.385-.385.43-.879.431-1.394.002-1.451-2.248-1.451-2.25 0 0 .084-.053.54.016.17.159-.407.415-.618.768-.634-.107.01-.218.005-.325.005-1.453.003-1.453 2.253-.001 2.25Z" class="B"/></g><g class="B"><path d="M436.921 188.112v.666c0 1.451 2.25 1.451 2.25 0v-.666c0-1.451-2.25-1.451-2.25 0Z" class="B"/></g><g class="B"><path d="M631.379 192.57c1.451 0 1.451-2.25 0-2.25s-1.451 2.25 0 2.25Z" class="B"/></g><g class="B"><path d="M462.046 194.57c1.451 0 1.451-2.25 0-2.25s-1.451 2.25 0 2.25Z" class="B"/></g><g class="B"><path d="M617.917 208.241c.583.569 1.312.944 2.129.996.612.039 1.125-.541 1.125-1.125 0-.643-.513-1.086-1.125-1.125.134.009-.173-.064-.074-.02a2.44 2.44 0 0 1-.323-.193c.155.104-.099-.084-.14-.125-1.038-1.014-2.63.576-1.592 1.592Z" class="B"/></g><g class="B"><path d="M516.713 163.904h.666c1.451 0 1.451-2.25 0-2.25h-.666c-1.451 0-1.451 2.25 0 2.25Z" class="B"/></g><g class="B"><path d="M467.379 166.57h.667c1.451 0 1.451-2.25 0-2.25h-.667c-1.451 0-1.451 2.25 0 2.25Z" class="B"/></g><g class="B"><path d="M553.588 200.778c.024 1.033.786 1.724 1.791 1.792.612.042 1.125-.543 1.125-1.125 0-.645-.514-1.083-1.125-1.125.246.017.383.189.461.394-.103-.27 0 .146-.002.064-.033-1.448-2.283-1.452-2.25 0Z" class="B"/></g><g class="B"><path d="M626.254 168.779c-.004.164.062-.343.016-.126-.034.108-.021.083.037-.075a.514.514 0 0 1 .406-.257c-.611.042-1.125.48-1.125 1.125 0 .582.513 1.167 1.125 1.125 1.005-.068 1.767-.758 1.791-1.792.033-1.452-2.217-1.449-2.25 0Z" class="B"/></g><g class="B"><path d="M584.046 173.904h.667c1.451 0 1.451-2.25 0-2.25h-.667c-1.451 0-1.451 2.25 0 2.25Z" class="B"/></g><g class="B"><path d="M637.379 167.237c1.451 0 1.451-2.25 0-2.25s-1.451 2.25 0 2.25Z" class="B"/></g><g class="B"><path d="M604.046 161.904c1.451 0 1.451-2.25 0-2.25s-1.451 2.25 0 2.25Z" class="B"/></g><g class="B"><path d="M437.379 164.57c.485-.001.995-.032 1.361-.397.385-.385.43-.879.431-1.394.002-1.451-2.248-1.451-2.25 0 0 .084-.053.54.016.17.159-.407.415-.618.768-.634-.107.01-.218.005-.325.005-1.452.003-1.452 2.253-.001 2.25Z" class="B"/></g></g><g class="D"><g class="D"><path d="M132.797 173.903c1.451 0 1.451-2.25 0-2.25s-1.451 2.25 0 2.25Z" class="D"/><path d="M119.335 189.574c.583.569 1.312.944 2.129.996.612.039 1.125-.541 1.125-1.125 0-.643-.513-1.086-1.125-1.125.134.009-.173-.064-.074-.02a2.44 2.44 0 0 1-.323-.193c.155.104-.099-.084-.14-.125-1.038-1.015-2.63.575-1.592 1.592Z" class="D"/><path d="M18.131 145.236h.666c1.451 0 1.451-2.25 0-2.25h-.666c-1.451 0-1.451 2.25 0 2.25Z" class="D"/><path d="M55.006 182.111c.024 1.033.786 1.724 1.791 1.792.612.042 1.125-.543 1.125-1.125 0-.645-.514-1.083-1.125-1.125.246.017.383.189.461.394-.103-.27 0 .146-.002.064-.033-1.448-2.283-1.452-2.25 0Z" class="D"/><path d="M127.672 150.111c-.004.164.062-.343.016-.126-.034.108-.021.083.037-.075a.514.514 0 0 1 .406-.257c-.611.042-1.125.48-1.125 1.125 0 .582.513 1.167 1.125 1.125 1.005-.068 1.767-.758 1.791-1.792.033-1.451-2.217-1.448-2.25 0Z" class="D"/><path d="M85.464 155.236h.667c1.451 0 1.451-2.25 0-2.25h-.667c-1.451 0-1.451 2.25 0 2.25Z" class="D"/><path d="M138.797 148.57c1.451 0 1.451-2.25 0-2.25s-1.451 2.25 0 2.25Z" class="D"/><path d="M105.464 143.236c1.451 0 1.451-2.25 0-2.25s-1.451 2.25 0 2.25Z" class="D"/></g></g><path d="M134.677 98.861c.968 0 .968-1.5 0-1.5s-.968 1.5 0 1.5zM33.26 88.332v.667c0 .968 1.5.968 1.5 0v-.667c0-.968-1.5-.968-1.5 0z"/></g><g class="N"><path d="M302 103.491l2.338-2.396-2.52 2.058-.123-3.15-.267 3.072-2.375-1.98 2.349 2.345-3.445.299h3.316l-2.22 2.647 2.506-2.451.136 3.541.201-3.516 2.442 2.426-2.233-2.647h3.331l-3.436-.248zM84.72 89.508l2.338-2.397-2.52 2.059-.123-3.15-.268 3.072-2.375-1.981 2.35 2.346-3.445.3h3.316l-2.221 2.645 2.506-2.451.137 3.542.201-3.516 2.442 2.425-2.233-2.645h3.33l-3.435-.249z"/></g><g class="C"><use xlink:href="#N"/><path d="M559.638 38.89c.083 1.189 1.067 1.416 2.083 1.418.968 0 .967-1.5 0-1.5a9.06 9.06 0 0 1-.521-.013c-.269-.016-.074-.07-.062.096-.068-.96-1.568-.966-1.5 0zm112.75 12.75c.839 0 1.282-.305 1.863-.886.685-.685-.376-1.745-1.061-1.061-.151.15-.304.337-.481.448.115-.072-.1.003.01-.006-.109.009-.222.005-.331.005-.968.003-.968 1.503 0 1.5zm36.667 81.334c1.016-.002 2-.229 2.083-1.416.067-.966-1.433-.959-1.5 0 .008-.11.217-.156-.025-.1-.173.04-.382.016-.558.016-.967.001-.968 1.501 0 1.5zm-112.667 55.334h.667c.967 0 .967-1.5 0-1.5h-.667c-.968 0-.968 1.5 0 1.5z"/><use xlink:href="#O"/><path d="M492.388 110.308c.968 0 .968-1.5 0-1.5s-.968 1.5 0 1.5zM657.055 61.64c.967 0 .967-1.5 0-1.5s-.967 1.5 0 1.5zm-35.334 65.334c.967 0 .967-1.5 0-1.5s-.967 1.5 0 1.5zm-13.25 65.917c0-.038.024-.414-.002-.27-.083.225-.219.344-.406.357.107-.01.218-.005.325-.005.968-.002.968-1.502 0-1.5-.379.001-.808-.001-1.097.287-.309.31-.319.719-.32 1.13-.002.968 1.498.967 1.5.001zm86.584-60.583c.967 0 .967-1.5 0-1.5s-.967 1.5 0 1.5zm-220.75 7.25c-.006.094-.207.23-.274.309-.261.301-.366.632-.393 1.024-.065.966 1.435.96 1.5 0 .007-.095.207-.231.274-.31.26-.301.366-.631.393-1.023.065-.966-1.435-.96-1.5 0zM450.388 10.974h.667c.967 0 .967-1.5 0-1.5h-.667c-.968 0-.968 1.5 0 1.5zm13.25 4.584v.667c0 .967 1.5.967 1.5 0v-.667c0-.968-1.5-.968-1.5 0zm182 2.666v.667c0 .967 1.5.967 1.5 0v-.667c0-.967-1.5-.967-1.5 0zm46.083-1.416h-.666c-.967 0-.967 1.5 0 1.5h.666c.967 0 .967-1.5 0-1.5zM455.138 78.891c-.013.187-.544.156-.315.256.145.064.255.168.368.274.705.66 1.769-.398 1.061-1.061-.456-.427-1.039-.82-1.694-.691-.609.12-.879.651-.919 1.222-.069.965 1.431.959 1.499 0zm57.833-63.333c.02.822.619 1.362 1.417 1.417.966.066.96-1.435 0-1.5-.06-.004.073.053.099.119-.076-.2-.015.002-.016-.035-.023-.967-1.523-.97-1.5-.001zm66.084 69.416c.821-.02 1.361-.62 1.416-1.416.065-.966-1.435-.96-1.5 0-.004.059.053-.074.119-.1-.2.076.002.015-.035.016-.966.022-.968 1.522 0 1.5zM719.638 6.89l-.002.232c-.026.27.075.144.306-.381l.379-.103c.344.166.43.18.256.042l-.325-.32c-.685-.684-1.746.376-1.061 1.06.352.352.77.846 1.329.692.565-.156.617-.732.618-1.221.002-.968-1.498-.968-1.5 0zm-11.917 69.418c.967 0 .967-1.5 0-1.5s-.967 1.5 0 1.5zM594.305 16.89v.668c0 .967 1.5.967 1.5 0v-.667c0-.968-1.5-.968-1.5 0zm-186.584 93.418h.667c.968 0 .968-1.5 0-1.5h-.667c-.967 0-.967 1.5 0 1.5zm96-43.334h.667c.968 0 .968-1.5 0-1.5h-.667c-.967 0-.967 1.5 0 1.5zm177.25-20.083c-.004.06.053-.073.119-.099-.2.076.002.015-.035.016-.966.022-.968 1.522 0 1.5.821-.02 1.361-.62 1.416-1.417.065-.966-1.435-.96-1.5 0zm16-32.667c-.004.059.053-.074.119-.1-.2.078.002.016-.035.017-.966.022-.968 1.522 0 1.5.821-.02 1.361-.62 1.416-1.417.065-.966-1.435-.96-1.5 0zm-69.916 112.084h.666c.967 0 .967-1.5 0-1.5h-.666c-.967 0-.967 1.5 0 1.5zM500.388 71.64c.968 0 .968-1.5 0-1.5s-.968 1.5 0 1.5zm131.333-57.332c.967 0 .967-1.5 0-1.5s-.967 1.5 0 1.5zm-181.333 100h1.333c.967 0 .967-1.5 0-1.5h-1.333c-.968 0-.968 1.5 0 1.5zm222-19.334c.821-.02 1.362-.618 1.417-1.416.066-.966-1.435-.96-1.5 0-.004.06.053-.074.118-.1-.2.076.002.015-.035.016-.966.022-.968 1.522 0 1.5zm36.136-46.886c.336.359.335.579 0 .939-.658.706.399 1.77 1.061 1.061.903-.969.904-2.092 0-3.061-.661-.709-1.72.355-1.061 1.061zM613.721 63.64c.363 0 .772-.031.969-.395a.953.953 0 0 0 .114-.421c.002-.068-.003-.045-.014.069-.014.073.088-.096.128-.14.659-.705-.399-1.768-1.061-1.06-.334.357-.507.672-.556 1.154l.103-.378c.218-.405.793-.33.316-.33-.966.004-.967 1.504.001 1.502zM457.857 52.754l.667.667c.685.685 1.745-.376 1.061-1.061l-.667-.667c-.685-.684-1.745.376-1.061 1.06zm174 47.334l.667.666c.685.685 1.746-.377 1.061-1.061l-.667-.666c-.685-.684-1.746.377-1.061 1.061zm-75.469 30.053h-.667c-.967 0-.967 1.5 0 1.5h.667c.967 0 .967-1.5 0-1.5zm121.333 56.167c.967 0 .967-1.5 0-1.5s-.967 1.5 0 1.5zM635.055 49.64h.666c.967 0 .967-1.5 0-1.5h-.666c-.967 0-.967 1.5 0 1.5zm-24.667-9.332c.968 0 .968-1.5 0-1.5s-.968 1.5 0 1.5zm10.199 98.526a30.628 30.628 0 0 1-.409-.104l-.73 1.254.741.297c.898.36 1.285-1.092.398-1.447l-.74-.296c-.728-.291-1.226.757-.729 1.254.34.341.572.364 1.071.489.938.235 1.336-1.212.398-1.447zm27.801-5.193c.968 0 .968-1.5 0-1.5s-.968 1.5 0 1.5z"/></g><path d="m633.68 79.438 2.338-2.396-2.52 2.059-.123-3.151-.268 3.072-2.375-1.98 2.35 2.346-3.445.299h3.316l-2.221 2.646 2.506-2.451.137 3.541.201-3.516 2.442 2.426-2.233-2.646h3.33l-3.435-.249Z" class="N"/><path d="M442.488 400.26c2.921.066 5.064-1.838.386-2.059s-30.591-1.938-30.591-1.938l37.033-1.869c1.416 0-1.355-2.807-6.271-3.088l-41.407-2.371s24.44-3.284 28.385-2.933c4.249.379-31.933-3.42-31.933-3.42l28.824-2.82-25.72-4.021 44.743-7.083-23.75.495-72.002 3.809 24.399 4.733-55.231-1.309 21.373 3.375-106.734 4.286 76.254 4.217s-62.572 2.334-61.242 4.021c1.396 1.767 46.335 4.937 38.587 4.14 0 0 28.896 2.101 14.521 2.867-29.083 1.55-89.994-.711-85.875.771 6.156 2.214 83.23 4.344 83.23 4.344s-43.369 5.758-36.714 5.763 50.56 1.579 50.56 1.579l-22.595 4.553L360 423.973l81.043-7.605-28.386-4.618 29.7-2.372c3.823-.326 4.422-2.226-1.546-2.451s-41.459-5.948-41.459-5.948l43.136-.719z" fill="#4d7087"/><g fill="#608396"><path d="M409.943 403.594c1.872.055 3.246-1.538.247-1.723s-19.61-1.622-19.61-1.622l23.74-1.564c.908 0-.869-2.348-4.021-2.583l-26.544-1.985s15.668-2.747 18.196-2.454c2.724.317-20.471-2.861-20.471-2.861l18.478-2.359-16.487-3.364 28.195-3.315-18.917-1.637H382l-31.228 2.625 15.641 3.963-35.407-1.096 13.701 2.824-68.422 3.587 48.883 3.528s-40.112 1.953-39.26 3.365c.895 1.478 29.703 4.131 24.736 3.464 0 0 18.524 1.758 9.309 2.398-18.644 1.297-57.691-.595-55.05.646 3.946 1.853 53.355 3.635 53.355 3.635s-27.802 4.818-23.536 4.822 32.412 1.321 32.412 1.321l-14.484 3.81 44.414 6.419 51.954-6.364-18.197-3.864 19.04-1.984c2.45-.272 2.834-1.862-.991-2.051s-26.578-4.979-26.578-4.979l27.651-.602z"/><path d="m367.625 373.625 46.933-3.659-20.058 5.909 16.375 3.887L382 378.125l-14.375-4.5Z"/></g><path d="M526.595 456.912h-9.251s-5.264-3.118-5.632-11.928c-.27-6.452.667.843 4.658 4.138 1.945 1.606-1.278-3.161-1.338-11.215-.026-3.537 1.042-7.59 2.799-12.156.608-1.583 5.894 8.809 5.515 19.962 0 0 2.274-7.06 1.788-13.389s-1.826-12.174-1.703-13.146c.263-2.078 9.249 7.792 9.007 22.154s1.461 3.164 2.921.486 4.087-4.43 2.922-8.52c-.486-1.706 2.596 3.264 3.409 11.197.973 9.494-4.87 12.416-4.87 12.416h-10.225v.001z" class="L"/><path d="M536.158 445.213c.521 3.958-.978 8.125-4.062 8.708-.729.138-1.346-1.516-1.5-3.831-.342-5.127-4.604-8.172-3.863-6.335 1.544 3.825-2.143 8.554-2.168 9.668-.542-.463-1.757-1.72-2.386-4.918-.336-1.708-2.667-4.75-2.667-4.75-1.073 2.785-.767 6.259-.235 8.94l-.007-.026c-.025-.127-2.02-.162-4.27-2.579s.917 4.946 4.907 6.835l.521-.013 14.292.051c7.079-4.75 1.176-13.739 1.438-11.75z" opacity=".7" fill="#fce1d9"/><g fill="#0b111e"><path d="M546.014 458.156a2.1 2.1 0 0 1-2.1 2.1h-13.469a2.1 2.1 0 1 1 0-4.199h13.469a2.1 2.1 0 0 1 2.1 2.099zm-18.845 0a2.1 2.1 0 0 1-2.1 2.1H511.6a2.1 2.1 0 1 1 0-4.199h13.469a2.1 2.1 0 0 1 2.1 2.099z"/><path d="M537.181 460.256a2.1 2.1 0 0 1-2.1 2.1h-13.469a2.099 2.099 0 1 1 0-4.199h13.469c1.16 0 2.1.94 2.1 2.099Z"/></g><g class="L"><path d="M570.027 390.5l-14.072 8.167 11.378.166-11.378 9.667 17.212-.994s-16.378 10.839-21.545 12.833c0 0 13.145-2.99 18.405-7.248s5.761-8.066 5.761-8.066l-13.455.396 9.955-9.299-11.788 1.058 9.527-6.68zm22.83 17.006l-4.78 4.162-2.887 8.671 15.435-10.701v12.03l8.94-9.962-7.898 4.607.514-10.893-13.991 10.893 4.667-8.807zm-16.748-28.673s17.363-7.216 18.945-11.932c.725-2.16 3.264 10.112 3.264 15.433 0 1.499 7.016-7.471 7.016-7.471v7.138l5.885-3.876 9.344 22.922L613 375.666l-6.254 2v-6.871l-6.205 4.068-3.81-10.942S585 374.232 576.109 378.833zm68.872 11.667l-10.814 9.224 9.496-.723-7.33 9.666 7.33-1.161-6.625 8.924s8.295-2.596 10.962-5.096l-5.167.5 3.909-6.81-6.242.396 5.333-8.241h-6.166l5.314-6.679zM602.345 336l-1.91 11.75 8.483-10.051-.455 8.218 6.461-4.042 7.123 25.153-4.584-28.405L610 341.5v-7.925l-7.655 8.028V336zm15.405 110.75l-11.301 6.72 14.449-3.38-14.152 12.265 16.016 3.895-11.512-5 13.625-12.875-9.465 1.125 2.34-2.75z" class="G"/><path d="M609.228 411.888l-2.779 27.487 4.5-28.5-1.721 1.013zm18.247 16.284c-.225.203-23.934 14.328-23.934 14.328l20.084-3.125-5.875 7.375 9.325-8.851-15.325 1.476 15.725-11.203zm-43.909-73.339c.101.334-11.899 9.088-11.899 9.088l10.834-2.374-8.5 11.415 13.886-14.075-9.699 1.543 5.378-5.597zm4.321-33.5l-8.549 5.167 4.274-.667-6.263 9.078 12.984-6.411-12.146 13.654c.366-.271 15.646-10.41 15.646-10.41l-5.947 1.831 4.697-7.325-10.917 4.948 4.606-7.292 1.615-2.573zm17.988-21.208l-.75 12.375 7.322-10.25-1.242 7.948 10.149-9.375-7.558 5.177v-6.927l-7.347 6.714-.574-5.662z" class="G"/></g><path d="M500.875 468.75c-.279-.279 56.25 0 56.25 0s7.375 2.375 4.625 2.625-8.25 1.25-8.25 1.25l5.75.625h-24.5s-22.121 1-20.498 0 8.748-2.027 8.748-2.027-19.75-.098-22.125-2.473z" class="M"/><g class="L"><path d="M387.118 395.51c-.072.01-.163.137-.052.333l.012.02c.018-.03.027-.054.04-.08v-.273Z"/><path d="M387.118 395.51v.272c.096-.2.061-.28 0-.272Z"/><path d="M387.078 395.862l.04.071v-.151l-.04.08z"/></g><path d="M234.799 287.72l-1.717 6.667-5.333 2.667-4.589 7.333 4.589 2.667s-29.188 18.666-27.196 18.666 18.23-4 18.23-4l117.181 37.223 8.371-7.626-109.536-63.597z" fill="#805066"/><path d="M578.188 243.193c16.341 0 29.588-13.247 29.588-29.588s-13.247-29.588-29.588-29.588-29.588 13.247-29.588 29.588 13.247 29.588 29.588 29.588Z" fill="#f4dfbb"/><g fill="#e0ceb6"><path d="M588.944 202.963a5.076 5.076 0 1 0 0-10.152 5.076 5.076 0 0 0 0 10.152zm7.571 7.197a2.51 2.51 0 1 0 0-5.021 2.51 2.51 0 0 0 0 5.021zm-10.633 5.702a3.223 3.223 0 1 0 0-6.446 3.223 3.223 0 0 0 0 6.446z"/></g><path d="M416.131 394.658v.387l5.679 63.673-17.416 3.601 11.737-67.661Z" fill="#0b111e"/><path d="M416.131 394.451h-86.583l-1.552 2.413-45.52 70.775 85.072 2.479 48.583-75.667Z" fill="#33242d"/><g fill="#101728"><path d="M367.548 470.118l-45.071 18.844-121.16 1.676 81.159-22.999 85.072 2.479zm81.853-18.588l-12.058 1.73.583 1.26 11.76-2.019-.285-.971z"/></g><path d="M343.045 480.364c-.309.367.219.901.53.529l30.83-36.803-1.336.432-30.024 35.842z" fill="#773d3c"/><path d="M416.095 393.972v-.637c-.086.005-.17.029-.229.1l-42.796 51.088 1.336-.432 14.754-17.611 24.212-28.903 2.441-2.914a2.39 2.39 0 0 0 .242-.338l-.012-.02c-.111-.197-.021-.324.052-.333z" fill="#c16256"/><path d="M446.517 446.449l-1.138-.482 3.606 6.352c.239.42.888.042.648-.379l-3.116-5.491z" fill="#773d3c"/><path d="M416.455 393.511c-.069-.122-.219-.184-.36-.176v.637c.061-.008.096.072 0 .272v.151l6.755 11.896 22.529 39.675 1.138.482-30.062-52.937z" class="L"/><path d="M257.837 473.597c-.323.357.206.89.53.529l52.223-58.044-1.436.476-51.317 57.039z" fill="#542f2a"/><path d="M329.283 394.186l-20.127 22.372 1.436-.476 19.222-21.365c.322-.359-.207-.891-.531-.531z" fill="#7a483f"/><path d="M416.131 394.658l21.795 60.64-16.671 3.42-5.124-64.06z" fill="#6d5867"/><path d="m404.394 462.451-37.25 7.799 48.987-75.667-11.737 67.868Z" fill="#604a58"/><path d="m415.688 395.081-11.295 67.238s-20.541.955-23.708-7.8c.001.001 25.159-27.91 35.003-59.438Z" opacity=".2" fill="#721"/><path d="m416.292 394.451-11.898 67.868s-13.917 0-16.417-5.701c0 0 19.815-30.25 28.315-62.167Z" class="L"/><path d="m420 457.5-12.833-3.98-1.167 5.736 14-1.756Z" fill="#1b243a"/><g transform="translate(362.855 60.813)" class="N"><g transform="translate(-362.855 -60.813)"><path d="m369.085 46.666 3.129-3.207-3.373 2.754-.164-4.213-.36 4.109-3.177-2.65 3.144 3.139-4.611.402h4.437l-2.97 3.541 3.351-3.283.186 4.74.267-4.705 3.27 3.248-2.99-3.541h4.457l-4.596-.334Z"/><path d="m538.9 30 3.129-3.208-3.373 2.754-.164-4.213-.359 4.11-3.178-2.651 3.145 3.139-4.612.402h4.438l-2.971 3.542 3.352-3.284.185 4.741.268-4.706 3.269 3.249-2.99-3.542h4.457L538.9 30Z"/><path d="m487.969 86.884 2.338-2.397-2.52 2.059-.123-3.15-.268 3.072-2.375-1.981 2.35 2.346-3.445.299h3.316l-2.221 2.646 2.506-2.451.137 3.541.201-3.515 2.442 2.425-2.233-2.646h3.33l-3.435-.248Z"/><path d="m558.619 96.625 3.522-3.609-3.795 3.1-.186-4.745-.402 4.627-3.577-2.982 3.539 3.532-5.19.452h4.995l-3.344 3.984 3.774-3.69.205 5.333.304-5.297 3.677 3.654L558.778 97h5.016l-5.175-.375Z"/><path d="m684.611 23.667 3.129-3.208-3.373 2.754-.164-4.213-.359 4.11-3.178-2.651 3.145 3.139-4.612.402h4.438l-2.971 3.542 3.352-3.284.185 4.741.268-4.706 3.269 3.249L684.75 24h4.457l-4.596-.333Z"/><path d="m704.33 90.292 3.522-3.609-3.795 3.1-.186-4.745-.402 4.627-3.577-2.982 3.539 3.532-5.19.452h4.995l-3.344 3.984 3.774-3.69.205 5.333.304-5.297 3.677 3.654-3.363-3.984h5.016l-5.175-.375Z"/><path d="m191.52 80.34 4.11-4.214-4.431 3.619-.216-5.534-.469 5.397-4.178-3.482 4.131 4.125-6.059.527h5.83l-3.902 4.655 4.404-4.315.243 6.229.355-6.182 4.292 4.268-3.927-4.655h5.856l-6.039-.437Z"/><path d="m21.895 35.316 3.29-3.37-3.546 2.894-.173-4.428-.376 4.318-3.342-2.785 3.305 3.3-4.848.421h4.665l-3.122 3.723 3.523-3.45.195 4.981.284-4.944 3.434 3.413-3.143-3.723h4.686l-4.832-.35Z"/></g></g><g transform="translate(522.114 336)"><g fill="#f4dfbb" transform="translate(-522.114 -336)"><path d="M513 297.5c16.5-20.662 2.75-40.194-12-48.5 6.5 7 12 15.907 14 25.407 1 3.5.798 19.781-2 23.093Z" class="B"/><path d="M514.5 423c2.5-5.5 5-14 5-20.5 0-13.5-8-19.5-15-30-14.5-22.5-5.248-43.86 9.752-64.36 14.5-20.5 17.367-39.696-10.752-72.64 5.5 4 33.994 10.412 39.314 25.672 6.686 19.177-5.151 28.151-9.151 39.651-4 10-16.327 19.376-15.327 30.376C519.836 345.699 543.5 349 546 361.5c2.5 14.5-10 26.5-12.5 39.5-2 11.5 6.5 25.5.5 35.5 1.5-6.5 3.5-16.5-3.5-20.5-7-4.5-13.5 3-15 7" class="B"/><path d="M541.329 344.728c-4.954 1.377-11.165-2.29-12.666-4.667-3.532-5.595-5.629-10.877-3.334-16.666 5.335-13.457 20.298-22.765 21.667-31.667-1.333 10.667-9.333 19-14 28-4.333 8.333-3 22.667 8.333 25Z" class="B"/></g></g><clipPath id="P"><path fill="#fff" d="M0 0h720v503.999H0z"/></clipPath></g></svg>