<svg width="512" height="512" viewBox="0 0 512 512" fill="none" xmlns="http://www.w3.org/2000/svg">
<path d="M231.4 83.4999C145.6 96.0999 82 169.3 82 255.5C82 344.6 147.1 417.9 236 428.9C291.1 435.8 350.3 413 386.8 371C438.9 310.9 444.4 224.7 400.5 159C372.8 117.6 328.5 89.9999 279 83.3999C266.1 81.6999 243.6 81.7999 231.4 83.4999ZM288.2 100.9C347.6 113.7 394.1 158.4 409.4 217.1C416.6 244.9 415.4 278.3 406.1 305.9C390.4 352.7 352.7 390.4 305.9 406.1C285.2 413 257.9 415.7 236.3 413C177.1 405.6 126.2 364.4 106.6 308.1C99.9 288.9 98.6 280.2 98.6 256C98.6 237.5 98.9 233.1 100.8 224.4C107.8 192.3 121.2 167.7 144.5 144.5C167.7 121.2 193.4 107.2 223.9 101.1C237.9 98.1999 238.7 98.1999 259.5 98.4999C274.1 98.7999 280.8 99.2999 288.2 100.9Z" fill="#4B4539"/>
<path d="M234.9 115.5C223.4 117.3 215.3 119.5 204.9 123.5C197.8 126.2 186.4 131.4 185.2 132.5C184.9 132.7 214.5 184.5 215.6 185.9C215.8 186.1 219.6 184.6 224.2 182.7C236.7 177.4 241.8 176.5 257 176.6C271.6 176.7 277.6 178 290.1 183.6C293.5 185.2 296.5 186 296.7 185.5C296.9 184.9 303.8 173 311.9 159L326.8 133.5L324.6 131.8C321.6 129.3 302.8 121.6 294 119.1C276.1 114.2 252.8 112.7 234.9 115.5Z" fill="#4B4539"/>
<path d="M170.5 142.4C133 171.1 112.5 214.4 114.3 261.4C115 282 118.9 298.3 127.6 316.9C130.1 322.1 132.2 326.5 132.4 326.7C132.7 327 184.2 297.8 185.9 296.4C186.1 296.2 184.9 292.8 183.2 288.8C178.6 278.2 176.9 270.8 176.3 259C175.1 234.4 184.8 212.3 204.4 195.3L209.2 191.1L194.5 165.6C186.4 151.6 179.3 139.4 178.7 138.6C177.7 137.3 176.6 137.8 170.5 142.4Z" fill="#4B4539"/>
<path d="M328.7 146.3C325.7 151.4 318.7 163.5 313 173.3L302.7 191.1L306.6 194.3C319.6 204.8 328.9 219.5 334.2 238C334.9 240.7 335.4 248.1 335.4 256.5C335.4 269.7 335.2 271.1 332.1 280C330.4 285.2 328 290.9 327 292.7L325.1 295.9L351.7 311.2C366.3 319.6 378.5 326.5 378.9 326.4C380.2 326.3 388.1 309.2 390.9 300.5C396.4 283.3 397.5 276.1 397.4 256C397.4 234.8 395.5 223.7 389.3 207C384.7 194.7 381.6 188.5 374.2 177.5C364.5 162.8 352.7 150.5 338.8 140.5L334.1 137.1L328.7 146.3Z" fill="#4B4539"/>
<path d="M255 184.8C255 185.3 250.7 223.8 245.5 270.4C239.9 320.2 236.2 356.6 236.6 358.6C238.2 367 246.9 374 256 374C265 374 273.8 367 275.4 358.7C275.8 356.8 272 319 266.5 270.5C261.3 223.8 257 185.3 257 184.8C257 184.4 256.6 184 256 184C255.5 184 255 184.4 255 184.8ZM259.3 347.2C264.5 349.9 265.5 355.5 261.5 359.5C258.1 363 252.9 362.9 250.1 359.4C246.6 355 247.6 350 252.5 347.2C255.1 345.7 256.6 345.7 259.3 347.2Z" fill="#4B4539"/>
</svg>
