<svg width="720" height="504" fill="none" xmlns="http://www.w3.org/2000/svg" xmlns:xlink="http://www.w3.org/1999/xlink">
  <defs>
    <path stroke="#7BADDC" stroke-width="2" d="M110 182v23M126 194v23M92 199v23M87 165v23M143 148v23M120 159v23M140 185v23M181 194v23M197 205v24M163 210v23M158 177v23M214 159v23M191 171v23M211 196v23M38 126v23M54 137v23M20 142v23M15 108v23M71 91v23M48 102v24M68 128v23M57 175v24M73 187v23M39 192v23M34 158v23M90 141v23M67 152v23M87 178v23M118 129v23M134 141v23M100 145v23M95 112v23M151 94v24M128 106v23M148 131v24M188 134v23M204 145v23M170 150v23M165 116v23M221 99v23M198 111v23M218 136v23M298 210v23M314 222v23M280 226v23M275 193v23M331 175v24M308 187v23M328 212v24M369 222v23M385 233v23M351 238v23M346 204v23M402 187v23M379 199v23M399 224v23M226 153v24M242 165v23M208 170v23M203 136v23M259 119v23M236 130v23M256 156v23M245 203v23M261 215v23M227 219v23M222 186v23M278 168v24M255 180v23M275 205v24M306 157v23M322 168v24M288 173v23M283 139v24M339 122v23M316 134v23M336 159v23M376 161v24M392 173v23M358 178v23M353 144v23M409 127v23M386 138v23M406 164v23M455 168v24M471 180v23M437 185v23M432 151v23M488 134v23M465 145v23M485 171v23M526 180v23M542 192v23M508 196v23M503 163v23M559 145v23M536 157v23M556 182v23M383 112v23M399 123v23M365 128v23M360 94v24M416 77v23M393 89v23M413 114v23M402 161v24M418 173v23M384 178v23M379 144v23M435 127v23M412 138v23M432 164v23M463 115v23M479 127v23M445 131v24M440 98v23M496 80v24M473 92v23M493 118v23M533 120v23M549 131v24M515 136v23M510 102v24M566 85v23M543 97v23M563 122v23M629 202v23M645 214v23M611 218v23M606 185v23M662 167v23M639 179v23M659 204v23M700 214v23M716 225v23M682 230v23M677 196v23M710 190v24M557 145v23M573 157v23M539 161v24M534 128v23M590 111v23M567 122v23M587 148v23M576 195v23M592 207v23M558 211v23M553 178v23M609 160v23M586 172v23M606 197v23M637 149v23M653 160v23M619 165v23M614 131v24M670 114v23M647 126v23M667 151v23M707 153v24M689 170v23M684 136v23M717 130v23" id="reuse-0"/>
  </defs>
  <g clip-path="url(#a)">
    <path d="M719.922-.036h-720v396.394h720V-.036Z" fill="#FAF3F3"/>
    <path d="M720-.036H-.031V435.83H720V-.036Z" fill="url(#b)"/>
    <path d="M394.599 274.294 463 218.793l36 16.986 47-34.999 72.846 30.826L488 288.429l-93.401-14.135ZM19.348 323.576 141 280.696l38 15.343 68-39.222 63 29.793 32-20.968 79 45.307-210 43.795-170 9.654-21.652-40.822Z" fill="#87B2C4"/>
    <path d="m141 280.696 38 15.412 10 22.988-19.904 1.838L141 280.696ZM247 256.817l83.75 38.102L307 310.424l-20.299 6.33L247 256.817Z" fill="#72A5B2"/>
    <path d="m720 204-135 12.173-85 46.761-148.637 15.036-42.772 28.849-42.178 12.107h-93.862l-77.822 20.538L0 309.856v112.358l720-16.702V204Z" fill="#2F5377"/>
    <path d="M719.809 317.632s-320.555 17.038-394.198 31.062C251.968 362.718.001 397.777.001 397.777l-.079 106.221s143.346-12.642 288.578-21.704c98.407-6.14 145.305-3.687 197-11.84 68.877-10.863 127.33-20.652 135.5-18.935 28.605 6.01 98.882-46.739 98.882-46.739l-.073-87.148Z" fill="#213A1F"/>
    <path d="m357.742 437.003-15.881 3.337-20.22 4.079-116.679 5.598 112-10.536 76.3-10.592-35.52 8.114ZM435.314 394.24l-124.946 4.476-154.307 15.767 149.623-12.02 136.479-8.369M.573 466.996l95.643-.665L58 459.992l192.381 3.602-60.036 10.704-37.241 17.352-118.387 9.379-34.795 2.968.651-37.001ZM719.965 351.009l-78.721 14.249 9.858 2.155-16.376 15.593 85.196-11.903.043-20.094ZM572.049 340.96l-124.946 4.476-154.308 15.767 149.623-12.02 136.48-8.369" fill="#08251D"/>
    <path d="m463 218.793 36 16.986s7.587 23.532 8.309 23.135L500 262.935l-37-44.142Z" fill="#72A5B2"/>
    <path d="m596.554 216.854-91.106 49.397 36.085-.614 55.021-48.783Z" fill="#52768E"/>
    <path d="M449.667 416.943 322 426.731l175.761-24.983L457 396.003l224.47-19.932-87.331 27.915-144.472 12.957Z" fill="#08251D"/>
    <path d="m451.38 424.414-1.319 1.979-8.38-8.443-17.818-25.595 2.111-3.167 13.007 20.674 12.399 14.552ZM427.821 386.417l-1.847 2.771 6.203 6.135 8.387 12.164 11.652 15.674 1.922-2.057s-8.685-12.073-11.068-17.377c-2.383-5.304-3.968-18.366-4.035-23.842-.067-5.476-7.059 3.3-7.059 3.3l5.051 11.295 6.697 13.971-12.406-15.7-3.497-6.334Z" fill="#03190E"/>
    <path d="m448.733 374.054-7.257 3.168s1.621 12.598 3.082 17.681c1.694 5.893 8.119 20.646 8.119 20.646l1.561 3.718 3.035-1.408s-1.254-2.601-2.882-7.543c0 0-1.797-7.067-2.069-10.622-.23-3.005-.048-7.192 1.107-11.513s2.87-8.61 4.211-10.765c1.341-2.155 2.242-5.366 2.242-5.366l-7.653 1.475s2.089.725.441 8.489c-1.648 7.764-4.154 11.81-4.154 11.81l-.045-8.511.262-11.259ZM463.605 372.912l4.898.215-3.843 31.36 6.771-12.448 3.252-17.176 2.507 1.671-4.615 16.077s-5.54 9.743-6.001 13.152c-.461 3.409-.46 11.7-.724 12.381-.264.682-3.013-.197-3.013-.197l.369-26.434.399-18.601ZM462.697 372.688l-2.309.176-1.598 44.863 2.573-.286 1.334-44.753ZM481.369 378.271s-5.976 30.701-6.196 31.603c-.22.902-2.307 13.041-2.505 13.195-.198.154 1.892 1.737 1.892 1.737l5.759-15.505s5.848-12.492 6.836-16.407c.989-3.915 2.857-8.863 2.857-8.863l-3.233-2.155s-.526 7.939-2.197 12.448-6.133 12.492-6.287 12.58c-.154.088 2.241-13.085 2.878-14.471.638-1.386 3.626-12.448 3.626-12.448l-3.43-1.714ZM477.916 377.018l2.045 1.363-5.23 20.717-3.867 22.673-1.517-1.583 3.426-21.871 5.143-21.299ZM492.161 384.873c-.344.338-12.283 31.771-12.377 31.899-.093.128-3.319 9.258-3.319 9.258l1.025.748s5.432-11.348 5.509-11.587c.076-.239 8.982-18.77 10.839-21.046 1.857-2.277 2.15-2.947 2.15-2.947l-3.827-6.325ZM496.247 391.691s-3.652 8.355-5.747 12.77c-2.04 4.3-5.597 10.265-5.901 11.027 0 0-5.738 11.301-5.882 11.516-.144.216.585.98.585.98s8.409-15.192 9.685-16.106c1.276-.913 9.133-11.274 9.571-11.502.438-.228-1.238-7.866-2.311-8.685Z" fill="#03190E"/>
    <path opacity=".47" d="M351.363 277.969 417.5 318.98l73.859-7.314-85.135-39.246-54.861 5.549Z" fill="#244560"/>
    <path d="m719.474 267.293-111.772 34.671-177.369 14.79-99.238 12.945-145.343 40.75 169.915-20.176 253.429-20.574 110.378-8.541v-53.865Z" fill="#1E3F56"/>
    <path d="m427.781 428.94 11.238 3.902.315-2.358-17.532-7.624-1.025-.635a22.59 22.59 0 0 0-.623 2.47l7.627 4.245Z" fill="#0B3D2C"/>
    <path d="m400.529 413.778 19.624 10.919c.16-.84.373-1.664.623-2.47l-19.743-12.221-.504 3.772ZM407.399 410.856l-5.925-4.152-.441 3.301 8.267 2.785 12.405 6.975a19.54 19.54 0 0 1 .839-1.646l-15.145-7.263Z" fill="#154938"/>
    <path d="m425.442 419.508-2.897-1.389c-.302.53-.583 1.078-.839 1.646l.474.266 17.354 8.96.822-2.693s-11.561-6.201-16.67-10.034a29.35 29.35 0 0 0-.786 1.234l2.542 2.01Z" fill="#0B3D2C"/>
    <path d="M408.678 395.908c-2.466-4.89-4.891 6.066-4.891 6.066l9.5 7.927 9.613 7.598c.253-.42.514-.831.786-1.234-.33-.248-.635-.487-.907-.713-4.471-3.717-11.635-14.755-14.101-19.644ZM425.254 397.038c-.861-4.389-1.205-8.995-.948-11.521.258-2.525-.344-5.806-.344-5.806l-6.226 4.687s2.195-.266 4.126 7.431c1.931 7.697 1.458 12.434 1.458 12.434l-3.78-7.625-4.712-10.23-5.127 6.034s6.991 10.604 10.537 14.528c1.377 1.523 3.667 3.706 6.103 5.935a30.51 30.51 0 0 1 3.913-3.59 25.274 25.274 0 0 1-.936-1.451c-1.527-2.596-3.204-6.436-4.064-10.826Z" fill="#154938"/>
    <path d="m436.603 421.952 3.036 2.654 2.107-2.598s-2.269-1.785-5.903-5.509c0 0-3.461-4.079-5.59-7.181a30.443 30.443 0 0 0-3.913 3.59c4.842 4.429 10.263 9.044 10.263 9.044Z" fill="#0B3D2C"/>
    <path d="m432.179 376.891-4.494 1.959 7.815 16.884 4.017 8.511a41.553 41.553 0 0 1 1.896-.658l-9.234-26.696ZM441.48 376.134l-2.986-.399 4.626 16.858-.459 10.614c.522-.15 1.047-.29 1.577-.421-.195-4.455.161-10.182.161-10.182l-2.919-16.47Z" fill="#154938"/>
    <path d="m442.507 406.75-1.094-3.164c-.639.205-1.271.424-1.896.658l7.266 15.397s2.856-.418 2.793-1.147c-.063-.728-3.707-8.175-4.79-11.44-.308-.929-.472-2.499-.549-4.269-.53.131-1.055.271-1.577.421l-.153 3.544ZM443.052 421.222l2.186-1.388-6.856-15.143c-.763.313-1.515.645-2.251 1.004l6.921 15.527Z" fill="#0B3D2C"/>
    <path d="m424.774 380.22 11.356 25.475a38.211 38.211 0 0 1 2.251-1.004l-11.61-25.644-1.997 1.173Z" fill="#154938"/>
    <path d="M458.625 401.494a51.136 51.136 0 0 0-2.684-.08c-.052.909-.1 1.48-.124 1.516-.022.032-.212-.558-.497-1.516a51.14 51.14 0 0 0-2.447.084c.821 3.077 1.394 5.239 1.445 5.471.199.907 3.658 12.729 3.548 12.954-.11.225 2.462.729 2.462.729l-1.639-16.458c-.001 0-.019-1.072-.064-2.7Z" fill="#0B3D2C"/>
    <path d="M452.044 388.666c-.036-1.525-2.212-12.775-2.212-12.775l-3.835-.033s4.492 16.705 6.876 25.64c.814-.047 1.63-.077 2.447-.084-1.02-3.426-3.248-11.556-3.276-12.748ZM457.62 386.451c-.832-3.951-1.328-9.217-1.328-9.217l-3.851-.515s3.015 7.363 3.496 12.147c.363 3.619.165 9.724.004 12.547.895.003 1.79.03 2.684.08-.115-4.219-.405-12.191-1.005-15.042Z" fill="#154938"/>
    <path d="m453.616 418.795 2.059.755-5.251-17.857a47.86 47.86 0 0 0-2.007.264l5.199 16.838Z" fill="#0B3D2C"/>
    <path d="m444.781 376.575-2.436-.326 4.74 21.393 1.332 4.314c.666-.1 1.335-.191 2.007-.264l-1.238-4.21-4.405-20.907ZM463.646 402.028c.003-6.371.097-15.547.527-17.39.668-2.861.636-3.591.636-3.591l-6.217-4c-.105.296 1.169 14.614 2.062 24.599a49.8 49.8 0 0 1 2.992.382Z" fill="#154938"/>
    <path d="M463.646 402.028a51.557 51.557 0 0 0-2.991-.383c.477 5.339.846 9.44.836 9.494-.028.156 1.087 9.775 1.087 9.775l1.249.221s-.106-12.581-.143-12.829c-.013-.088-.039-2.756-.038-6.278Z" fill="#0B3D2C"/>
    <path d="M467.607 402.7c.745-1.381 3.25-14.141 3.544-14.537.293-.396-4.568-6.523-5.893-6.787 0 0 .39 9.11.449 13.997.026 2.142-.077 4.718-.191 6.983.688.135 1.373.28 2.052.443.013-.034.026-.074.039-.099Z" fill="#154938"/>
    <path d="M467.568 402.798a48.573 48.573 0 0 0-2.052-.443c-.14 2.767-.299 5.066-.265 5.516 0 0-.189 12.673-.224 12.93-.034.257.957.624.957.624s.848-16.731 1.584-18.627Z" fill="#0B3D2C"/>
    <path d="M544.23 299.798a31.258 31.258 0 0 0-3.38.817v56.245l3.38-3.38v-53.682Z" fill="#7F574F"/>
    <path d="M540.85 249.894v50.723a30.685 30.685 0 0 1 3.38-.817v-49.905h-3.38v-.001Z" fill="#664039"/>
    <path d="M542.54 249.894h-1.69v50.723a26.015 26.015 0 0 1 1.69-.459v-50.264Z" fill="#995A50"/>
    <path d="M542.54 300.157c-.563.133-1.126.285-1.69.459v56.245l1.69-1.69v-55.014Z" fill="#D09C92"/>
    <path d="m542.854 209.066-10.836 45.238 11.61-.774-12.385 2.128v1.161l12.385-1.161v3.87l-13.352 2.71-4.837 18.769 18.189-3.677-.067 2.729-18.122 3.076-.968 2.709 19.157.774-.774-77.552Z" fill="#7A8956"/>
    <path d="m567.631 287.715-24.003-2.217-.774-76.432 8.514 29.219-6.386-.194 6.773 2.128.536 1.734-6.148-.186 6.386 1.355 6.579 24.38-15.48-1.354v2.128l17.24 4.565 6.763 14.874Z" fill="#505B2E"/>
    <path d="M542.854 288.165v3.869h-19.543l19.543-3.869Z" fill="#7A8956"/>
    <path d="m564.041 288.552-20.413-1.935v1.936l21.422 3.276-1.009-3.277ZM570.764 318.345l-26.686-4.592-.191 1.926 27.882 6.058-1.005-3.392Z" fill="#4E5E47"/>
    <path d="m543.323 261.128-13.539 3.017-.865 3.36 14.481-3.36-.077-3.017Z" fill="#96A364"/>
    <path d="M543.178 243.134v2.186l10.397 1.678-.225-1.203-10.172-2.661Z" fill="#424922"/>
    <path d="m543.145 237.791-7.5 1.623.332-1.344 7.168-1.962v1.683Z" fill="#96A364"/>
    <path d="m543.468 269.691.036 3.531 19.728 4.788-1.314-2.873-18.45-5.446ZM543.178 231.476l6.726 1.783-.206-.704-6.689-2.965.169 1.886Z" fill="#424922"/>
    <path d="m544.23 290.1 24.88 3.756 7.687 23.889-32.567-6.45V290.1Z" fill="#505B2E"/>
    <path d="M544.23 292.778v2.709l27.196 5.566-1.145-3.558-26.051-4.717Z" fill="#424922"/>
    <path d="m542.54 294.824-19.729 1.63-2.468 8.554 22.197-4.392v-5.792ZM542.54 303.922l-22.197 4.744-2.273 4.928 24.47-7.562v-2.11Z" fill="#7A8956"/>
    <path d="M708.778 282.477a31.258 31.258 0 0 0-3.38.817v56.245l3.38-3.38v-53.682Z" fill="#7F574F"/>
    <path d="M705.398 232.573v50.723a30.685 30.685 0 0 1 3.38-.817v-49.905h-3.38v-.001Z" fill="#664039"/>
    <path d="M707.088 232.573h-1.69v50.723a25.843 25.843 0 0 1 1.69-.459v-50.264Z" fill="#995A50"/>
    <path d="M707.088 282.835c-.563.133-1.126.285-1.69.459v56.245l1.69-1.69v-55.014Z" fill="#D09C92"/>
    <path d="m707.401 191.745-10.836 45.238 11.61-.774-12.384 2.128v1.161l12.384-1.161v3.87l-13.351 2.709-4.838 18.769 18.189-3.676-.066 2.729-18.123 3.076-.967 2.708 19.156.775-.774-77.552Z" fill="#7A8956"/>
    <path d="M708.176 250.955v-2.128l11.481 1.004v-14.466l-2.581-9.565-6.385-1.354 6.148.186-.537-1.734-6.772-2.129 6.385.194-8.514-29.218.775 76.431 11.481 1.061v-15.242l-11.481-3.04Z" fill="#505B2E"/>
    <path d="M707.401 270.843v3.87h-19.543l19.543-3.87Z" fill="#7A8956"/>
    <path d="M708.175 269.296v1.935l11.482 1.756v-2.603l-11.482-1.088ZM708.625 296.431l-.191 1.926 11.223 2.439v-2.466l-11.032-1.899Z" fill="#4E5E47"/>
    <path d="m707.871 243.808-13.539 3.016-.866 3.36 14.482-3.36-.077-3.016Z" fill="#96A364"/>
    <path d="M707.725 225.813v2.185l10.397 1.678-.224-1.203-10.173-2.66Z" fill="#424922"/>
    <path d="m707.692 220.47-7.499 1.623.331-1.345 7.168-1.962v1.684Z" fill="#96A364"/>
    <path d="m708.016 252.37.036 3.531 11.605 2.817v-2.911l-11.641-3.437ZM707.725 214.155l6.726 1.782-.205-.703-6.689-2.966.168 1.887Z" fill="#424922"/>
    <path d="M708.778 272.778v21.196l10.879 2.154v-21.707l-10.879-1.643Z" fill="#505B2E"/>
    <g>
      <path d="M708.778 275.457v2.709l10.879 2.226v-2.965l-10.879-1.97Z" fill="#424922"/>
    </g>
    <g>
      <path d="m707.088 277.503-19.729 1.63-2.469 8.554 22.198-4.393v-5.791Z" fill="#7A8956"/>
    </g>
    <g>
      <path d="m707.088 286.601-22.198 4.743-2.272 4.929 24.47-7.562v-2.11Z" fill="#7A8956"/>
    </g>
    <g>
      <path d="m46.114 492.379 9.033 5.01.62-1.97-13.864-9.13-.783-.695a19.592 19.592 0 0 0-.9 2.02l5.894 4.765Z" fill="#030F0B"/>
      <path d="m25.057 475.354 15.163 12.26c.262-.695.566-1.368.9-2.02l-15.07-13.393-.993 3.153Z" fill="#0D3529"/>
      <path d="m31.369 473.876-4.451-4.433-.87 2.758 6.659 3.613 9.574 7.812c.304-.448.626-.875.963-1.284l-11.875-8.466Z" fill="#0D3529"/>
      <path d="m45.516 483.962-2.271-1.619c-.337.408-.66.836-.963 1.284l.366.298 13.512 10.246 1.104-2.181s-8.968-7.024-12.768-11.064c-.292.304-.577.617-.856.939l1.876 2.097Z" fill="#030F0B"/>
      <path d="M34.686 461.279c-1.382-4.55-5.086 4.461-5.086 4.461l6.947 8.194 7.093 7.93c.278-.322.564-.635.856-.939a20.613 20.613 0 0 1-.67-.744c-3.271-3.845-7.758-14.352-9.14-18.902ZM48.698 464.712c-.083-3.883.307-7.874.903-9.996.596-2.122.57-5.018.57-5.018l-6.024 3.083s1.918.099 2.424 6.971-.603 10.854-.603 10.854l-2.1-7.085-2.51-9.452-5.282 4.399s4.403 10.112 6.853 13.996c.95 1.508 2.585 3.716 4.338 5.985a26.555 26.555 0 0 1 3.882-2.489 22.143 22.143 0 0 1-.585-1.381c-.92-2.449-1.783-5.984-1.866-9.867Z" fill="#124934"/>
      <path d="m54.7 487.713 2.204 2.722 2.189-1.909s-1.675-1.865-4.23-5.591c0 0-2.354-4.004-3.713-6.975a26.555 26.555 0 0 0-3.882 2.489c3.48 4.51 7.433 9.264 7.433 9.264Z" fill="#030F0B"/>
      <path d="m57.62 448.507-4.136 1.007 4.173 15.606 2.17 7.878a34.816 34.816 0 0 1 1.72-.281l-3.927-24.21ZM65.689 449.243l-2.495-.786 1.449 15.109-1.972 9.012c.469-.051.939-.093 1.41-.126.497-3.84 1.654-8.686 1.654-8.686l-.046-14.523Z" fill="#124934"/>
      <path d="m62.012 475.587-.465-2.869a35.01 35.01 0 0 0-1.72.281l3.925 14.252s2.505.067 2.56-.565c.055-.632-1.955-7.545-2.396-10.499-.125-.84-.032-2.208.165-3.734-.472.033-.943.075-1.411.126l-.658 3.008Z" fill="#030F0B"/>
      <g>
        <path d="m60.326 488.048 2.076-.862-3.612-13.974c-.7.154-1.392.327-2.075.524l3.61 14.312Z" fill="#030F0B"/>
        <path d="m50.79 450.254 5.925 23.482c.683-.198 1.376-.37 2.075-.524l-6.117-23.664-1.883.706Z" fill="#124934"/>
      </g>
      <g>
        <path d="M76.583 473.488a44.426 44.426 0 0 0-2.284-.468c-.18.77-.306 1.252-.332 1.279-.023.024-.1-.509-.2-1.371-.7-.115-1.403-.211-2.106-.292.245 2.755.413 4.689.422 4.895.035.805 1.236 11.433 1.108 11.609-.128.176 1.998.99 1.998.99l1.046-14.323s.144-.919.348-2.319Z" fill="#030F0B"/>
        <path d="M72.862 461.536c.196-1.31.008-11.258.008-11.258l-3.276-.599s1.357 14.959 2.067 22.957a42.96 42.96 0 0 1 2.106.292c-.362-3.082-1.058-10.369-.905-11.392ZM77.961 460.471c-.124-3.504.236-8.082.236-8.082l-3.218-1.013s1.484 6.747 1.183 10.911c-.228 3.15-1.305 8.343-1.863 10.734.765.136 1.527.292 2.284.468.53-3.627 1.467-10.49 1.378-13.018Z" fill="#124934"/>
      </g>
      <g>
        <path d="m69.724 487.543 1.649.952-1.836-16.057a41.294 41.294 0 0 0-1.756-.073l1.943 15.178Z" fill="#030F0B"/>
        <path d="m68.447 450.112-2.036-.641.872 19.006.498 3.889c.585.013 1.17.035 1.756.073l-.433-3.785-.657-18.542Z" fill="#124934"/>
      </g>
      <g>
        <path d="M80.799 474.692c.95-5.449 2.396-13.286 3.038-14.798.997-2.348 1.079-2.978 1.079-2.978l-4.723-4.347c-.134.238-1.174 12.676-1.895 21.35.84.232 1.675.492 2.5.773Z" fill="#124934"/>
        <path d="M80.799 474.692a43.85 43.85 0 0 0-2.502-.772c-.386 4.638-.681 8.201-.697 8.246-.047.129-.525 8.524-.525 8.524l1.036.375s1.781-10.778 1.786-10.996c.002-.078.376-2.364.902-5.377Z" fill="#030F0B"/>
      </g>
      <g>
        <path d="M84.087 475.857c.842-1.071 4.884-11.613 5.194-11.909.309-.295-2.937-6.26-4.031-6.683 0 0-1.021 7.851-1.698 12.04-.297 1.836-.768 4.025-1.203 5.945.569.217 1.133.444 1.69.685.016-.027.033-.06.048-.078Z" fill="#124934"/>
        <path d="M84.039 475.935a42.929 42.929 0 0 0-1.69-.685c-.532 2.346-1.009 4.289-1.047 4.679 0 0-2.047 10.813-2.115 11.027-.068.215.726.676.726.676s3.214-14.185 4.126-15.697Z" fill="#030F0B"/>
      </g>
    </g>
    <g>
      <path d="m546 200.78 40.449 17.117-24.343 10.871L546 200.78Z" fill="#72A5B2"/>
    </g>
    <g>
      <path d="m118.799 460.402 2.964 5.628s1.837-2.463 1.248-3.298c-.589-.834-4.212-2.33-4.212-2.33ZM157.128 471.671l-3.345 5.41s3.054.334 3.475-.599c.419-.931-.13-4.811-.13-4.811ZM142.926 468.654l-5.352-3.342s1.099 3.831 2.291 4.958c1.193 1.127 5.703.032 3.061-1.616ZM222.837 437.704l4.124-4.962s.812 1.767-.849 3.963c-1.571 2.076-2.423 1.732-3.275.999ZM218.856 453.818s-2.561 4.415-3.113 4.889c-.553.474 3.247.231 3.821-1.292.573-1.522-.541-1.935-.708-3.597Z" fill="#505B2E"/>
      <path d="m143.448 414.001-1.001.008.239 27.447 1.001-.008-.239-27.447Z" fill="#875F58"/>
      <path d="m153.276 484.466.952-.299-16.735-67.955-.971.239 14.842 60.269c-8.336-21.651-20.511-53.333-20.775-54.257l-.974.225c.163.776 21.256 55.536 23.661 61.778Z" fill="#875F58"/>
      <path d="m135.047 424.611-.994.107 1.46 13.514.994-.107-1.46-13.514ZM122.96 427.846l-.817.576 21.118 30.019.818-.575-21.119-30.02ZM149.094 473.414l.622-.784c-1.999-1.589-32.649-34.031-33.465-35.422l-.414.243-.335-.449-.204.401c-.017 1.093 33.456 35.74 33.796 36.011ZM113.323 442.473l-.756.655 36.538 42.131.755-.655-36.537-42.131Z" fill="#875F58"/>
      <path d="m113.871 462.027-.422.908 26.912 12.494.421-.908-26.911-12.494ZM160.464 484.931l.998.051 1.067-20.871-7.59-53.419-.99.142 7.586 53.323-1.071 20.774Z" fill="#875F58"/>
      <path d="m161.306 465.993.976.218c12.98-58.247 12.828-58.484 12.682-58.713l-.421.27-.106.487.105-.489-.496-.001c-.099 1.28-8.377 38.648-12.74 58.228Z" fill="#875F58"/>
      <path d="m161.758 462.156 1-.037-1.007-27.269-1.568-26.709-.999.058 1.568 26.699 1.006 27.258Z" fill="#875F58"/>
      <path d="m169.676 407.083-8.988 26.21.945.324 8.989-26.21-.946-.324ZM146.925 412.893l-.867.5 10.987 19.064.866-.499-10.986-19.065ZM148.982 423.739l-1.217 37.873 1 .032 1.216-37.873-.999-.032ZM155.401 457.392l-2.915 24.874.993.116 2.915-24.874-.993-.116ZM177.692 408.17l-1.088 78.826 1 .014 1.088-78.826-1-.014ZM169.802 486.231l1-.017c-.479-27.475-1.137-41.683-1.954-42.23l-.501-.056.366.931c-.257.099-.489-.058-.54-.17.688 1.474 1.351 25.651 1.629 41.542ZM190.633 420.702l-7.713 12.918.859.513 7.713-12.918-.859-.513Z" fill="#875F58"/>
      <path d="m174.646 434.208-5.235 41.754.992.124 5.235-41.753-.992-.125ZM185.999 492.231l3.033-32.604-.996-.093-2.264 24.326-4.34-29.4 5.405-46.219-.993-.117-5.411 46.416 5.566 37.691Z" fill="#875F58"/>
      <path d="m186.822 435.48-.978.208 8.276 38.997.978-.207-8.276-38.998Z" fill="#875F58"/>
      <path d="m193.258 492.333 11.067-31.022.007-.051 6.496-47.098-.991-.136-6.488 47.047-8.764 24.565 3.7-76.093-.999-.048-4.028 82.836Z" fill="#875F58"/>
      <path d="m217.671 418.894-11.737 25.521.909.418 11.736-25.521-.908-.418ZM203.424 412.97l-8.451 43.956.982.189 8.451-43.956-.982-.189ZM200.216 489.885c6.521-13.534 17.47-36.323 17.537-36.892l-.994-.115.497.057-.483-.126c-.329 1.018-12.713 26.796-17.457 36.642l.9.434ZM221.193 423.171l-23.514 65.469.941.338 23.514-65.469-.941-.338Z" fill="#875F58"/>
      <path d="m214.475 473.801-12.133 9.502.617.788 12.133-9.503-.617-.787Z" fill="#875F58"/>
      <path d="m126.613 436.306-5.352-3.342s1.099 3.831 2.291 4.958c1.192 1.127 5.702.032 3.061-1.616ZM177.737 424.11l-4.359-2.722s.894 3.121 1.866 4.038c.972.917 4.644.026 2.493-1.316ZM169.056 455.814l-2.9-4.243s-.432 3.217.089 4.447c.523 1.23 4.245 1.888 2.811-.204ZM190.014 423.571l4.124-4.962s.812 1.767-.849 3.963c-1.571 2.077-2.423 1.732-3.275.999ZM200.061 440.218l4.124-4.962c-.779-.053-1.875 1.584-.849 3.963 1.032 2.391-2.422 1.732-3.275.999ZM190.926 441.431l-1.275 7.275s3.736-.948 3.9-3.08c.164-2.132-2.625-4.195-2.625-4.195ZM151.291 429.465s-1.22 6.573-1.692 7.399c-.474.827 4.107-1.142 4.146-3.272.038-2.131-1.518-2.152-2.454-4.127ZM151.916 445.263s-2.347 6.26-2.957 6.992c-.61.731 4.244-.408 4.653-2.5.409-2.092-1.12-2.384-1.696-4.492ZM117.931 451.118s3.766 2.755 4.402 2.948c.636.193-2.633 1.385-3.671.322-1.04-1.063-.259-1.819-.731-3.27ZM163.024 431.572s-.626 4.623-.928 5.216c-.302.591 2.824-.936 2.778-2.423-.045-1.487-1.131-1.448-1.85-2.793ZM166.01 464.899s2.015 4.208 2.484 4.679c.469.471-2.975-.024-3.387-1.452-.414-1.429.632-1.725.903-3.227ZM132.611 418.386s3.766 2.755 4.402 2.948c.636.193-2.633 1.385-3.671.322-1.041-1.064-.26-1.82-.731-3.27ZM164.434 411.147s.422 4.647.698 5.252c.275.604-2.78-1.061-2.669-2.542.111-1.483 1.194-1.397 1.971-2.71ZM184.199 454.255s-1.792 4.78-2.258 5.339c-.466.558 3.241-.312 3.553-1.909.313-1.597-.854-1.819-1.295-3.43ZM208.334 445.001s-1.841 3.173-2.238 3.514c-.397.341 2.334.166 2.746-.928.412-1.095-.388-1.391-.508-2.586ZM212.481 418.98s-1.908 3.288-2.319 3.642c-.412.353 2.419.172 2.846-.963.427-1.135-.402-1.442-.527-2.679ZM170.683 477.687s2.31-3.926 2.201-6.16c-.109-2.235 2.911 2.544 1.423 4.723-1.49 2.18-3.016 1.508-3.624 1.437ZM195.146 466.121s2.941-3.478 3.212-5.698c.272-2.221 2.438 3 .603 4.896-1.837 1.896-3.228.975-3.815.802Z" fill="#505B2E"/>
      <path d="m227.479 426.696-21.39 38.589.874.484 21.391-38.589-.875-.484ZM235.551 432.138l-28.521 46.79.854.52 28.52-46.789-.853-.521ZM114.803 471.754l-.381.925 26.089 10.738.381-.925-26.089-10.738Z" fill="#875F58"/>
    </g>
    <g>
      <path d="m547.678 365.264-.622 1.527-6.86-4.574-15.643-14.916.995-2.443 11.695 12.24 10.435 8.166Z" fill="#05180F"/>
      <path d="m526.419 342.721-.871 2.138 5.062 3.307 7.38 7.1 10.083 9.031 1.02-1.663s-7.57-6.997-9.922-10.269c-2.352-3.272-5.237-11.924-6.041-15.633-.804-3.709-4.337 3.218-4.337 3.218l4.993 6.971 6.482 8.561-10.598-8.945-3.251-3.816Z" fill="#05180F"/>
      <path d="m538.909 331.43-4.49 3.156s2.844 8.331 4.54 11.581c1.966 3.768 8.372 12.897 8.372 12.897l1.575 2.309 1.866-1.376s-1.211-1.593-3.001-4.723c0 0-2.199-4.551-2.875-6.927-.572-2.009-1.028-4.878-.842-7.972.186-3.094.757-6.244 1.37-7.894.612-1.649.78-3.955.78-3.955l-4.993 2.061s1.519.203 1.475 5.704c-.045 5.5-1.186 8.596-1.186 8.596l-1.209-5.773-1.382-7.684ZM548.851 328.596l3.356-.532 1.731 21.829 2.875-9.391-.169-12.115 1.934.788-.909 11.557s-2.414 7.384-2.255 9.762c.159 2.379 1.307 8.009 1.223 8.509-.085.5-2.073.283-2.073.283l-3.408-18.003-2.305-12.687ZM548.203 328.57l-1.544.439 5.126 30.688 1.707-.551-5.289-30.576ZM561.656 329.776s.191 21.677.167 22.32c-.024.643.239 9.176.126 9.308-.113.132 1.525.918 1.525.918l1.765-11.327s2.242-9.293 2.372-12.088c.13-2.795.714-6.415.714-6.415l-2.494-1.016s.742 5.464.231 8.757c-.51 3.293-2.436 9.333-2.528 9.414-.092.081-.29-9.197-.048-10.226.241-1.029.74-8.955.74-8.955l-2.57-.69ZM559.138 329.403l1.578.643-.685 14.793.513 15.933-1.25-.865-.7-15.327.544-15.177ZM569.899 332.766c-.187.277-3.944 23.276-3.989 23.376-.046.1-.972 6.747-.972 6.747l.8.366s2.118-8.459 2.137-8.631c.019-.173 3.501-13.99 4.448-15.793.946-1.803 1.052-2.299 1.052-2.299l-3.476-3.766ZM573.618 336.83s-1.324 6.179-2.135 9.468c-.79 3.203-2.38 7.746-2.481 8.306 0 0-2.333 8.469-2.4 8.635-.068.166.533.585.533.585s3.608-11.482 4.348-12.279c.74-.797 4.642-8.921 4.907-9.136.265-.215-1.93-5.171-2.772-5.579Z" fill="#05180F"/>
    </g>
    <g>
      <path d="m636.896 362.598 1.871 4.6s1.617-1.772 1.223-2.467c-.394-.693-3.094-2.133-3.094-2.133ZM665.812 374.297l-3.015 3.947s2.348.494 2.746-.198c.397-.692.269-3.749.269-3.749ZM655.009 370.862l-3.902-3.007s.56 3.061 1.4 4.028c.839.967 4.428.462 2.502-1.021ZM719.474 352.949c.161.169.326.313.505.41v-.909l-.505.499ZM715.144 365.165s-2.329 3.234-2.794 3.56c-.466.326 2.505.429 3.068-.711.562-1.139-.272-1.546-.274-2.849ZM658.82 328.321l-1.92 21.344.778.07 1.92-21.344-.778-.07Z" fill="#875F58"/>
      <path d="m661.836 383.942.763-.159-7.786-54.084-.773.111 6.905 47.967c-4.814-17.462-11.842-43.014-11.976-43.751l-.774.1c.067.615 12.252 44.782 13.641 49.816Z" fill="#875F58"/>
      <path d="m652.291 336.078-.781.007.097 10.613.781-.007-.097-10.613ZM642.642 337.618l-.679.383 14.105 24.946.679-.384-14.105-24.945ZM659.436 375.034l.544-.561c-1.431-1.388-22.755-28.948-23.282-30.091l-.34.157-.226-.375-.189.296c-.098.847 23.25 30.337 23.493 30.574ZM633.979 348.237l-.638.451 25.153 35.538.638-.451-25.153-35.538Z" fill="#875F58"/>
      <path d="m632.937 363.486-.397.672 19.951 11.773.397-.672-19.951-11.773ZM667.385 384.856l.773.115 2.431-16.133-1.797-42.089-.78.034 1.801 42.014-2.428 16.059Z" fill="#875F58"/>
      <path d="m669.494 370.205.742.244c14.557-44.26 14.457-44.456 14.361-44.645l-.348.177-.12.371.119-.372-.385-.039c-.175.988-9.476 29.386-14.369 44.264Z" fill="#875F58"/>
      <path d="m670.139 367.259.78.048 1.312-21.265.832-20.873-.781-.031-.831 20.865-1.312 21.256Z" fill="#875F58"/>
      <path d="m680.542 325.113-8.998 19.674.71.324 8.998-19.674-.71-.324ZM662.392 327.844l-.712.322 7.073 15.656.712-.322-7.073-15.656ZM663.147 336.411l-3.852 29.334.775.101 3.852-29.333-.775-.102ZM665.557 363.101l-4.175 19.101.763.167 4.175-19.101-.763-.167ZM686.676 326.55l-6.9 61.163.776.088 6.9-61.163-.776-.088ZM674.541 386.583l.778.064c1.737-21.385 2.317-32.474 1.724-32.962l-.385-.082.213.752c-.207.057-.375-.082-.406-.174.422 1.197-.92 20.033-1.924 32.402ZM695.785 337.281l-6.986 9.445.628.465 6.985-9.445-.627-.465Z" fill="#875F58"/>
      <path d="m682.283 346.504-7.271 32.041.762.173 7.271-32.041-.762-.173ZM686.665 392.488l4.861-25.1-.767-.149-3.627 18.728-1.115-23.178 7.748-35.496-.762-.166-7.769 35.648 1.431 29.713Z" fill="#875F58"/>
      <path d="m691.673 348.481-.776.086 3.437 30.938.775-.087-3.436-30.937Z" fill="#875F58"/>
      <path d="m692.298 393.124 10.98-23.253.01-.039 8.663-36.096-.759-.182-8.654 36.056-8.695 18.414 8.717-58.838-.773-.115-9.489 64.053Z" fill="#875F58"/>
      <path d="m716.934 337.899-11.078 18.931.674.394 11.078-18.93-.674-.395ZM706.269 332.217l-9.939 33.506.747.221 9.94-33.505-.748-.222ZM697.892 391.757c6.106-10.015 16.363-26.881 16.458-27.318l-.763-.165.382.083-.366-.135c-.333.765-11.935 19.844-16.377 27.13l.666.405ZM719.33 341.541l-23.298 49.065.705.335 23.242-48.946v-.146l-.649-.308ZM719.979 341.849v.146l.057-.119-.057-.027Z" fill="#875F58"/>
      <path d="m710.198 380.325-10.157 6.452.418.66 10.157-6.453-.418-.659ZM644.817 344.476l-3.902-3.007s.56 3.061 1.4 4.028c.84.966 4.428.462 2.502-1.021ZM685.476 338.925l-3.178-2.45s.455 2.494 1.14 3.28c.684.788 3.607.377 2.038-.83ZM676.297 362.892l-1.927-3.519s-.583 2.467-.272 3.462c.311.995 3.153 1.792 2.199.057ZM695.056 339.448l3.585-3.539s.495 1.435-.964 3.014c-1.379 1.494-2.015 1.161-2.621.525ZM701.585 353.154l3.585-3.539s.495 1.435-.964 3.014c-1.379 1.493-2.015 1.16-2.621.525ZM694.394 353.395l-1.549 5.555s2.976-.449 3.267-2.094c.29-1.644-1.718-3.461-1.718-3.461ZM664.517 341.055s-1.453 5.014-1.883 5.619c-.432.606 3.279-.572 3.472-2.224.193-1.653-1.014-1.788-1.589-3.395ZM663.79 353.378s-2.304 4.684-2.834 5.205c-.53.521 3.329.009 3.807-1.585.478-1.594-.688-1.938-.973-3.62ZM636.935 355.318s2.714 2.429 3.194 2.629c.479.198-2.152.874-2.877-.032-.728-.906-.063-1.434-.317-2.597ZM673.472 343.593s-.841 3.544-1.121 3.981c-.28.436 2.266-.511 2.344-1.669.078-1.159-.768-1.212-1.223-2.312ZM673.233 369.717s1.243 3.425 1.571 3.826c.328.402-2.31-.247-2.52-1.388-.212-1.143.623-1.292.949-2.438ZM650.853 331.012s2.714 2.429 3.194 2.629c.479.198-2.152.874-2.877-.032-.727-.906-.062-1.433-.317-2.597ZM676.135 327.832s-.029 3.643.139 4.134c.168.491-2.079-1.038-1.879-2.18.201-1.145 1.035-.994 1.74-1.954ZM688.183 362.843s-1.759 3.576-2.164 3.975c-.405.398 2.542.006 2.907-1.211.365-1.216-.525-1.479-.743-2.764ZM707.646 357.506s-1.674 2.324-2.009 2.559c-.335.234 1.801.308 2.205-.51.404-.82-.195-1.112-.196-2.049ZM712.865 337.606s-1.735 2.408-2.081 2.652c-.347.242 1.866.319 2.286-.53.418-.849-.202-1.151-.205-2.122ZM675.882 380.011s2.096-2.873 2.183-4.617c.087-1.745 2.067 2.2.743 3.779-1.325 1.58-2.459.94-2.926.838ZM695.777 372.903s2.552-2.477 2.933-4.181c.382-1.705 1.664 2.518.093 3.85-1.573 1.333-2.583.511-3.026.331ZM704.351 373.097l.643.444 14.985-21.687v-1.374l-15.628 22.617Z" fill="#875F58"/>
      <path d="m704.011 383.778.623.471 15.345-20.356v-1.297l-15.968 21.182Z" fill="#875F58"/>
      <g>
        <path d="m632.922 371.13-.367.69 19.447 10.346.366-.689-19.446-10.347Z" fill="#875F58"/>
      </g>
    </g>
    <g>
      <path d="m483.118 416.272 4.763-2.005v-29.329l-2.381-5.515v-58.407h-1.379l-1.003 95.256Z" fill="#D09C92"/>
      <path d="M483.807 377.355c-24.113-30.896-31.677-74.019-31.388-75.464l.738.134c-.189 1.945 7.501 44.451 31.241 74.869l-.591.461ZM487 386.38c-.005-.332-.239-33.491 22.142-62.835l.596.455c-22.217 29.13-21.992 62.039-21.987 62.368l-.751.012ZM484.377 330.831c-1.485-14.23-6.483-24.31-10.312-28.618-2.379-2.676-6.201-5.605-9.898-8.438-4.13-3.165-8.4-6.438-10.674-9.379-4.272-5.529-6.259-19.152-6.341-19.729l.742-.105c.021.139 2.041 14.004 6.192 19.376 2.214 2.865 6.444 6.107 10.536 9.242 3.725 2.855 7.577 5.807 10.003 8.536 3.903 4.392 8.994 14.631 10.498 29.038l-.746.077Z" fill="#D09C92"/>
      <path d="M478.565 315.472c-7.741 0-13.029-6.938-13.087-7.016l.6-.449c.062.082 6.283 8.234 14.964 6.463l.15.734c-.902.185-1.779.268-2.627.268ZM485.123 323.286l-.746-.072c1.381-14.364 8.325-103.354 8.395-104.252l.748.059c-.071.897-7.015 89.894-8.397 104.265Z" fill="#D09C92"/>
      <path d="M488.689 272.535c-.138-.13-3.423-3.289-7.909-12.52-4.49-9.238-5.756-34.905-5.808-35.993l.75-.035c.012.265 1.31 26.601 5.731 35.7 4.415 9.084 7.718 12.271 7.751 12.303l-.515.545Z" fill="#D09C92"/>
      <path d="m483.474 263.83-.711-.236c1.219-3.654-.007-43.189-.02-43.588l.75-.023c.051 1.634 1.241 40.068-.019 43.847ZM486.907 295.221c-.207-.154-5.144-3.887-11.87-13.852-6.748-9.996-9.519-50.843-9.633-52.577l.748-.05c.028.423 2.871 42.377 9.506 52.207 6.646 9.844 11.647 13.633 11.697 13.67l-.448.602Z" fill="#D09C92"/>
      <path d="M472.601 275.777c-17.005-11.004-18.917-33.965-18.935-34.196l.748-.057c.017.227 1.906 22.824 18.595 33.624l-.408.629Z" fill="#D09C92"/>
      <path d="M467.234 271.232c-14.617-5.274-17.051-17.955-17.073-18.082l.738-.133c.022.123 2.394 12.388 16.589 17.51l-.254.705ZM492.479 357.237l-.047-.748c.16-.011 16.197-1.255 28.72-21.88l.641.389c-12.739 20.981-29.15 22.229-29.314 22.239ZM472.402 358.468l-.746-.084c2.955-26.353-2.844-37.079-2.902-37.185l.654-.367c.245.437 5.981 10.999 2.994 37.636Z" fill="#D09C92"/>
      <path d="m473.208 343.072-.66-.357c4.581-8.46 4.156-20.506 3.413-21.4l.401-.627c1.352.735 1.417 13.938-3.154 22.384ZM476.259 304.866c-.442-12.688-7.418-23.144-7.488-23.248l.621-.42c.071.105 7.167 10.74 7.617 23.643l-.75.025ZM485.018 339.984l-.535-.525c.288-.294 28.872-29.781 30.6-63.584l.748.039c-1.742 34.089-30.523 63.774-30.813 64.07ZM486.438 307.912l-.721-.209c.023-.08.073-.323.153-.708 2.125-10.216 7.171-28.453 17.078-35.812 12.021-8.93 16.698-32.64 12.702-47.078l.723-.2c4.06 14.667-.725 38.777-12.978 47.879-7.195 5.346-13.158 17.904-16.791 35.364-.085.417-.141.679-.166.764ZM489.297 264.087l-.001-.75c.177-.001 17.638-.555 17.638-41.337h.75c0 41.609-17.636 42.087-18.387 42.087Z" fill="#D09C92"/>
      <path d="M498.32 258.226c-6.009-12.266 1.699-24.77 1.777-24.895l.635.399c-.076.121-7.561 12.281-1.738 24.165l-.674.331ZM509.741 263.931c-.214-.297-5.183-7.422-.653-19.75l.703.259c-4.383 11.931.51 18.985.56 19.054l-.61.437ZM491.117 297.834c-1.508 0-2.456-.305-2.531-.33l.236-.712c.033.012 3.462 1.097 7.745-1.075 5.232-2.65 9.443-8.77 12.516-18.185l.713.232c-3.142 9.628-7.487 15.897-12.915 18.635-2.263 1.141-4.283 1.435-5.764 1.435ZM486.507 315.515c-.644 0-1.028-.04-1.05-.042l.085-.746c.03.006 3.042.326 6.517-.856 4.635-1.579 7.859-4.95 9.583-10.021l.711.242c-3.571 10.498-12.736 11.423-15.846 11.423ZM503.884 315.243c-.576 0-.92-.021-.941-.022l.051-.748c.142.007 13.824.828 15.981-8.582l.73.168c-1.954 8.521-12.575 9.184-15.821 9.184ZM513.474 257.173l-.052-.748c.428-.03 10.478-.848 11.438-10.666l.746.073c-1.022 10.455-12.021 11.333-12.132 11.341ZM512.778 297.527c-.996 0-1.647-.203-1.699-.221l.229-.714c.021.008 2.269.694 4.803-.683 2.682-1.458 4.701-4.599 6.002-9.336l.723.199c-1.359 4.952-3.508 8.251-6.385 9.806a7.7 7.7 0 0 1-3.673.949ZM460.062 331.164c-11.75-1.519-15.373-14.183-15.408-14.311l.723-.199c.034.123 3.531 12.312 14.781 13.766l-.096.744ZM456.02 318.342l-.044-.748c.018-.001 1.725-.125 2.973-1.629 1.169-1.41 1.586-3.55 1.237-6.361l.744-.092c.376 3.033-.101 5.369-1.415 6.945-1.462 1.751-3.413 1.881-3.495 1.885ZM460.065 350.041a8.03 8.03 0 0 1-1.166-.083c-2.77-.398-5.204-2.225-7.235-5.429l.633-.402c1.907 3.009 4.163 4.721 6.703 5.088 3.933.564 7.241-2.292 7.274-2.321l.494.564c-.131.115-2.991 2.583-6.703 2.583ZM510.853 347.33c-3.062-6.796 2.069-14.188 2.289-14.499l.613.433c-.052.073-5.103 7.356-2.219 13.758l-.683.308ZM451.942 284.693c-5.056 0-8.205-3.408-9.235-5.424-.324-.633-.624-1.474-.213-1.886l.531.531a.12.12 0 0 0 .026-.038c-.066.193.229 1.227 1.321 2.519 1.097 1.3 4.205 4.231 9.356 3.401l.119.74c-.66.108-1.296.157-1.905.157ZM511.261 271.252c-3.256 0-5.503-1.785-5.61-1.872l.472-.583c.028.022 2.795 2.208 6.48 1.594 3.119-.52 5.996-2.834 8.552-6.88l.635.4c-2.679 4.24-5.731 6.67-9.075 7.221-.504.083-.989.12-1.454.12Z" fill="#D09C92"/>
    </g>
    <g>
      <path d="M719.922 371.103v132.894h-720s98.888-29.69 127.403-24.287c28.515 5.403 195.446-29.719 212.673-36.743 17.227-7.024 168.713-35.122 197.228-35.662 28.514-.54 152.673-38.253 182.696-36.202Z" fill="#6A682D"/>
    </g>
    <g>
      <path d="m605.334 177.377-16.282 8.85-3.948 16.022 20.23-10.183v-14.689ZM605.334 196.186l-21.594 11.596-.797 3.809 22.391-13.435v-1.97Z" fill="#062619"/>
      <path d="m605.334 199.814-23.218 14.554-3.306 13.408 26.524-13.095v-14.867Z" fill="#0A3F27"/>
      <path d="m605.334 214.19-.445 11.016-28.161 11.017 2.082-8.447 26.524-13.586Z" fill="#0C1905"/>
      <path d="m604.761 225.192-.139 13.246-31.193 11.168 3.299-13.383 28.033-11.031ZM604.761 243.677l-32.759 11.72-12.424 50.483 44.688-18.808.495-43.395Z" fill="#0A3F27"/>
      <path d="m604.266 287.071-.041 5.44-46.025 19.246 1.378-5.878 44.688-18.808Z" fill="#103126"/>
      <path d="M604.225 292.511v22.336l-47.427 2.35 1.375-5.49 46.052-19.196Z" fill="#0C1905"/>
      <path d="M604.225 314.847v9.64l-53.224 16.362 5.968-23.785 47.256-2.217Z" fill="#134727"/>
      <path d="m603.964 328.158-54.56 18.854-3.603 15.244 58.055-19.363.108-14.735Z" fill="#062619"/>
      <path d="M603.05 397.761h3.762l-1.076-272.51h-.805l-1.881 272.51Z" fill="#87554E"/>
      <path d="m605.334 290.727 46.2 16.97 5.658 20.461-51.765-22.699-.093-14.732ZM605.334 169.048v4.03l-15.047 7.545 1.867-6.943 13.18-4.632Z" fill="#062619"/>
      <path d="m605.334 146.449-8.124 6.752-3.913 15.847 12.037-2.777v-19.822Z" fill="#0A3F27"/>
      <path d="m605.334 140.477-6.133 4.657-1.39 5.631 7.523-7.064v-3.224Z" fill="#062619"/>
      <path d="M605.322 308.246v15.971l58.146 32.555-5.852-24.263-52.294-24.263Z" fill="#134727"/>
      <path d="m605.334 140.477 6.133 4.657 1.39 5.631-7.523-7.064v-3.224Z" fill="#020D0C"/>
      <path d="m599.875 142.404 5.459-4.077v-17.913l-5.459 21.99ZM610.837 142.404l-5.458-4.077-.045-17.913 5.503 21.99ZM605.334 154.531l-1.261 90.28 35.91 21.869-26.162-112.041-8.487-8.19v8.082Z" fill="#062619"/>
      <path d="M604.266 232.312v5.99l34.179 20.032-3.291-13.368-30.888-12.654Z" fill="#134727"/>
      <path d="M604.266 210.717v1.63l25.694 12.075-1.222-4.956-24.472-8.749ZM622.281 189.199l1.008 3.836-17.955-7.866v-1.254l16.947 5.284Z" fill="#0C1905"/>
      <path d="m605.503 167.24-.325.946 12.819 4.407.325-.946-12.819-4.407Z" fill="#87554E"/>
      <path d="m616.95 167.192-7.951 1.338.166.986 7.951-1.338-.166-.986ZM605.518 145.156l-.338.368 6.628 6.09.339-.368-6.629-6.09ZM605.183 139.423l-3.045 2.06.28.414 3.046-2.06-.281-.414ZM604.549 175.23l-13.31 6.896.46.888 13.31-6.897-.46-.887Z" fill="#87554E"/>
      <path d="M600.318 177.504h-3.493v1h3.493v-1Z" fill="#87554E"/>
      <path d="M605.334 245.823v41.249l45.768 17.056-8.827-34.084-36.941-24.221ZM605.334 322.794v36.1l66.747 28.034-8.613-30.156-58.134-33.978Z" fill="#062619"/>
      <path d="M603.428 343.034v20.84l-61.237 16.604 3.61-18.222 58.055-19.363" fill="#134727"/>
      <path d="M605.334 362.87v9.805l68.92 24.224-2.173-7.254-66.747-26.775Z" fill="#062619"/>
      <path d="M603.856 365.987v9.805l-64.621 21.968 2.956-10.191 61.665-21.582Z" fill="#0C1905"/>
    </g>
    <g>
      <path opacity=".76" d="M784-27S557.702 29.908 516.96 1.13C476.22-27.647 559.532 118.517 784-27Z" fill="#939393"/>
    </g>
    <g>
      <path opacity=".86" d="M-23.601 61S251.893 134.953 423 91.827c0 0-49.909 42.159-244.26 42.159 0 0-159.686 12.841-190.327-13.497C-33.972 101.247-23.6 61-23.6 61Z" fill="#939393"/>
      <path opacity=".76" d="M317.484 63.093S40.17 105.508-6.283 91.578c-46.456-13.931 40.787 62.81 323.767-28.483Z" fill="#939393"/>
      <animateTransform attributeName="transform" attributeType="XML" type="scale" values="1;1.2;1" dur="15s" repeatCount="indefinite"/>
    </g>
    <g>
      <path opacity=".78" d="M707.475 49.199C528.179 50.178 349.84 21.491 175.248-20H3v73.783c55.65-1.607 112.661 9.666 168.866 18.048 27.379 4.083 54.566 7.48 81.313 8.368 98.591 3.566 202.411-3.188 301.002 5.051-19.272-4.254-39.103-13.5-61.9-19.051-1.66-.403 6.005.887 4.365.384-4.678-.786 5.562 1.083 5.562 1.083 62.949 10.569 110.463 14.363 175.377 25.533 15.284 2.558 27.675 11.647 42.721 13.657v-58.34c-4.275.421-8.553.683-12.831.683Z" fill="#939393"/>
      <path opacity=".76" d="M790.691 117.54S131.21 38.994 19.237-30.357C-92.753-99.733 121.152 165.618 790.69 117.54Z" fill="#939393"/>
      <animateTransform attributeName="transform" attributeType="XML" type="scale" values="1;1.2;1" dur="6s" repeatCount="indefinite"/>
    </g>
    <g>
      <path d="m719.849 435.707-38.879 4.36s-81.417 7.05-98.027 10.992c-16.61 3.941-130.277 14.608-130.277 14.608S635.674 439.191 653 437.51c17.326-1.681 66.583-7.811 66.583-7.811l.266 6.008Z" fill="#C4A856"/>
    </g>
    <g>
      <path d="m720.014 406.436-44.235 5.667s-47.202 9.018-65.052 8.333c-17.85-.684-83.727 11-83.727 11s38.238-8.667 47.797-9.667c9.559-1 34.612-4 43.512-4.667 8.9-.666 101.705-10.666 101.705-10.666Z" fill="#C4A856"/>
    </g>
    <g>
      <path d="M718.934 462.853 505.333 481.52l-105.917 10L292 500.835l108.415-1.982 174.863-6.667 143.656-5.666v-23.667Z" fill="#36451E"/>
    </g>
    <g>
      <path d="m149.05 479.594 3.241-.335 10.107-1.043L205 479.594l131.786-11.538L207 483.224l-57.95-3.63Z" fill="#36451E"/>
    </g>
    <g>
      <path d="m338.058 443.672 111.609-9.193-96.372 4.706-15.237 4.487Z" fill="#36451E"/>
    </g>
    <g>
      <path d="m546.902 406.513 26.121-5.257 75.436-7.859-101.557 13.116Z" fill="#C4A856"/>
    </g>
    <g opacity=".74">
      <path opacity=".74" d="m.596 424.13-.049-2.102 45.25-3.863-45.2 5.965Z" fill="#646E2D"/>
    </g>
    <g opacity=".63">
      <path opacity=".63" d="m1.041 408.754-.25-2.787 166.477-18.673-166.227 21.46Z" fill="#646E2D"/>
    </g>
    <g>
      <path d="m637.719 489.61-1.704 2.558-10.828-10.909-23.02-33.069 2.727-4.092 16.805 26.711 16.02 18.801Z" fill="#05180F"/>
      <path d="m607.28 440.518-2.386 3.58 8.014 7.926 10.836 15.716 15.054 20.25 2.483-2.658s-11.221-15.599-14.299-22.451c-3.078-6.852-5.127-23.729-5.213-30.804-.086-7.075-9.12 4.264-9.12 4.264l6.525 14.593 8.653 18.051-16.028-20.285-4.519-8.182Z" fill="#05180F"/>
      <path d="m634.298 424.545-9.376 4.093s2.094 16.276 3.982 22.843c2.189 7.614 10.49 26.675 10.49 26.675l2.017 4.804 3.921-1.819s-1.62-3.36-3.724-9.745c0 0-2.322-9.131-2.673-13.723-.297-3.883-.062-9.292 1.43-14.875 1.493-5.583 3.708-11.124 5.441-13.909 1.733-2.785 2.897-6.933 2.897-6.933l-9.887 1.905s2.699.937.57 10.967c-2.129 10.03-5.367 15.259-5.367 15.259l-.059-10.996.338-14.546ZM653.513 423.07l6.328.278-4.965 40.518 8.748-16.083 4.201-22.191 3.239 2.159-5.963 20.771s-7.158 12.588-7.754 16.992c-.596 4.404-.594 15.116-.935 15.997-.341.881-3.893-.255-3.893-.255l.477-34.152.517-24.034ZM652.34 422.78l-2.983.228-2.064 57.963 3.324-.37 1.723-57.821ZM676.464 429.993s-7.721 39.666-8.005 40.831c-.284 1.165-2.98 16.849-3.236 17.048-.256.199 2.444 2.244 2.444 2.244l7.441-20.032s7.555-16.14 8.833-21.198c1.278-5.058 3.692-11.451 3.692-11.451l-4.177-2.784s-.68 10.257-2.839 16.082c-2.158 5.825-7.924 16.14-8.123 16.254-.199.114 2.895-16.906 3.719-18.696.824-1.79 4.685-16.083 4.685-16.083l-4.434-2.215ZM672.003 428.374l2.642 1.761-6.757 26.767-4.996 29.294-1.961-2.045 4.428-28.258 6.644-27.519ZM690.408 438.523c-.445.436-15.87 41.048-15.991 41.213-.121.165-4.288 11.962-4.288 11.962l1.324.966s7.019-14.662 7.117-14.97c.098-.308 11.605-24.251 14.004-27.192 2.399-2.941 2.777-3.807 2.777-3.807l-4.943-8.172ZM695.686 447.332s-4.719 10.794-7.425 16.499c-2.635 5.556-7.232 13.262-7.625 14.247 0 0-7.414 14.601-7.6 14.879-.186.278.756 1.267.756 1.267s10.865-19.629 12.513-20.809c1.648-1.18 11.8-14.567 12.365-14.86.567-.294-1.596-10.165-2.984-11.223Z" fill="#05180F"/>
    </g>
    <g>
      <path d="m616.832 487.855 15.059 3.073v-3.073l-23.757-6.761-1.422-.637a29.026 29.026 0 0 0-.375 3.27l10.495 4.128Z" fill="#08251D"/>
      <path d="m579.338 473.103 27 10.623c.061-1.104.192-2.194.375-3.27l-27.375-12.271v4.918Z" fill="#0D3529"/>
      <path d="m587.635 468.185-8.298-4.303v4.303l11.064 2.151 17.08 6.809a25.26 25.26 0 0 1 .793-2.252l-20.639-6.708Z" fill="#0D3529"/>
      <path d="m612.222 476.176-3.948-1.283a25.26 25.26 0 0 0-.793 2.252l.653.26 23.757 8.503.592-3.589s-15.867-5.961-23.066-9.996a37.723 37.723 0 0 0-.795 1.715l3.6 2.138Z" fill="#08251D"/>
      <path d="M586.714 448.823c-3.995-5.839-5.225 8.605-5.225 8.605l13.523 8.525 13.611 8.085c.251-.581.516-1.153.795-1.715a29.37 29.37 0 0 1-1.283-.757c-6.362-3.995-17.426-16.903-21.421-22.743ZM608.134 447.433c-1.854-5.474-3.083-11.313-3.186-14.591-.102-3.278-1.434-7.376-1.434-7.376l-7.171 7.069s2.766-.717 6.556 8.81c3.79 9.527 3.995 15.674 3.995 15.674l-6.147-9.118-7.786-12.293-5.532 8.605s10.768 12.383 15.981 16.801c2.024 1.715 5.33 4.118 8.832 6.556a39.43 39.43 0 0 1 4.397-5.267 32.327 32.327 0 0 1-1.447-1.698c-2.4-3.067-5.204-7.698-7.058-13.172Z" fill="#0D3529"/>
      <path d="m626.934 477.395 4.343 2.879 2.254-3.688s-3.211-1.898-8.503-6.044c0 0-5.131-4.631-8.387-8.239a39.494 39.494 0 0 0-4.397 5.267c6.957 4.843 14.69 9.825 14.69 9.825Z" fill="#08251D"/>
      <path d="m613.554 420.446-5.42 3.278 12.898 20.284 6.601 10.211c.76-.407 1.532-.796 2.315-1.167l-16.394-32.606ZM625.335 417.885h-3.893l8.81 20.796 1.229 13.671a56.501 56.501 0 0 1 1.947-.809c-1.012-5.671-1.537-13.067-1.537-13.067l-6.556-20.591Z" fill="#0D3529"/>
      <path d="m631.891 456.916-1.943-3.864c-.783.372-1.556.76-2.315 1.167l11.941 18.473s3.586-1.024 3.381-1.946c-.205-.922-6.146-9.835-8.093-13.83-.553-1.136-1.032-3.119-1.434-5.373-.656.258-1.304.528-1.947.809l.41 4.564Z" fill="#08251D"/>
      <g>
        <path d="m635.067 475.356 2.561-2.151-11.373-18.219a49.329 49.329 0 0 0-2.71 1.672l11.522 18.698Z" fill="#08251D"/>
        <path d="m604.641 425.978 18.904 30.68a49.71 49.71 0 0 1 2.71-1.672l-19.258-30.852-2.356 1.844Z" fill="#0D3529"/>
      </g>
      <g>
        <path d="M651.633 447.426a66.434 66.434 0 0 0-3.451.356c.089 1.173.125 1.913.1 1.963-.022.045-.367-.678-.896-1.856a65.236 65.236 0 0 0-3.119.527c1.578 3.8 2.682 6.47 2.787 6.759.41 1.127 6.864 15.674 6.761 15.981-.102.307 3.278.512 3.278.512l-4.917-20.796s-.207-1.368-.543-3.446Z" fill="#08251D"/>
        <path d="M641.009 432.125c-.307-1.947-5.02-15.981-5.02-15.981l-4.917.615s8.612 20.624 13.195 31.658a65.236 65.236 0 0 1 3.119-.527c-1.892-4.213-6.137-14.244-6.377-15.765ZM647.77 428.334c-1.741-4.917-3.278-11.576-3.278-11.576h-5.02s5.122 8.913 6.556 14.957c1.085 4.572 1.876 12.424 2.153 16.067a65.25 65.25 0 0 1 3.451-.356c-.869-5.384-2.605-15.544-3.862-19.092Z" fill="#0D3529"/>
      </g>
      <g>
        <path d="m648.18 470.439 2.766.615-9.782-21.969c-.849.208-1.689.439-2.525.681l9.541 20.673Z" fill="#08251D"/>
        <path d="M629.638 417.885h-3.176l9.732 26.584 2.445 5.297a63.42 63.42 0 0 1 2.525-.681l-2.306-5.179-9.22-26.021Z" fill="#0D3529"/>
      </g>
      <g>
        <path d="M658.154 447.25c-1.087-8.159-2.538-19.927-2.302-22.359.365-3.778.2-4.708.2-4.708l-8.646-4.059c-.083.397 3.999 18.515 6.852 31.148a65.736 65.736 0 0 1 3.896-.022Z" fill="#0D3529"/>
        <path d="M658.154 447.25a65.736 65.736 0 0 0-3.896.022c1.525 6.755 2.699 11.944 2.697 12.015-.009.205 3.065 12.332 3.065 12.332l1.638.07s-2.29-16.093-2.379-16.404c-.033-.112-.524-3.524-1.125-8.035Z" fill="#08251D"/>
      </g>
      <g>
        <path d="M663.342 447.433c.717-1.896 1.742-18.665 2.049-19.223.307-.558-6.966-7.572-8.708-7.683 0 0 2.059 11.599 2.971 17.847.399 2.739.709 6.056.95 8.975.904.055 1.806.124 2.704.216.011-.045.021-.099.034-.132Z" fill="#0D3529"/>
        <path d="M663.308 447.565c-.898-.093-1.8-.162-2.704-.216.294 3.567.485 6.538.605 7.109 0 0 1.927 16.261 1.927 16.596 0 .335 1.332.635 1.332.635s-1.778-21.57-1.16-24.124Z" fill="#08251D"/>
      </g>
    </g>
    <g opacity=".47">
      <path opacity=".47" d="m0 309.855 94.729 29.608 43.477 39.271-63.149 8.434L.791 337.454 0 309.855Z" fill="#244560"/>
    </g>
    <g>
      <path d="m693.791 489.1-19.627-.832s-5.801-7.359 1.963-10.883c7.764-3.524 13.185-3.715 17.664-.682 4.48 3.033 12.798 12.397 12.798 12.397h-12.798Z" fill="#05180F"/>
    </g>
    <g>
      <path d="m669.798 494.999-40.113-1.701s-11.856-15.039 4.012-22.241c15.868-7.201 26.946-7.593 36.101-1.394 9.155 6.199 26.155 25.336 26.155 25.336h-26.155Z" fill="#122F37"/>
    </g>
    <g>
      <path d="m353 281.409-36.472 24.47 13.995 1.391L353 281.409Z" fill="#52768E"/>
    </g>
    <g>
      <path d="M173.305 322.794 98.5 342.231l27.887 3.407 46.918-22.844Z" fill="#52768E"/>
    </g>
    <g>
      <path d="M.791 315.147 88.5 342.231l-23.191 3.761-65.434-24.976.916-5.869Z" fill="#52768E"/>
    </g>
    <g opacity=".71">
      <path opacity=".71" d="M139.663 283.614c-.75.5-15.663 10.725-15.663 10.725l-19.265 9.05L92 301.999l47.663-18.385Z" fill="#FCD6CE"/>
    </g>
    <g>
      <path d="m103.046 382.008-.902 1.354 7.619 10.944 1.125 1.134c.485-.072.966-.147 1.442-.224l-3.722-4.368-5.562-8.84ZM108.631 378.029c-.029-2.341-3.018 1.411-3.018 1.411l2.16 4.83 2.864 5.974-5.305-6.713-1.496-2.708-.79 1.185 2.652 2.623 3.586 5.201 3.899 5.246c.452-.074.899-.146 1.343-.216-1.076-1.534-3.398-4.917-4.171-6.638-1.017-2.268-1.695-7.853-1.724-10.195Z" fill="#03190E"/>
      <g fill="#03190E">
        <path d="m115.132 394.87.32-.148-.359.054.039.094ZM115.197 391.043s-.769-3.022-.885-4.542a15.196 15.196 0 0 1 .473-4.923c.494-1.848 1.227-3.682 1.801-4.603.574-.921.959-2.295.959-2.295l-3.272.631s.893.31.189 3.63c-.705 3.319-1.776 5.05-1.776 5.05l-.02-3.639.112-4.815-3.103 1.355s.693 5.387 1.318 7.56c.724 2.52 3.472 8.828 3.472 8.828l.628 1.496.359-.054.978-.454c-.001 0-.537-1.112-1.233-3.225Z"/>
      </g>
      <g fill="#03190E">
        <path d="M120.101 394.372c.109-.363.111-3.837.306-5.277.197-1.458 2.566-5.624 2.566-5.624l1.974-6.874-1.072-.714-1.39 7.344-2.896 5.323 1.643-13.41-2.094-.092-.171 7.954-.158 11.303s.101.031.241.069c.352-.011.702-.01 1.051-.002Z"/>
        <path d="M119.05 394.374c.349.093.966.224 1.047.016.001-.003.002-.013.004-.017-.349-.009-.699-.01-1.051.001Z"/>
      </g>
      <path d="m118.749 374.953-.988.075-.683 19.183 1.1-.122.571-19.136ZM129.207 383.593c.423-1.674 1.222-3.79 1.222-3.79l-1.383-.921s-.225 3.395-.939 5.323c-.714 1.928-2.623 5.342-2.688 5.379-.066.038.958-5.595 1.231-6.188.273-.593 1.551-5.323 1.551-5.323l-1.467-.733s-2.555 13.128-2.649 13.513c-.059.243-.435 2.391-.726 3.965.407.107.813.237 1.218.391l1.709-4.601c-.002 0 2.498-5.341 2.921-7.015ZM123.894 386.245l2.237-8.858-.875-.583-2.199 9.108-1.344 8.58c.252.032.504.074.755.121l1.426-8.368ZM132.064 384.127c.794-.974.919-1.26.919-1.26l-1.636-2.705c-.147.144-5.252 13.585-5.292 13.64-.018.025-.32.865-.641 1.765.233.109.467.211.699.339a223.778 223.778 0 0 0 1.316-2.78c.033-.101 3.842-8.025 4.635-8.999ZM133.094 383.078s-1.562 3.573-2.457 5.461c-.872 1.839-2.394 4.389-2.524 4.715 0 0-.805 1.585-1.505 2.958.144.087.288.171.431.266 1.099-1.933 2.612-4.525 2.95-4.768.546-.391 3.906-4.821 4.093-4.918.188-.097-.528-3.364-.988-3.714Z" fill="#03190E"/>
    </g>
    <g opacity=".71">
      <path opacity=".71" d="M341.5 267.749 320 282.478l4.499-.057 11.428-5.893 5.573-8.779Z" fill="#FCD6CE"/>
    </g>
    <g opacity=".71">
      <path opacity=".71" d="M131.527 290.803h4.25l6.146-6.487-10.396 6.487Z" fill="#FCD6CE"/>
    </g>
    <g opacity=".71">
      <path opacity=".71" d="m246.817 259.242-22.067 14.5 20.77-9.128 1.297-5.372Z" fill="#FCD6CE"/>
    </g>
    <g opacity=".71">
      <path opacity=".71" d="m130.934 293.502-23.684 11.75h9.934l13.75-11.75Z" fill="#FCD6CE"/>
    </g>
    <g opacity=".71">
      <path opacity=".71" d="m226.5 275.113 12-2.864 6.5-5.757-18.5 8.621Z" fill="#FCD6CE"/>
    </g>
    <g>
      <path d="m342 265.642 19.676 11.284-10.313 1.043L342 265.642Z" fill="#72A5B2"/>
    </g>
    <g opacity=".47">
      <path opacity=".47" d="M172.551 318.925h93.862l29.446 20.089-58.151 16.304-65.157-36.393Z" fill="#244560"/>
    </g>
    <g opacity=".71">
      <path opacity=".71" d="m462.75 221.25-24.966 21.606L463 224.5l-.25-3.25Z" fill="#FCD6CE"/>
    </g>
    <g opacity=".71">
      <path opacity=".71" d="m545.801 204-26.461 20.005 27.582-16.487-1.121-3.518Z" fill="#FCD6CE"/>
    </g>
    <g>
      <path d="m56.187 489.059 41.346-1.994a3.94 3.94 0 0 1 .266-.003l70.279 1.996L99 490.955l-74.646 6.271 31.833-8.167Z" fill="#36451E"/>
    </g>
    <g>
      <path d="M53.495 395.093c-1.94.37-3.882.808-5.822 1.408v96.892l5.822-5.822v-92.478Z" fill="#7F574F"/>
      <path d="M47.673 309.123v87.379c1.94-.6 3.882-1.038 5.822-1.408v-85.971h-5.822Z" fill="#664039"/>
      <path d="M50.584 309.123h-2.911v87.379a45.09 45.09 0 0 1 2.91-.791v-86.588Z" fill="#995A50"/>
      <path d="M50.584 395.71c-.97.23-1.94.491-2.911.791v96.892l2.91-2.911V395.71Z" fill="#D09C92"/>
      <path d="m51.124 238.79-18.667 77.93 20-1.333-21.334 3.666v2l21.334-2v6.667l-23 4.667-8.334 32.333 31.334-6.333-.114 4.701-31.22 5.299-1.666 4.666 33 1.334-1.333-133.597Z" fill="#7A8956"/>
      <path d="m93.808 374.277-41.35-3.82-1.334-131.667 14.667 50.334-11-.334 11.667 3.667.924 2.987-10.591-.32 11 2.333 11.333 42-26.666-2.333v3.666l29.699 7.864 11.651 25.623Z" fill="#505B2E"/>
      <path d="M51.124 375.052v6.666H17.458l33.666-6.666Z" fill="#7A8956"/>
      <path d="m87.623 375.719-35.166-3.333v3.334l36.905 5.644-1.739-5.645ZM99.205 427.043l-45.972-7.911-.33 3.318 48.033 10.437-1.731-5.844Z" fill="#4E5E47"/>
      <path d="m51.933 328.477-23.323 5.196-1.492 5.788 24.948-5.788-.133-5.196Z" fill="#96A364"/>
      <path d="M51.683 297.477v3.765l17.91 2.89-.387-2.072-17.523-4.583Z" fill="#424922"/>
      <path d="m51.625 288.273-12.919 2.796.572-2.317 12.347-3.379v2.9Z" fill="#96A364"/>
      <path d="m52.183 343.227.06 6.083 33.986 8.248-2.263-4.948-31.783-9.383ZM51.683 277.394l11.586 3.07-.354-1.212-11.523-5.108.29 3.25Z" fill="#424922"/>
      <path d="m53.495 378.385 42.86 6.472 13.242 41.153-56.102-11.111v-36.514Z" fill="#505B2E"/>
      <g>
        <path d="M53.495 382.999v4.667l46.849 9.588-1.972-6.129-44.877-8.126Z" fill="#424922"/>
      </g>
      <g>
        <path d="m50.584 386.524-33.987 2.809-4.252 14.735 38.239-7.567v-9.977Z" fill="#7A8956"/>
      </g>
      <g>
        <path d="m50.584 402.198-38.24 8.171-3.914 8.49 42.154-13.026v-3.635Z" fill="#7A8956"/>
      </g>
    </g>
    <g>
      <path d="m116.238 395.722 2.94-1.238v-18.109l-1.47-3.405v-36.063h-.851l-.619 58.815Z" fill="#8C5C57"/>
      <path d="M116.55 371.781c-14.913-19.107-19.587-45.815-19.408-46.711l.74.121c-.012.2 3.964 26.531 19.258 46.129l-.59.461ZM118.491 377.268c-.003-.205-.148-20.729 13.7-38.886l.597.455c-13.693 17.953-13.55 38.217-13.547 38.419l-.75.012ZM116.872 342.982c-.914-8.753-3.982-14.946-6.332-17.59-1.459-1.642-3.814-3.446-6.092-5.191-2.557-1.959-5.2-3.985-6.616-5.816-2.66-3.444-3.893-11.892-3.944-12.25l.742-.105c.012.085 1.255 8.609 3.795 11.896 1.355 1.754 3.96 3.75 6.479 5.68 2.306 1.767 4.689 3.594 6.196 5.289 2.424 2.727 5.585 9.079 6.518 18.01l-.746.077Z" fill="#8C5C57"/>
      <path d="M113.387 333.632c-4.809 0-8.008-4.195-8.156-4.394l.601-.449c.038.05 3.831 5.007 9.095 3.936l.15.734a8.418 8.418 0 0 1-1.69.173ZM117.618 338.322l-.746-.072c.852-8.867 5.14-63.812 5.183-64.366l.748.059c-.044.553-4.332 55.504-5.185 64.379Z" fill="#8C5C57"/>
      <path d="M119.58 307.077c-.086-.081-2.134-2.049-4.915-7.771-2.785-5.73-3.568-21.606-3.6-22.279l.749-.035c.008.163.808 16.395 3.525 21.986 2.709 5.575 4.735 7.536 4.755 7.555l-.514.544Z" fill="#8C5C57"/>
      <path d="m116.594 301.644-.712-.236c.617-1.854.196-20.02-.019-26.863l.75-.023c.031 1.008.766 24.763-.019 27.122ZM118.491 321.095c-.128-.096-3.196-2.415-7.363-8.587-4.187-6.204-5.9-31.462-5.971-32.534l.748-.049c.018.26 1.771 26.126 5.845 32.163 4.085 6.052 7.159 8.383 7.189 8.405l-.448.602Z" fill="#8C5C57"/>
      <path d="M109.666 309.094c-10.559-6.831-11.745-21.08-11.756-21.223l.748-.057c.01.14 1.174 14.023 11.415 20.65l-.407.63Z" fill="#8C5C57"/>
      <path d="M106.381 306.303c-9.102-3.284-10.62-11.194-10.634-11.273l.738-.133c.014.075 1.47 7.568 10.15 10.701l-.254.705ZM122.025 359.414l-.046-.748c.098-.007 9.931-.778 17.619-13.44l.641.389c-7.905 13.019-17.796 13.774-18.214 13.799ZM109.763 360.047l-.745-.084c1.818-16.208-1.739-22.808-1.775-22.872l.654-.367c.153.27 3.716 6.832 1.866 23.323Z" fill="#8C5C57"/>
      <path d="m110.244 350.594-.659-.357c2.749-5.078 2.547-12.387 2.117-13.062l.165-.105.268-.491c1.015.553.906 8.849-1.891 14.015ZM111.858 326.94c-.271-7.793-4.556-14.214-4.599-14.278l.621-.42c.044.065 4.448 6.666 4.728 14.673l-.75.025ZM117.513 348.719l-.535-.525c.178-.181 17.788-18.351 18.852-39.166l.749.039c-1.079 21.102-18.887 39.469-19.066 39.652ZM118.425 328.856l-.72-.209c.014-.049.043-.195.091-.425 1.316-6.328 4.443-17.627 10.599-22.2 7.378-5.48 10.246-20.043 7.79-28.914l.723-.199c2.519 9.1-.455 24.062-8.065 29.715-4.415 3.28-8.077 11.005-10.312 21.751-.054.262-.09.428-.106.481ZM120.052 301.9l-.001-.75c.027 0 2.694-.057 5.332-3.152 2.471-2.898 5.416-9.108 5.416-22.228h.75c-.001 25.833-11.028 26.13-11.497 26.13Z" fill="#8C5C57"/>
      <path d="M125.495 298.201c-3.744-7.645 1.056-15.434 1.105-15.511l.635.398c-.046.074-4.624 7.52-1.066 14.782l-.674.331ZM132.559 301.744c-.134-.186-3.244-4.646-.421-12.328l.704.258c-2.677 7.288.296 11.591.327 11.634l-.61.436ZM121.176 322.735c-.957 0-1.56-.193-1.608-.21l.236-.712c.314.105 7.717 2.335 12.329-11.799l.713.232c-1.952 5.981-4.659 9.881-8.046 11.588-1.419.717-2.69.901-3.624.901ZM118.325 333.653c-.405 0-.646-.025-.66-.027l.085-.745c.298.033 7.29.731 9.788-6.62l.71.242c-2.233 6.57-7.973 7.15-9.923 7.15ZM129.053 333.485c-.358 0-.572-.013-.585-.014l.051-.748c.083.006 8.413.503 9.718-5.188l.731.168c-1.231 5.367-7.888 5.782-9.915 5.782ZM134.99 297.631l-.052-.748c.259-.019 6.349-.519 6.929-6.456l.746.072c-.642 6.575-7.553 7.127-7.623 7.132ZM134.551 322.546c-.64 0-1.06-.132-1.094-.143l.229-.714c.013.004 1.352.409 2.861-.414 1.617-.883 2.837-2.791 3.628-5.673l.724.199c-.851 3.097-2.2 5.163-4.013 6.143a4.887 4.887 0 0 1-2.335.602ZM101.983 343.315c-7.349-.95-9.61-8.86-9.633-8.94l.723-.199c.021.074 2.158 7.511 9.006 8.396l-.096.743ZM99.513 335.399l-.042-.748.021.374-.023-.374a2.66 2.66 0 0 0 1.738-.959c.693-.839.938-2.122.729-3.813l.744-.092c.237 1.913-.068 3.393-.906 4.397-.942 1.128-2.207 1.212-2.261 1.215ZM102.002 354.972c-.241 0-.487-.017-.738-.053-1.754-.252-3.29-1.401-4.569-3.417l.634-.402c1.153 1.82 2.511 2.855 4.036 3.076 2.351.347 4.358-1.381 4.378-1.398l.494.564c-.083.072-1.888 1.63-4.235 1.63ZM133.231 353.214c-1.923-4.271 1.29-8.899 1.427-9.095l.613.433c-.031.045-3.102 4.478-1.356 8.354l-.684.308ZM96.99 314.624c-3.193 0-5.182-2.155-5.833-3.43-.322-.629-.356-1.076-.104-1.329l.53.531a.19.19 0 0 0 .055-.095c-.022.183.305 1.013 1.21 1.884.811.781 2.565 2.022 5.221 1.6l.12.74a7.434 7.434 0 0 1-1.2.099ZM133.616 306.324c-2.063 0-3.488-1.132-3.556-1.188l.471-.583c.017.014 1.682 1.328 3.892.953 1.882-.314 3.624-1.722 5.178-4.182l.634.4c-1.676 2.654-3.594 4.176-5.701 4.523a5.459 5.459 0 0 1-.918.077Z" fill="#8C5C57"/>
    </g>
    <path d="M655.667 470.144s5.954 2.086 6.912 2.641c.838.485-1.229-3.255-6.912-2.641ZM636.813 474.637s4.513 1.932 5.239 2.446c.635.451-.932-3.014-5.239-2.446ZM651.32 477.301s4.513 1.932 5.239 2.446c.635.45-.932-3.015-5.239-2.446ZM632.857 484.114s4.513 1.932 5.239 2.446c.635.45-.931-3.015-5.239-2.446ZM668.107 481.187s4.513 1.932 5.239 2.446c.635.451-.931-3.014-5.239-2.446ZM645.091 483.738s4.513 1.932 5.239 2.446c.635.45-.932-3.015-5.239-2.446ZM661.793 486.779s4.513 1.932 5.239 2.446c.635.45-.932-3.015-5.239-2.446ZM678.227 488.905s4.513 1.932 5.239 2.446c.635.45-.931-3.015-5.239-2.446ZM667.168 474.264s3.6 1.512 4.179 1.915c.507.352-.743-2.36-4.179-1.915Z" fill="#244560"/>
    <g>
      <use stroke-width="2" xlink:href="#reuse-0"/>
      <animateTransform attributeName="transform" attributeType="XML" type="translate" values="0,0;0,400" dur="2s" repeatCount="indefinite"/>
    </g>
    <g>
      <use stroke-width="2" xlink:href="#reuse-0"/>
      <animateTransform attributeName="transform" attributeType="XML" type="translate" values="-10,-130;10,400" dur="1.4s" repeatCount="indefinite"/>
    </g>
    <g>
      <use stroke-width="2" xlink:href="#reuse-0"/>
      <animateTransform attributeName="transform" attributeType="XML" type="translate" values="10,-100;-10,400" dur="1.3s" repeatCount="indefinite"/>
    </g>
    <g>
      <use stroke-width="2" xlink:href="#reuse-0"/>
      <animateTransform attributeName="transform" attributeType="XML" type="translate" values="0,-250;0,400" dur="2.5s" repeatCount="indefinite"/>
    </g>
  </g>
  <defs>
    <linearGradient id="b" x1="359.984" y1="-.036" x2="359.984" y2="435.83" gradientUnits="userSpaceOnUse">
      <stop stop-color="#909192"/>
      <stop offset=".719" stop-color="#A4B9C8" stop-opacity=".281"/>
      <stop offset=".885" stop-color="#ABABAB" stop-opacity=".281"/>
      <stop offset="1" stop-color="#ACC8DD" stop-opacity="0"/>
    </linearGradient>
    <clipPath id="a">
      <path fill="#fff" d="M0 0h720v503.998H0z"/>
    </clipPath>
  </defs>
</svg>
